<svg width="198" height="53" viewBox="0 0 198 53" fill="none" xmlns="http://www.w3.org/2000/svg">
<g clip-path="url(#clip0_3032_574)">
<path fill-rule="evenodd" clip-rule="evenodd" d="M52.372 26.2694C52.372 40.7775 40.6276 52.5388 26.1403 52.5388C12.3956 52.5388 1.11985 41.9524 0 28.4775H34.6722V24.0612H0C1.11985 10.5863 12.3956 0 26.1403 0C40.6276 0 52.372 11.7612 52.372 26.2694ZM149.622 47.7793C158.712 47.7793 164.673 42.865 164.673 35.4637C164.673 28.5953 160.187 25.3388 153.4 24.2138L147.38 23.2072C142.776 22.4375 139.707 20.4243 139.707 15.9835C139.707 11.4836 143.13 8.04936 149.622 8.04936C155.938 8.04936 159.184 11.2467 159.538 15.8059H164.083C163.729 9.76647 159.125 4.37832 149.681 4.37832C140.356 4.37832 135.221 9.648 135.221 16.1612C135.221 23.0888 139.884 26.2861 146.258 27.3519L152.338 28.2993C157.413 29.1874 160.246 31.2598 160.246 35.6414C160.246 40.7927 156.056 44.1084 149.681 44.1084C143.071 44.1084 138.939 40.9111 138.585 35.4637H134.1C134.454 42.569 139.884 47.7793 149.622 47.7793ZM82.6146 46.9505H66.0882V5.26648H82.0244C89.0481 5.26648 93.9467 9.41118 93.9467 16.0428C93.9467 20.8388 91.2318 24.0361 86.8644 25.1019V25.2796C92.0581 26.2861 95.2451 29.8388 95.2451 35.4045C95.2451 42.569 89.9924 46.9505 82.6146 46.9505ZM81.4342 23.5625C86.4513 23.5625 89.5203 20.8388 89.5203 16.5756V15.9835C89.5203 11.7204 86.4513 9.05593 81.4342 9.05593H70.5151V23.5625H81.4342ZM81.9653 43.161C87.4546 43.161 90.8187 40.1413 90.8187 35.5229V34.9308C90.8187 30.1348 87.3956 27.2335 81.9063 27.2335H70.5151V43.161H81.9653ZM130.992 46.9505H126.27L122.729 35.6414H106.203L102.662 46.9505H98.1756L111.81 5.26648H117.181L130.992 46.9505ZM114.702 9.82567H114.348L107.383 31.9111H121.608L114.702 9.82567ZM171.322 46.9505V5.26648H198V9.11514H175.749V23.444H196.229V27.2335H175.749V43.1018H198V46.9505H171.322Z" fill="#ACA1B7"/>
</g>
<defs>
<clipPath id="clip0_3032_574">
<rect width="198" height="53" fill="white"/>
</clipPath>
</defs>
</svg>
