<svg width="434" height="138" viewBox="0 0 434 138" fill="none" xmlns="http://www.w3.org/2000/svg">
<path d="M210.751 46.1212C210.751 48.7754 210.033 50.9945 208.597 52.7785C207.205 54.519 205.312 55.8244 202.919 56.6946C200.525 57.5649 197.893 58 195.021 58H172.438V11.6595H198.219C200.395 11.6595 202.266 12.2469 203.832 13.4217C205.442 14.553 206.661 16.0324 207.487 17.86C208.358 19.6875 208.793 21.5803 208.793 23.5383C208.793 25.7139 208.227 27.8025 207.096 29.8041C205.964 31.7621 204.311 33.2415 202.135 34.2423C204.79 35.0255 206.878 36.4179 208.401 38.4195C209.968 40.4211 210.751 42.9883 210.751 46.1212ZM199.851 43.9673C199.851 42.9665 199.655 42.0963 199.264 41.3566C198.872 40.5733 198.35 39.9642 197.697 39.5291C197.088 39.0504 196.348 38.8111 195.478 38.8111H183.142V48.9277H195.021C195.935 48.9277 196.74 48.7101 197.436 48.275C198.176 47.8399 198.763 47.2525 199.198 46.5128C199.633 45.7731 199.851 44.9246 199.851 43.9673ZM183.142 20.797V30.3915H193.65C194.434 30.3915 195.152 30.2174 195.804 29.8693C196.501 29.5212 197.066 28.9991 197.501 28.3029C197.936 27.5632 198.154 26.6494 198.154 25.5616C198.154 24.5173 197.958 23.6471 197.567 22.9509C197.218 22.2547 196.74 21.7325 196.131 21.3844C195.521 20.9928 194.825 20.797 194.042 20.797H183.142ZM215.626 45.6643V23.7341H226.068V43.3799C226.068 45.4685 226.482 47.0784 227.309 48.2097C228.135 49.2976 229.31 49.8415 230.833 49.8415C231.79 49.8415 232.704 49.6892 233.574 49.3846C234.445 49.0365 235.293 48.4926 236.12 47.7529C236.947 47.0132 237.686 46.0559 238.339 44.8811V23.7341H248.782V46.3822C248.782 47.4265 248.934 48.1662 249.239 48.6014C249.587 48.993 250.174 49.2323 251.001 49.3193V58C250.044 58.174 249.195 58.3046 248.455 58.3916C247.759 58.4786 247.128 58.5221 246.563 58.5221C244.735 58.5221 243.278 58.1523 242.19 57.4126C241.102 56.6294 240.427 55.5416 240.166 54.1492L239.971 52.0606C238.404 54.3232 236.446 55.9984 234.096 57.0862C231.79 58.1305 229.201 58.6527 226.33 58.6527C222.849 58.6527 220.194 57.5431 218.367 55.324C216.539 53.1049 215.626 49.885 215.626 45.6643ZM256.872 58V23.7341H267.315V58H256.872ZM256.872 19.818V10.3541H267.315V19.818H256.872ZM274.333 10.3541H284.776V45.7948C284.776 47.2307 285.037 48.2533 285.56 48.8624C286.082 49.4716 286.821 49.7762 287.779 49.7762C288.431 49.7762 289.084 49.6892 289.737 49.5151C290.433 49.2976 291.042 49.0582 291.564 48.7972L292.935 56.6294C291.63 57.2385 290.128 57.7172 288.431 58.0653C286.734 58.4134 285.146 58.5874 283.667 58.5874C280.708 58.5874 278.402 57.8042 276.748 56.2378C275.138 54.6278 274.333 52.3652 274.333 49.4498V10.3541ZM294.368 40.8344C294.368 37.484 295.021 34.4816 296.326 31.8274C297.632 29.1296 299.416 26.9975 301.678 25.4311C303.941 23.8646 306.552 23.0814 309.51 23.0814C311.904 23.0814 314.079 23.6688 316.037 24.8437C317.995 25.975 319.475 27.4762 320.476 29.3472V10.3541H330.919V46.3822C330.919 47.4265 331.093 48.1662 331.441 48.6014C331.789 48.993 332.354 49.2323 333.138 49.3193V58C331.31 58.3481 329.831 58.5221 328.699 58.5221C326.915 58.5221 325.458 58.1305 324.326 57.3473C323.239 56.5641 322.564 55.4763 322.303 54.0839L322.107 52.3217C320.889 54.4538 319.235 56.0419 317.147 57.0862C315.058 58.1305 312.861 58.6527 310.555 58.6527C308.205 58.6527 306.03 58.2176 304.028 57.3473C302.07 56.4336 300.351 55.1717 298.872 53.5618C297.436 51.9518 296.326 50.059 295.543 47.8834C294.76 45.7078 294.368 43.3581 294.368 40.8344ZM320.541 45.0769V37.8973C320.106 36.7225 319.475 35.7 318.648 34.8297C317.865 33.9595 316.951 33.2633 315.907 32.7411C314.906 32.219 313.883 31.9579 312.839 31.9579C311.708 31.9579 310.664 32.1972 309.706 32.6759C308.793 33.1545 307.988 33.8289 307.291 34.6992C306.595 35.5259 306.051 36.4832 305.66 37.571C305.312 38.6588 305.138 39.8119 305.138 41.0302C305.138 42.2921 305.333 43.4669 305.725 44.5547C306.16 45.599 306.747 46.5345 307.487 47.3613C308.227 48.1445 309.097 48.7536 310.098 49.1888C311.099 49.6239 312.186 49.8415 313.361 49.8415C314.101 49.8415 314.819 49.7327 315.515 49.5151C316.211 49.254 316.864 48.9277 317.473 48.5361C318.126 48.1445 318.713 47.6441 319.235 47.0349C319.758 46.4257 320.193 45.7731 320.541 45.0769ZM355.414 58.6527C352.498 58.6527 349.909 58.1958 347.647 57.282C345.384 56.3248 343.448 55.0412 341.838 53.4312C340.271 51.8213 339.075 49.972 338.248 47.8834C337.421 45.7513 337.008 43.5322 337.008 41.226C337.008 37.9191 337.726 34.9168 339.162 32.219C340.641 29.4777 342.751 27.2804 345.493 25.6269C348.234 23.9299 351.541 23.0814 355.414 23.0814C359.286 23.0814 362.571 23.9082 365.269 25.5616C368.01 27.2151 370.099 29.3907 371.535 32.0885C372.971 34.7427 373.689 37.6363 373.689 40.7692C373.689 41.3783 373.645 41.9875 373.558 42.5967C373.515 43.1623 373.471 43.6627 373.428 44.0978H348.103C348.234 45.6208 348.647 46.9044 349.344 47.9487C350.083 48.993 351.019 49.7979 352.15 50.3636C353.281 50.8857 354.478 51.1468 355.74 51.1468C357.306 51.1468 358.764 50.777 360.113 50.0373C361.505 49.2976 362.463 48.2968 362.985 47.0349L371.861 49.5151C370.991 51.2991 369.751 52.8873 368.141 54.2797C366.574 55.6286 364.703 56.6946 362.528 57.4779C360.396 58.2611 358.024 58.6527 355.414 58.6527ZM347.842 37.7015H362.724C362.55 36.2656 362.136 35.0255 361.483 33.9812C360.831 32.8934 359.961 32.0667 358.873 31.501C357.785 30.8919 356.588 30.5873 355.283 30.5873C353.934 30.5873 352.716 30.8919 351.628 31.501C350.584 32.0667 349.735 32.8934 349.082 33.9812C348.43 35.0255 348.016 36.2656 347.842 37.7015ZM400.156 32.6759C397.632 32.6759 395.348 33.0892 393.303 33.916C391.258 34.6992 389.778 35.874 388.865 37.4405V58H378.422V23.7341H388.016V30.6526C389.191 28.3464 390.714 26.5406 392.585 25.2353C394.456 23.9299 396.414 23.2555 398.459 23.212C398.938 23.212 399.286 23.212 399.503 23.212C399.764 23.212 399.982 23.2337 400.156 23.2772V32.6759ZM417.673 58.6527C414.758 58.6527 411.908 58.174 409.123 57.2168C406.338 56.2595 403.989 54.8454 402.074 52.9743L405.664 46.3822C407.753 47.9052 409.776 49.0582 411.734 49.8415C413.736 50.6247 415.607 51.0163 417.347 51.0163C418.696 51.0163 419.74 50.7987 420.48 50.3636C421.22 49.9285 421.59 49.254 421.59 48.3403C421.59 47.6876 421.372 47.1872 420.937 46.8391C420.502 46.4475 419.827 46.0994 418.914 45.7948C418.043 45.4902 416.955 45.1639 415.65 44.8158C413.039 43.9455 410.864 43.0971 409.123 42.2703C407.383 41.4436 406.077 40.4428 405.207 39.268C404.337 38.0496 403.902 36.4832 403.902 34.5687C403.902 32.2625 404.467 30.2609 405.599 28.564C406.774 26.8235 408.427 25.4746 410.559 24.5173C412.691 23.5601 415.237 23.0814 418.196 23.0814C420.545 23.0814 422.83 23.4513 425.049 24.191C427.311 24.9307 429.422 26.1708 431.38 27.9113L427.333 34.4381C425.375 33.0892 423.635 32.1102 422.112 31.501C420.589 30.8919 419.109 30.5873 417.673 30.5873C416.934 30.5873 416.259 30.6743 415.65 30.8484C415.041 31.0224 414.541 31.327 414.149 31.7621C413.801 32.1537 413.627 32.6759 413.627 33.3286C413.627 33.9812 413.801 34.5034 414.149 34.895C414.541 35.2866 415.128 35.6347 415.911 35.9393C416.738 36.2004 417.76 36.5267 418.979 36.9183C421.807 37.745 424.157 38.5935 426.028 39.4638C427.899 40.2905 429.291 41.3348 430.205 42.5967C431.162 43.815 431.641 45.4467 431.641 47.4918C431.641 50.9728 430.379 53.714 427.855 55.7156C425.375 57.6737 421.981 58.6527 417.673 58.6527ZM192.084 127.326C189.038 127.326 186.166 126.761 183.469 125.629C180.771 124.455 178.399 122.823 176.354 120.734C174.309 118.602 172.699 116.1 171.524 113.228C170.393 110.313 169.828 107.071 169.828 103.503C169.828 100.283 170.415 97.2811 171.59 94.4964C172.765 91.7116 174.396 89.2531 176.485 87.121C178.573 84.9889 181.01 83.3355 183.795 82.1606C186.623 80.9423 189.669 80.3331 192.933 80.3331C197.197 80.3331 200.961 81.2469 204.224 83.0744C207.487 84.9019 209.902 87.3603 211.469 90.4497L203.506 96.4544C202.462 94.4093 200.939 92.7994 198.937 91.6245C196.979 90.4497 194.847 89.8623 192.541 89.8623C190.8 89.8623 189.19 90.2322 187.711 90.9719C186.275 91.6681 185.013 92.6688 183.925 93.9742C182.881 95.2361 182.076 96.7155 181.511 98.4125C180.945 100.109 180.662 101.937 180.662 103.895C180.662 105.897 180.967 107.746 181.576 109.443C182.185 111.14 183.033 112.619 184.121 113.881C185.209 115.099 186.493 116.057 187.972 116.753C189.495 117.449 191.17 117.797 192.998 117.797C195.217 117.797 197.327 117.253 199.329 116.165C201.374 115.034 203.245 113.381 204.942 111.205V121.779C201.243 125.477 196.957 127.326 192.084 127.326ZM204.289 110.552H195.282V102.785H213.166V127H204.289V110.552ZM217.24 116.753C217.24 114.49 217.871 112.51 219.133 110.813C220.395 109.116 222.135 107.789 224.354 106.832C226.573 105.831 229.119 105.331 231.991 105.331C233.383 105.331 234.754 105.461 236.102 105.723C237.451 105.94 238.626 106.266 239.627 106.702V105.2C239.627 103.329 239.061 101.893 237.93 100.893C236.799 99.8919 235.08 99.3915 232.774 99.3915C230.859 99.3915 229.053 99.7178 227.356 100.371C225.703 101.023 223.941 101.959 222.07 103.177L218.937 96.5197C221.199 95.0403 223.549 93.9307 225.986 93.191C228.466 92.4513 231.077 92.0814 233.818 92.0814C238.952 92.0814 242.934 93.3215 245.762 95.8017C248.634 98.2384 250.07 101.785 250.07 106.44V115.382C250.07 116.427 250.222 117.166 250.527 117.601C250.875 117.993 251.462 118.232 252.289 118.319V127C251.419 127.174 250.592 127.305 249.809 127.392C249.069 127.479 248.416 127.522 247.851 127.522C245.893 127.522 244.392 127.131 243.347 126.347C242.346 125.564 241.716 124.498 241.454 123.149L241.259 121.648C239.736 123.606 237.908 125.107 235.776 126.152C233.688 127.152 231.49 127.653 229.184 127.653C226.921 127.653 224.876 127.174 223.049 126.217C221.265 125.26 219.851 123.954 218.806 122.301C217.762 120.647 217.24 118.798 217.24 116.753ZM237.995 118.058C238.474 117.667 238.865 117.232 239.17 116.753C239.475 116.274 239.627 115.817 239.627 115.382V112.315C238.757 111.967 237.778 111.705 236.69 111.531C235.646 111.314 234.667 111.205 233.753 111.205C231.838 111.205 230.25 111.64 228.988 112.51C227.726 113.337 227.095 114.447 227.095 115.839C227.095 116.622 227.313 117.34 227.748 117.993C228.183 118.646 228.771 119.168 229.51 119.559C230.294 119.951 231.207 120.147 232.252 120.147C233.296 120.147 234.34 119.951 235.384 119.559C236.429 119.168 237.299 118.667 237.995 118.058ZM279.371 101.676C276.848 101.676 274.563 102.089 272.518 102.916C270.473 103.699 268.994 104.874 268.08 106.44V127H257.637V92.7341H267.231V99.6526C268.406 97.3464 269.929 95.5406 271.8 94.2353C273.671 92.9299 275.629 92.2555 277.674 92.212C278.153 92.212 278.501 92.212 278.719 92.212C278.98 92.212 279.197 92.2337 279.371 92.2772V101.676ZM281.62 109.834C281.62 106.484 282.273 103.482 283.579 100.827C284.884 98.1296 286.668 95.9975 288.931 94.4311C291.193 92.8646 293.804 92.0814 296.763 92.0814C299.156 92.0814 301.332 92.6688 303.29 93.8437C305.248 94.975 306.727 96.4762 307.728 98.3472V79.3541H318.171V115.382C318.171 116.427 318.345 117.166 318.693 117.601C319.041 117.993 319.607 118.232 320.39 118.319V127C318.562 127.348 317.083 127.522 315.952 127.522C314.168 127.522 312.71 127.131 311.579 126.347C310.491 125.564 309.816 124.476 309.555 123.084L309.36 121.322C308.141 123.454 306.488 125.042 304.399 126.086C302.311 127.131 300.113 127.653 297.807 127.653C295.457 127.653 293.282 127.218 291.28 126.347C289.322 125.434 287.603 124.172 286.124 122.562C284.688 120.952 283.579 119.059 282.795 116.883C282.012 114.708 281.62 112.358 281.62 109.834ZM307.793 114.077V106.897C307.358 105.723 306.727 104.7 305.9 103.83C305.117 102.959 304.203 102.263 303.159 101.741C302.158 101.219 301.136 100.958 300.091 100.958C298.96 100.958 297.916 101.197 296.959 101.676C296.045 102.155 295.24 102.829 294.544 103.699C293.847 104.526 293.304 105.483 292.912 106.571C292.564 107.659 292.39 108.812 292.39 110.03C292.39 111.292 292.586 112.467 292.977 113.555C293.412 114.599 294 115.535 294.739 116.361C295.479 117.144 296.349 117.754 297.35 118.189C298.351 118.624 299.439 118.841 300.614 118.841C301.353 118.841 302.071 118.733 302.767 118.515C303.464 118.254 304.116 117.928 304.725 117.536C305.378 117.144 305.966 116.644 306.488 116.035C307.01 115.426 307.445 114.773 307.793 114.077ZM342.666 127.653C339.75 127.653 337.162 127.196 334.899 126.282C332.636 125.325 330.7 124.041 329.09 122.431C327.524 120.821 326.327 118.972 325.5 116.883C324.673 114.751 324.26 112.532 324.26 110.226C324.26 106.919 324.978 103.917 326.414 101.219C327.893 98.4777 330.004 96.2804 332.745 94.6269C335.486 92.9299 338.793 92.0814 342.666 92.0814C346.538 92.0814 349.824 92.9082 352.521 94.5616C355.263 96.2151 357.351 98.3907 358.787 101.088C360.223 103.743 360.941 106.636 360.941 109.769C360.941 110.378 360.897 110.987 360.81 111.597C360.767 112.162 360.723 112.663 360.68 113.098H335.356C335.486 114.621 335.9 115.904 336.596 116.949C337.336 117.993 338.271 118.798 339.402 119.364C340.534 119.886 341.73 120.147 342.992 120.147C344.559 120.147 346.016 119.777 347.365 119.037C348.758 118.298 349.715 117.297 350.237 116.035L359.113 118.515C358.243 120.299 357.003 121.887 355.393 123.28C353.827 124.629 351.956 125.695 349.78 126.478C347.648 127.261 345.277 127.653 342.666 127.653ZM335.095 106.702H349.976C349.802 105.266 349.388 104.026 348.736 102.981C348.083 101.893 347.213 101.067 346.125 100.501C345.037 99.8919 343.841 99.5873 342.535 99.5873C341.186 99.5873 339.968 99.8919 338.88 100.501C337.836 101.067 336.987 101.893 336.335 102.981C335.682 104.026 335.269 105.266 335.095 106.702ZM398.7 127H388.257V107.746C388.257 105.483 387.822 103.851 386.951 102.851C386.125 101.806 385.015 101.284 383.623 101.284C382.665 101.284 381.686 101.545 380.686 102.067C379.685 102.59 378.771 103.308 377.944 104.221C377.161 105.135 376.552 106.179 376.117 107.354V127H365.674V92.7341H375.073V98.4777C375.943 97.1288 377.031 95.9758 378.336 95.0185C379.641 94.0612 381.143 93.3433 382.839 92.8646C384.536 92.3425 386.386 92.0814 388.387 92.0814C390.606 92.0814 392.39 92.4948 393.739 93.3215C395.132 94.1047 396.176 95.149 396.872 96.4544C397.612 97.7598 398.091 99.1739 398.308 100.697C398.569 102.176 398.7 103.634 398.7 105.07V127Z" fill="#ACA1B7"/>
<g clip-path="url(#clip0_3034_583)">
<path d="M128.164 68.6886C127.779 67.4652 127.321 66.2659 126.795 65.096C126.627 64.7224 126.453 64.3522 126.271 63.9856C126.182 63.8052 126.091 63.6258 125.998 63.4472C125.108 61.7276 124.065 60.0789 122.88 58.5189C122.689 58.2687 122.495 58.0211 122.298 57.7752C122.004 57.4085 121.701 57.047 121.392 56.6916C121.152 56.4172 120.908 56.1454 120.659 55.878C120.505 55.7123 120.35 55.5475 120.192 55.3844C119.345 54.5053 118.446 53.6641 117.499 52.8643C116.92 52.3759 116.327 51.9057 115.721 51.4545C116.953 49.4649 117.988 47.37 118.813 45.1889C120.202 41.5169 120.956 37.712 121.056 33.8795C121.103 32.084 121.005 30.3136 120.765 28.576C120.719 28.2455 120.668 27.9168 120.613 27.5889C120.544 27.1826 120.467 26.7788 120.382 26.3767C120.057 24.8358 119.617 23.325 119.062 21.8514C118.24 19.6729 117.186 17.6281 115.912 15.7299C114.833 14.1226 113.598 12.6196 112.209 11.234C111.362 10.3893 110.469 9.60244 109.537 8.87252C104.183 4.67766 97.4988 2.3999 90.3682 2.3999C85.7847 2.3999 81.2608 3.32308 76.9186 5.1427C72.5038 6.99337 68.5163 9.67664 65.0653 13.1174C64.9761 13.2063 64.8879 13.2952 64.7997 13.3849C64.7114 13.2952 64.6232 13.2063 64.5341 13.1174C61.083 9.67578 57.0955 6.99251 52.6807 5.1427C48.3394 3.32222 43.8155 2.3999 39.2328 2.3999C30.8599 2.3999 23.103 5.53785 17.3904 11.2348C11.6424 16.9672 8.49671 24.753 8.53304 33.1565C8.53823 34.3765 8.61091 35.5956 8.74933 36.8087C8.78826 37.1538 8.83325 37.498 8.88343 37.8423C8.92149 38.1011 8.96216 38.36 9.00541 38.6188C9.05992 38.9406 9.11875 39.2616 9.1819 39.5817C9.19748 39.6602 9.21391 39.7395 9.22949 39.8181C9.29264 40.1235 9.35926 40.4289 9.4302 40.7335C9.49855 41.0242 9.57035 41.3141 9.64562 41.604C9.81865 42.2658 10.0107 42.9241 10.2227 43.5764C10.2633 43.7023 10.3049 43.8283 10.3473 43.9534C10.5566 44.5755 10.7842 45.1924 11.0281 45.8041C11.8068 47.7522 12.7593 49.6443 13.8797 51.4536C13.2706 51.9066 12.6754 52.3785 12.094 52.8694C7.02682 57.1514 3.34043 62.6232 1.43364 68.6929C0.449103 71.8335 -0.0336495 75.0603 0.00182159 78.2819C0.00874277 78.9014 0.0346972 79.5192 0.0796849 80.1335C0.097853 80.3785 0.118617 80.6227 0.142841 80.8677C0.179177 81.2361 0.222434 81.6036 0.271748 81.9703C0.279534 82.0281 0.28732 82.0851 0.295972 82.1429C0.46035 83.3025 0.69394 84.45 0.995011 85.5828C1.02443 85.6924 1.05384 85.802 1.08412 85.9115C1.16371 86.1971 1.24763 86.481 1.33501 86.7648C1.47863 87.2273 1.63263 87.6871 1.79873 88.1436C1.97609 88.6293 2.16729 89.109 2.36887 89.5836C3.49702 92.2375 4.99891 94.7068 6.85033 96.9397C7.50092 97.7248 8.19131 98.4763 8.91976 99.1933C9.53315 99.7972 10.1742 100.376 10.8395 100.929C11.3794 101.378 11.9357 101.809 12.5075 102.223C12.819 102.449 13.1356 102.669 13.4566 102.884C13.717 103.059 13.98 103.231 14.2465 103.398C14.3105 103.438 14.3754 103.477 14.4394 103.517C14.8417 103.765 15.2492 104.006 15.661 104.236C15.8894 104.364 16.1187 104.49 16.3505 104.612C21.2507 107.204 26.8162 108.566 32.5919 108.566C32.7286 108.566 32.8662 108.566 33.0029 108.563C32.6949 108.838 32.3817 109.11 32.0642 109.377L22.1046 117.595C22.1046 117.595 26.9192 122.086 33.1725 126.033C42.619 132.03 53.5545 135.2 64.7962 135.2C76.0379 135.2 86.6593 132.12 96.0099 126.292C102.318 122.45 107.132 117.959 107.132 117.959L97.2626 109.65C96.843 109.292 96.4329 108.925 96.0306 108.552C96.3551 108.561 96.6804 108.565 97.0056 108.565C103.623 108.565 109.965 106.779 115.346 103.4C118.171 101.627 120.661 99.4538 122.744 96.9423C124.927 94.3099 126.627 91.3497 127.798 88.1444C128.955 84.9754 129.559 81.6563 129.597 78.2802C129.599 78.0792 129.599 77.8773 129.597 77.6762C129.569 74.6548 129.087 71.635 128.161 68.6895L128.164 68.6886ZM38.7587 117.291C38.898 117.175 39.0356 117.057 39.1731 116.939C39.2207 116.898 39.2674 116.858 39.3141 116.817C39.4076 116.735 39.501 116.655 39.5936 116.574C39.6489 116.526 39.7035 116.477 39.7588 116.427C39.8427 116.353 39.9267 116.278 40.0106 116.203C40.0685 116.151 40.1256 116.099 40.1836 116.047C40.2641 115.974 40.3437 115.901 40.4233 115.828C40.4821 115.774 40.54 115.72 40.598 115.666C40.6767 115.592 40.7546 115.52 40.8333 115.446C40.8913 115.391 40.9484 115.337 41.0064 115.282C41.0851 115.207 41.1638 115.132 41.2425 115.056C41.2979 115.003 41.3533 114.949 41.4087 114.896C41.49 114.817 41.5713 114.736 41.6526 114.657C41.7037 114.607 41.7547 114.556 41.8058 114.506C41.8966 114.415 41.9874 114.325 42.0774 114.233C42.1172 114.193 42.1579 114.152 42.1985 114.112C42.3283 113.98 42.4572 113.848 42.5853 113.714C42.6086 113.69 42.6311 113.666 42.6536 113.642C42.7592 113.532 42.8638 113.422 42.9677 113.311C43.0135 113.263 43.0585 113.214 43.1043 113.164C43.1857 113.077 43.2661 112.99 43.3466 112.903C43.3976 112.848 43.4478 112.792 43.498 112.736C43.5724 112.654 43.6468 112.572 43.7212 112.49C43.7731 112.432 43.825 112.373 43.8769 112.315C43.9487 112.233 44.0205 112.153 44.0915 112.071C44.1434 112.012 44.1962 111.951 44.2481 111.892C44.319 111.811 44.3891 111.729 44.4592 111.648C44.5102 111.588 44.5613 111.528 44.6123 111.468C44.6832 111.384 44.7542 111.3 44.8243 111.216C44.8727 111.158 44.922 111.1 44.9705 111.041C45.044 110.952 45.1175 110.862 45.1911 110.773C45.2352 110.718 45.2802 110.664 45.3243 110.61C45.41 110.504 45.4947 110.397 45.5795 110.29C45.6098 110.252 45.641 110.214 45.6721 110.175C45.7872 110.03 45.9014 109.883 46.0138 109.737C46.0424 109.701 46.0701 109.664 46.0978 109.628C46.1825 109.517 46.2673 109.406 46.3512 109.295C46.3928 109.24 46.4334 109.184 46.475 109.13C46.545 109.036 46.6151 108.942 46.6852 108.848C46.7302 108.787 46.7743 108.726 46.8184 108.665C46.8833 108.576 46.9482 108.486 47.0131 108.397C47.0589 108.333 47.1048 108.268 47.1506 108.204C47.2129 108.116 47.2752 108.028 47.3375 107.939C47.3834 107.875 47.4284 107.809 47.4733 107.744C47.5356 107.655 47.5971 107.566 47.6585 107.476C47.7026 107.411 47.7467 107.347 47.7909 107.283C47.8531 107.19 47.9154 107.098 47.9769 107.005C48.0184 106.943 48.0599 106.881 48.1014 106.818C48.1672 106.718 48.2321 106.618 48.297 106.518C48.3333 106.462 48.3705 106.406 48.4068 106.35C48.4882 106.224 48.5686 106.097 48.6482 105.97C48.6672 105.939 48.6871 105.909 48.707 105.878C48.8057 105.721 48.9034 105.563 49.0003 105.404C49.0297 105.357 49.0583 105.309 49.0868 105.261C49.1543 105.15 49.2218 105.038 49.2893 104.926C49.3265 104.863 49.3628 104.801 49.3992 104.739C49.4571 104.641 49.516 104.542 49.5731 104.442C49.612 104.375 49.6501 104.308 49.689 104.241C49.7435 104.147 49.798 104.051 49.8525 103.955C49.8914 103.886 49.9304 103.817 49.9693 103.747C50.0221 103.652 50.0748 103.557 50.1268 103.462C50.1648 103.392 50.2029 103.323 50.2409 103.254C50.2937 103.157 50.3456 103.06 50.3967 102.964C50.433 102.895 50.4702 102.826 50.5065 102.757C50.5593 102.657 50.6121 102.556 50.664 102.456C50.6977 102.391 50.7323 102.325 50.7661 102.259C50.8223 102.149 50.8777 102.039 50.9339 101.928C50.9625 101.871 50.9919 101.814 51.0204 101.757C51.0992 101.599 51.177 101.441 51.254 101.282C51.2584 101.273 51.2636 101.263 51.2679 101.254C51.3492 101.085 51.4297 100.916 51.5093 100.747C51.5352 100.692 51.5612 100.636 51.5871 100.58C51.6399 100.465 51.6935 100.351 51.7454 100.236C51.7757 100.169 51.806 100.102 51.8363 100.034C51.883 99.9301 51.9297 99.8265 51.9764 99.7213C52.0084 99.6497 52.0396 99.5781 52.0707 99.5065C52.1149 99.4055 52.159 99.3046 52.2022 99.2028C52.2334 99.1294 52.2654 99.0552 52.2957 98.9819C52.3381 98.8809 52.3805 98.78 52.422 98.679C52.4523 98.6057 52.4825 98.5315 52.5128 98.4573C52.5544 98.3546 52.5959 98.252 52.6374 98.1484C52.6668 98.076 52.6954 98.0035 52.7239 97.9301C52.7663 97.8223 52.8078 97.7144 52.8494 97.6066C52.8753 97.5384 52.9021 97.4703 52.9281 97.4021C52.9748 97.2805 53.0198 97.1579 53.0657 97.0363C53.0864 96.9811 53.1072 96.9267 53.1271 96.8724C53.192 96.6955 53.256 96.5178 53.3191 96.3392C53.3278 96.3141 53.3364 96.2891 53.3451 96.265C53.3987 96.1114 53.4524 95.9578 53.5052 95.8042C53.5268 95.7413 53.5475 95.6774 53.5692 95.6144C53.6081 95.498 53.647 95.3815 53.6851 95.265C53.7085 95.1925 53.7318 95.12 53.7552 95.0476C53.7898 94.9389 53.8253 94.8302 53.859 94.7214C53.8824 94.6455 53.9057 94.5705 53.9299 94.4945C53.9628 94.3884 53.9957 94.2814 54.0277 94.1744C54.0511 94.0968 54.0744 94.02 54.0969 93.9423C54.1281 93.8362 54.1592 93.7292 54.1903 93.6223C54.2128 93.5455 54.2345 93.4678 54.257 93.391C54.2881 93.2823 54.3184 93.1727 54.3478 93.064C54.3686 92.989 54.3893 92.9139 54.4092 92.8388C54.4404 92.7241 54.4707 92.6085 54.5009 92.4929C54.5191 92.423 54.5373 92.354 54.5554 92.2841C54.59 92.1495 54.6238 92.014 54.6575 91.8786C54.6696 91.8285 54.6826 91.7785 54.6947 91.7284C54.7397 91.5429 54.7847 91.3566 54.828 91.1702C54.8383 91.1271 54.8479 91.0839 54.8574 91.0399C54.8903 90.8967 54.9231 90.7526 54.9543 90.6085C54.969 90.5395 54.9837 90.4705 54.9984 90.4023C55.0244 90.2833 55.0494 90.1642 55.0745 90.0443C55.0901 89.9675 55.1057 89.8916 55.1212 89.8148C55.1437 89.7018 55.1662 89.5896 55.1887 89.4766C55.2043 89.3972 55.219 89.3178 55.2346 89.2376C55.2553 89.1263 55.2761 89.0158 55.296 88.9045C55.3107 88.8243 55.3254 88.7441 55.3393 88.663C55.3479 88.6138 55.3574 88.5655 55.3652 88.5163C55.3669 88.5085 55.3669 88.5016 55.3678 88.4939C55.5927 87.1902 55.7666 85.8693 55.8852 84.5319C55.2822 85.682 54.5762 86.7916 53.7751 87.8494C53.756 87.8744 53.7361 87.8994 53.7171 87.9253C53.6306 88.0383 53.5441 88.1505 53.4558 88.2618C53.4204 88.3066 53.3849 88.3506 53.3486 88.3955C53.2724 88.4904 53.1954 88.5844 53.1176 88.6785C53.0812 88.7225 53.044 88.7674 53.0077 88.8114C52.9169 88.9201 52.8243 89.0279 52.7308 89.1349C52.7092 89.1599 52.6876 89.1858 52.666 89.2108C52.5509 89.342 52.435 89.4714 52.3164 89.6008C52.2836 89.6362 52.2507 89.6716 52.2187 89.7069C52.1313 89.8018 52.0422 89.8959 51.9531 89.9899C51.9115 90.0331 51.8709 90.0762 51.8294 90.1185C51.742 90.2091 51.6537 90.2979 51.5655 90.3877C51.5274 90.4256 51.4902 90.4645 51.4513 90.5016C51.3258 90.6258 51.1995 90.7492 51.0706 90.8708C51.062 90.8786 51.0542 90.8864 51.0455 90.8941C50.9253 91.008 50.8033 91.121 50.6796 91.2341C50.638 91.272 50.5957 91.31 50.5533 91.3471C50.4598 91.4308 50.3664 91.5145 50.2712 91.5973C50.2262 91.637 50.1804 91.6767 50.1345 91.7155C50.0316 91.8044 49.9278 91.8915 49.8231 91.9786C49.7885 92.0071 49.7547 92.0365 49.7201 92.0649C49.5817 92.1788 49.4424 92.291 49.3014 92.4031C49.2685 92.429 49.2356 92.454 49.2028 92.4799C49.0929 92.5662 48.9822 92.6516 48.8697 92.7362C48.8212 92.7724 48.7728 92.8095 48.7235 92.8457C48.6214 92.9217 48.5193 92.9967 48.4164 93.0718C48.3688 93.1063 48.3212 93.1408 48.2736 93.1745C48.143 93.2676 48.0115 93.36 47.8791 93.4506C47.8609 93.4635 47.8428 93.4764 47.8246 93.4885C47.6741 93.5912 47.5218 93.6921 47.3687 93.7922C47.3237 93.8216 47.277 93.8509 47.232 93.8802C47.1212 93.9518 47.0096 94.0226 46.8972 94.0925C46.8444 94.1253 46.7907 94.1589 46.7371 94.1917C46.6229 94.2616 46.5078 94.3306 46.3928 94.3996C46.3469 94.4264 46.3019 94.454 46.2552 94.4816C46.096 94.5748 45.9351 94.6671 45.7733 94.7577C45.7482 94.7715 45.7223 94.7853 45.6972 94.7991C45.5588 94.8759 45.4203 94.9509 45.2802 95.0251C45.2266 95.0536 45.172 95.0821 45.1175 95.1106C45.0016 95.171 44.8848 95.2313 44.7672 95.29C44.7109 95.3185 44.6556 95.3461 44.5993 95.3746C44.4652 95.441 44.3311 95.5057 44.1953 95.5704C44.159 95.5877 44.1235 95.6049 44.0872 95.6222C43.9167 95.7024 43.7446 95.7809 43.5715 95.8577C43.5257 95.8784 43.4798 95.8974 43.434 95.9173C43.3042 95.9742 43.1736 96.0303 43.0421 96.0855C42.9824 96.1105 42.9227 96.1355 42.863 96.1597C42.7375 96.2115 42.6112 96.2624 42.4849 96.3116C42.4295 96.3331 42.3742 96.3556 42.3188 96.3771C42.1397 96.4461 41.9606 96.5143 41.7789 96.5799C41.7789 96.5799 41.7772 96.5799 41.7763 96.5807C38.7215 97.6894 35.6122 98.2149 32.5963 98.2149C27.9158 98.2149 23.4612 96.95 19.7826 94.6395C18.4995 93.8336 17.3108 92.901 16.2398 91.8492C15.2319 90.8605 14.3295 89.7665 13.55 88.5758C13.4549 88.43 13.3614 88.2833 13.2697 88.1341C12.5915 87.034 12.0153 85.8563 11.5585 84.6044C8.47854 76.1646 11.6519 66.8189 18.8084 60.7717C21.1391 58.8028 23.892 57.1842 26.9884 56.06C26.9901 56.06 26.9918 56.0591 26.9927 56.0583C27.1934 55.9849 27.395 55.9151 27.5966 55.8478C27.6641 55.8253 27.7315 55.8038 27.799 55.7813C27.9348 55.7365 28.0715 55.6925 28.2074 55.6502C28.287 55.6252 28.3666 55.6019 28.4461 55.5777C28.5707 55.5397 28.6953 55.5026 28.8208 55.4673C28.9047 55.4431 28.9886 55.4198 29.0725 55.3974C29.1936 55.3637 29.3156 55.331 29.4367 55.2999C30.1444 55.1153 30.853 54.9591 31.5607 54.834C30.962 54.4656 30.3737 54.0704 29.7966 53.6485C29.7006 53.5786 29.6054 53.5079 29.5103 53.4363C29.4722 53.4078 29.4341 53.3793 29.3961 53.35C29.2836 53.2646 29.172 53.1792 29.0613 53.0912C29.0474 53.0799 29.0336 53.0696 29.0197 53.0584C28.8952 52.9609 28.7723 52.8608 28.6495 52.7607C28.6149 52.7322 28.5811 52.7038 28.5465 52.6762C28.4548 52.6002 28.3622 52.5234 28.2714 52.4458C28.2351 52.4147 28.1987 52.3837 28.1624 52.3526C28.0482 52.2551 27.9348 52.1568 27.8215 52.0567C27.8137 52.0498 27.8059 52.0437 27.799 52.0368C27.6788 51.9307 27.5602 51.822 27.4417 51.7133C27.4071 51.6814 27.3734 51.6503 27.3388 51.6184C27.2505 51.5364 27.1623 51.4536 27.0749 51.3699C27.0403 51.3371 27.0057 51.3043 26.9711 51.2707C26.8543 51.1585 26.7375 51.0446 26.6224 50.9299C25.9718 50.2811 25.3628 49.609 24.7944 48.917C20.9202 44.2036 18.9399 38.5593 18.9174 33.1142C18.8941 27.6933 20.8112 22.47 24.7347 18.5573C28.6339 14.6679 33.8343 12.7551 39.2354 12.7551C45.5268 12.7551 52.0915 15.3503 57.1959 20.4399C59.4842 22.722 61.2698 25.2982 62.5433 28.0108C62.5433 28.0117 62.5433 28.0126 62.5442 28.0134C62.6186 28.1722 62.6913 28.3309 62.7622 28.4905C62.7856 28.544 62.8081 28.5967 62.8314 28.6502C62.8782 28.758 62.9257 28.8659 62.9707 28.9737C62.9975 29.0376 63.0235 29.1014 63.0495 29.1652C63.0901 29.2627 63.1299 29.3611 63.1689 29.4595C63.1957 29.5276 63.2225 29.5966 63.2484 29.6648C63.2848 29.7588 63.3211 29.8529 63.3566 29.9478C63.3825 30.0185 63.4085 30.0893 63.4344 30.16C63.4682 30.2532 63.5019 30.3464 63.5339 30.4396C63.559 30.5112 63.5833 30.5828 63.6075 30.6544C63.6386 30.7476 63.6698 30.8399 63.7 30.9331C63.7234 31.0047 63.7468 31.0772 63.7693 31.1497C63.7987 31.2428 63.8272 31.3369 63.8558 31.4301C63.8774 31.5017 63.899 31.5733 63.9207 31.6449C64.3654 33.1608 64.6604 34.6957 64.8014 36.2271C64.9424 34.6957 65.2366 33.1599 65.6821 31.644C65.7029 31.5733 65.7245 31.5017 65.7461 31.4309C65.7747 31.3369 65.8041 31.2428 65.8335 31.1488C65.856 31.0772 65.8794 31.0056 65.9027 30.934C65.933 30.8408 65.9641 30.7467 65.9962 30.6536C66.0204 30.5819 66.0446 30.5112 66.0697 30.4404C66.1026 30.3464 66.1363 30.2532 66.17 30.1592C66.1951 30.0893 66.2211 30.0194 66.247 29.9495C66.2825 29.8546 66.3189 29.7588 66.3561 29.6639C66.382 29.5958 66.408 29.5285 66.4348 29.4603C66.4737 29.362 66.5144 29.2627 66.555 29.1644C66.581 29.1014 66.6069 29.0376 66.6329 28.9746C66.6788 28.8659 66.7263 28.7571 66.7731 28.6484C66.7955 28.5958 66.818 28.544 66.8414 28.4914C66.9132 28.3309 66.9859 28.1705 67.0612 28.0108C68.3346 25.2982 70.1203 22.722 72.4086 20.4399C77.5113 15.3503 84.0769 12.7551 90.3682 12.7551C95.7702 12.7551 100.969 14.6679 104.87 18.5573C106.582 20.2647 107.911 22.2224 108.864 24.3362C108.926 24.4726 108.985 24.6089 109.043 24.7461C109.123 24.9333 109.199 25.1214 109.273 25.3112C109.319 25.4311 109.364 25.551 109.409 25.6718C109.607 26.2111 109.782 26.7589 109.934 27.3146C109.958 27.4026 109.981 27.4897 110.004 27.5777C110.069 27.8305 110.13 28.0842 110.186 28.3387C110.202 28.4103 110.217 28.4819 110.232 28.5535C110.361 29.1713 110.462 29.7951 110.537 30.4249C110.581 30.7985 110.615 31.1747 110.64 31.5526C110.661 31.8839 110.676 32.2161 110.683 32.5491C110.686 32.7286 110.688 32.9089 110.688 33.0883C110.688 33.2626 110.684 33.4378 110.68 33.6129C110.543 38.9035 108.565 44.3486 104.808 48.9187C104.241 49.6098 103.632 50.2811 102.982 50.929C102.867 51.0438 102.75 51.1577 102.633 51.2698C102.599 51.3026 102.565 51.3354 102.53 51.3682C102.442 51.4519 102.354 51.5347 102.266 51.6175C102.232 51.6486 102.198 51.6805 102.165 51.7116C102.046 51.8203 101.927 51.929 101.806 52.0351C101.799 52.0411 101.792 52.0481 101.785 52.0541C101.671 52.1542 101.557 52.2534 101.443 52.3518C101.408 52.3828 101.371 52.413 101.335 52.4432C101.243 52.5209 101.151 52.5976 101.058 52.6744C101.023 52.7029 100.99 52.7314 100.955 52.759C100.832 52.8591 100.708 52.9592 100.584 53.0566C100.57 53.067 100.556 53.0782 100.543 53.0886C100.432 53.1757 100.32 53.2629 100.208 53.3483C100.169 53.3767 100.132 53.4052 100.094 53.4337C99.9991 53.5053 99.903 53.576 99.8079 53.6459C99.2308 54.0678 98.6425 54.463 98.0447 54.8314C98.7524 54.9565 99.4609 55.1127 100.169 55.2973C100.29 55.3292 100.412 55.362 100.533 55.3957C100.617 55.419 100.701 55.4423 100.784 55.4655C100.908 55.5009 101.033 55.538 101.158 55.576C101.238 55.6001 101.318 55.6234 101.397 55.6485C101.533 55.6907 101.67 55.7356 101.805 55.7796C101.873 55.802 101.94 55.8227 102.008 55.846C102.21 55.9142 102.413 55.9849 102.615 56.0583H102.616C105.711 57.1816 108.462 58.7994 110.792 60.7665C115.282 64.5584 118.205 69.6497 119 75.0016C119.035 75.2337 119.065 75.4658 119.092 75.6979C119.095 75.7272 119.099 75.7574 119.102 75.7867C119.129 76.0301 119.151 76.2742 119.169 76.5184C119.171 76.5374 119.172 76.5563 119.173 76.5753C119.191 76.8307 119.204 77.0861 119.212 77.3415C119.212 77.3492 119.212 77.3579 119.212 77.3656C119.284 79.7866 118.912 82.23 118.047 84.6018C116.488 88.8726 113.553 92.2944 109.818 94.6386C106.142 96.9474 101.688 98.2114 97.01 98.2114C93.9941 98.2114 90.8847 97.686 87.829 96.5773C87.829 96.5773 87.829 96.5773 87.8282 96.5773C87.6447 96.5109 87.4639 96.4418 87.2831 96.372C87.2269 96.3504 87.1706 96.328 87.1144 96.3055C86.9872 96.2555 86.8609 96.2046 86.7346 96.1528C86.674 96.1278 86.6126 96.1028 86.5521 96.0769C86.4223 96.0225 86.2934 95.9664 86.1645 95.9104C86.1152 95.8888 86.0658 95.8681 86.0165 95.8456C85.8418 95.768 85.6679 95.6886 85.4966 95.6075C85.4663 95.5937 85.4369 95.5791 85.4066 95.5644C85.2639 95.4962 85.122 95.4281 84.981 95.3582C84.9247 95.3306 84.8694 95.3021 84.814 95.2736C84.6963 95.2141 84.5795 95.1537 84.4627 95.0933C84.4065 95.064 84.3503 95.0346 84.294 95.0044C84.1643 94.9354 84.0353 94.8655 83.9073 94.7939C83.8701 94.7732 83.8329 94.7534 83.7957 94.7327C83.6322 94.6412 83.4704 94.548 83.3095 94.454C83.2688 94.4298 83.2282 94.4057 83.1884 94.3815C83.0672 94.3099 82.947 94.2366 82.8276 94.1632C82.774 94.1304 82.7203 94.0968 82.6667 94.0631C82.5568 93.9941 82.4478 93.9251 82.3388 93.8543C82.2886 93.8216 82.2384 93.7896 82.1883 93.7568C82.0516 93.6671 81.9157 93.5765 81.7816 93.4851C81.7635 93.473 81.7453 93.4609 81.7271 93.4488C81.5757 93.3444 81.4252 93.2392 81.2764 93.1322C81.2323 93.1003 81.189 93.0683 81.1458 93.0364C81.0393 92.9588 80.9338 92.8811 80.8291 92.8026C80.7789 92.7646 80.7288 92.7275 80.6794 92.6896C80.5756 92.6111 80.4735 92.5308 80.3714 92.4506C80.3291 92.4169 80.2858 92.3833 80.2434 92.3496C80.1015 92.2366 79.9605 92.1227 79.8212 92.0071C79.8082 91.9959 79.7944 91.9847 79.7814 91.9735C79.6551 91.8682 79.5305 91.763 79.4077 91.656C79.3644 91.618 79.3212 91.58 79.2779 91.5421C79.1827 91.4592 79.0893 91.3747 78.9959 91.291C78.9509 91.2505 78.905 91.209 78.8609 91.1676C78.7623 91.077 78.6645 90.9856 78.5676 90.8941C78.5339 90.8622 78.4993 90.8303 78.4655 90.7975C78.3366 90.6741 78.2094 90.5499 78.084 90.4248C78.0572 90.398 78.0304 90.3704 78.0035 90.3437C77.904 90.2436 77.8054 90.1426 77.7085 90.0417C77.6679 89.9994 77.6272 89.9563 77.5865 89.9131C77.5018 89.8234 77.4178 89.7337 77.3339 89.6422C77.2941 89.5991 77.2543 89.5559 77.2154 89.5128C77.1185 89.4058 77.0233 89.2988 76.9282 89.1901C76.9065 89.1651 76.884 89.1409 76.8624 89.1159C76.7473 88.9831 76.634 88.8493 76.5215 88.7147C76.4913 88.6776 76.461 88.6405 76.4307 88.6034C76.3485 88.5033 76.2672 88.4033 76.1867 88.3023C76.1495 88.2557 76.1132 88.2091 76.076 88.1625C75.9999 88.0659 75.9246 87.9684 75.8502 87.8701C75.8173 87.8269 75.7836 87.7829 75.7516 87.7398C74.9582 86.682 74.26 85.5725 73.6657 84.4232C73.766 85.7416 73.92 87.0444 74.1234 88.3308C74.1242 88.3385 74.1251 88.3455 74.1259 88.3524C74.1363 88.4197 74.1484 88.487 74.1597 88.5542C74.1727 88.6336 74.1856 88.7121 74.1986 88.7915C74.2185 88.9089 74.2384 89.0253 74.2592 89.1418C74.2722 89.2169 74.2851 89.2919 74.299 89.3661C74.3215 89.4921 74.3457 89.6189 74.3691 89.7449C74.3812 89.8096 74.3933 89.8734 74.4054 89.9382C74.4383 90.1073 74.472 90.2764 74.5066 90.4446C74.5109 90.4653 74.5153 90.4869 74.5196 90.5076C74.5585 90.6965 74.5992 90.8855 74.6398 91.0744C74.6528 91.1323 74.6658 91.1892 74.6788 91.247C74.7082 91.3781 74.7367 91.5084 74.767 91.6387C74.7835 91.7103 74.8008 91.7819 74.8181 91.8535C74.8457 91.9692 74.8726 92.0848 74.9011 92.2004C74.9202 92.2772 74.9392 92.354 74.9582 92.4307C74.9859 92.5412 75.0136 92.6516 75.0421 92.7621C75.062 92.8406 75.0828 92.9182 75.1036 92.9967C75.1321 93.1054 75.1607 93.2133 75.1901 93.3211C75.2108 93.3997 75.2325 93.4773 75.2541 93.5558C75.2844 93.6645 75.3147 93.7732 75.3449 93.882C75.3666 93.9579 75.3882 94.0347 75.4098 94.1106C75.4418 94.2219 75.4747 94.3332 75.5076 94.4445C75.5292 94.517 75.55 94.5894 75.5725 94.6619C75.6088 94.7827 75.646 94.9026 75.6832 95.0226C75.7022 95.0847 75.7213 95.1468 75.7403 95.2089C75.7922 95.3737 75.845 95.5385 75.8986 95.7024C75.9038 95.7197 75.909 95.7361 75.9151 95.7533C75.9748 95.9345 76.0345 96.1148 76.0959 96.2952C76.1149 96.3512 76.1348 96.4073 76.1539 96.4634C76.1962 96.5868 76.2395 96.711 76.2828 96.8344C76.307 96.9034 76.3321 96.9725 76.3572 97.0415C76.397 97.1511 76.4359 97.2606 76.4765 97.3702C76.5034 97.4435 76.5311 97.5177 76.5587 97.5911C76.5977 97.6963 76.6375 97.8007 76.6773 97.9051C76.7058 97.9802 76.7344 98.0544 76.7638 98.1294C76.8036 98.233 76.8442 98.3357 76.884 98.4383C76.9135 98.5125 76.9429 98.5876 76.9723 98.6618C77.0138 98.7653 77.0553 98.8689 77.0977 98.9715C77.1271 99.044 77.1574 99.1173 77.1868 99.1898C77.231 99.2959 77.2751 99.4012 77.3201 99.5073C77.3495 99.5763 77.378 99.6454 77.4074 99.7135C77.4568 99.8283 77.5061 99.9422 77.5563 100.056C77.5822 100.115 77.6073 100.174 77.6333 100.233C77.7025 100.39 77.7734 100.547 77.8444 100.703C77.8513 100.719 77.8582 100.734 77.8651 100.749C77.943 100.921 78.0226 101.091 78.1022 101.261C78.1281 101.316 78.1541 101.37 78.18 101.425C78.2345 101.541 78.2899 101.656 78.3453 101.771C78.3773 101.838 78.4102 101.903 78.4422 101.97C78.4932 102.073 78.5434 102.176 78.5953 102.279C78.6299 102.349 78.6654 102.418 78.7 102.487C78.7502 102.587 78.8003 102.685 78.8514 102.784C78.8877 102.855 78.9241 102.926 78.9613 102.996C79.0114 103.093 79.0625 103.19 79.1135 103.286C79.1507 103.357 79.1888 103.428 79.226 103.499C79.2779 103.595 79.3298 103.692 79.3826 103.788C79.4198 103.857 79.4578 103.927 79.4951 103.995C79.5496 104.094 79.6049 104.193 79.6603 104.292C79.6966 104.357 79.733 104.423 79.7693 104.487C79.8299 104.595 79.8922 104.702 79.9536 104.809C79.9856 104.864 80.0167 104.92 80.0487 104.975C80.137 105.127 80.2261 105.278 80.3161 105.429C80.3221 105.439 80.3282 105.448 80.3342 105.459C80.4303 105.619 80.5272 105.78 80.6249 105.939C80.6569 105.991 80.689 106.042 80.721 106.094C80.7876 106.202 80.8542 106.309 80.9208 106.416C80.9597 106.478 80.9995 106.54 81.0393 106.602C81.1008 106.698 81.1613 106.794 81.2228 106.889C81.2651 106.955 81.3075 107.02 81.3499 107.085C81.4096 107.177 81.4702 107.269 81.5307 107.36C81.5749 107.427 81.619 107.493 81.6631 107.559C81.7237 107.649 81.7842 107.739 81.8448 107.829C81.8898 107.894 81.9339 107.961 81.9789 108.026C82.0403 108.116 82.1026 108.207 82.1658 108.297C82.2107 108.36 82.2549 108.425 82.2999 108.489C82.3647 108.581 82.4305 108.674 82.4962 108.765C82.5395 108.825 82.5819 108.886 82.6252 108.945C82.6978 109.045 82.7705 109.145 82.8432 109.246C82.8804 109.296 82.9176 109.347 82.9548 109.398C83.0595 109.54 83.1641 109.68 83.2706 109.821C83.2766 109.83 83.2835 109.838 83.2896 109.847C83.4021 109.995 83.5154 110.143 83.6287 110.29C83.6659 110.339 83.704 110.387 83.7421 110.435C83.8191 110.534 83.8969 110.632 83.9748 110.73C84.0198 110.787 84.0665 110.844 84.1115 110.902C84.1824 110.991 84.2534 111.079 84.3252 111.167C84.3745 111.227 84.4238 111.288 84.4731 111.347C84.5423 111.432 84.6115 111.516 84.6816 111.6C84.7327 111.661 84.7828 111.722 84.8339 111.783C84.9031 111.866 84.9732 111.949 85.0432 112.031C85.0943 112.091 85.1462 112.151 85.1981 112.212C85.2691 112.295 85.3409 112.377 85.4127 112.459C85.4637 112.518 85.5147 112.577 85.5667 112.635C85.6411 112.72 85.7163 112.805 85.7916 112.889C85.8409 112.944 85.8894 113 85.9387 113.054C86.0209 113.145 86.1039 113.237 86.1878 113.327C86.2302 113.374 86.2726 113.421 86.3159 113.467C86.437 113.599 86.559 113.729 86.6818 113.86C86.687 113.865 86.6913 113.87 86.6965 113.875C86.8237 114.011 86.9526 114.145 87.0815 114.279C87.1248 114.324 87.168 114.368 87.2104 114.412C87.297 114.502 87.3843 114.591 87.4717 114.679C87.5228 114.731 87.5747 114.783 87.6266 114.835C87.707 114.915 87.7866 114.995 87.8671 115.075C87.9225 115.13 87.9778 115.184 88.0323 115.238C88.1102 115.315 88.1889 115.392 88.2677 115.468C88.3248 115.523 88.3818 115.578 88.4389 115.633C88.5168 115.708 88.5955 115.782 88.6743 115.856C88.7322 115.911 88.7893 115.965 88.8473 116.019C88.9269 116.094 89.0074 116.169 89.0878 116.243C89.1449 116.295 89.202 116.348 89.2591 116.401C89.343 116.477 89.427 116.553 89.5109 116.629C89.5654 116.678 89.6199 116.728 89.6744 116.777C89.767 116.86 89.8604 116.942 89.9538 117.024C90.0005 117.066 90.0473 117.107 90.094 117.148C90.2324 117.269 90.3717 117.389 90.511 117.508C90.5127 117.51 90.5144 117.511 90.5162 117.513C83.0586 122.161 74.2462 124.846 64.8048 124.846C55.3635 124.846 46.2838 122.078 38.7561 117.299C38.7596 117.296 38.7622 117.294 38.7656 117.291H38.7587Z" fill="#ACA1B7"/>
<path d="M47.6889 75.9333C52.2687 75.9333 55.9814 68.9137 55.9814 60.2547C55.9814 51.5957 52.2687 44.5762 47.6889 44.5762C43.1091 44.5762 39.3965 51.5957 39.3965 60.2547C39.3965 68.9137 43.1091 75.9333 47.6889 75.9333Z" fill="#ACA1B7"/>
<path d="M81.9135 75.9333C86.4933 75.9333 90.206 68.9137 90.206 60.2547C90.206 51.5957 86.4933 44.5762 81.9135 44.5762C77.3337 44.5762 73.6211 51.5957 73.6211 60.2547C73.6211 68.9137 77.3337 75.9333 81.9135 75.9333Z" fill="#ACA1B7"/>
</g>
<defs>
<clipPath id="clip0_3034_583">
<rect width="129.6" height="132.8" fill="white" transform="translate(0 2.3999)"/>
</clipPath>
</defs>
</svg>
