<svg width="268" height="60" viewBox="0 0 268 60" fill="none" xmlns="http://www.w3.org/2000/svg">
<g clip-path="url(#clip0_3376_626)">
<path fill-rule="evenodd" clip-rule="evenodd" d="M31.7448 57.6962C31.4154 58.2654 30.8111 58.6152 30.1577 58.6151C29.5043 58.615 28.9002 58.2648 28.5711 57.6954L1.35745 10.618C1.11151 10.1926 1.04364 9.68584 1.16882 9.20982C1.294 8.7338 1.60194 8.32762 2.02462 8.08103C10.3066 3.24903 19.9224 0.483398 30.1733 0.483398C40.4241 0.483398 50.0399 3.24903 58.322 8.08103C58.7448 8.3277 59.0527 8.73406 59.1778 9.21026C59.3029 9.68645 59.2349 10.1933 58.9887 10.6188L31.7448 57.6962ZM30.8232 51.9261C30.903 51.7996 30.9932 51.6436 31.1029 51.4541L51.4471 16.2994C50.5651 16.3959 49.6656 16.3776 48.7703 16.2856C45.8267 15.9828 42.4681 14.814 39.1944 13.6748L39.1898 13.6732C38.8347 13.5496 38.4807 13.4264 38.1282 13.3047C34.3969 12.0161 30.7118 10.8364 27.2255 10.6156C24.3466 10.4332 21.6888 10.9102 19.3058 12.514C19.0663 12.6753 18.9678 12.9765 19.052 13.2528L30.8232 51.9261ZM24.1892 42.7577L15.0348 12.682C14.8236 11.9879 15.0337 11.2333 15.5724 10.7517C19.1857 7.52161 23.3372 6.65639 27.4558 6.91725C31.5005 7.17341 35.624 8.52308 39.3185 9.79892C39.6552 9.91523 39.9877 10.0306 40.3159 10.1445L40.3205 10.1461C43.7151 11.324 46.6508 12.3426 49.1431 12.5991C50.4713 12.7357 51.5242 12.6339 52.3598 12.3077C52.4974 12.2539 52.6366 12.2058 52.7758 12.1575C53.3702 11.9516 53.9659 11.7452 54.4492 11.1082C54.5506 10.924 54.6023 10.8024 54.6069 10.6811C54.6123 10.5344 54.5679 10.3843 54.4836 10.2641C54.3863 10.1256 54.215 10.0383 53.8727 9.86381C46.7518 6.23436 38.7016 4.18901 30.1733 4.18901C21.6445 4.18901 13.5937 6.23462 6.47252 9.86448C6.13031 10.0389 5.9592 10.1261 5.86191 10.2646C5.77755 10.3847 5.73317 10.5348 5.73861 10.6814C5.74488 10.8506 5.84294 11.0202 6.03904 11.3595L24.1892 42.7577Z" fill="#9599A6"/>
</g>
<path d="M80.5153 45.5488H70.3443V14.1306H80.8375C83.9159 14.1306 86.5596 14.7596 88.7687 16.0176C90.9778 17.2653 92.6704 19.0602 93.8466 21.4022C95.0329 23.7341 95.6261 26.5312 95.6261 29.7937C95.6261 33.0664 95.0278 35.8789 93.8312 38.2312C92.6448 40.5835 90.9267 42.3937 88.6767 43.6619C86.4267 44.9199 83.7062 45.5488 80.5153 45.5488ZM75.0846 41.4068H80.2545C82.6477 41.4068 84.6369 40.9568 86.2221 40.0568C87.8073 39.1466 88.9937 37.8324 89.7812 36.1142C90.5687 34.3858 90.9625 32.2789 90.9625 29.7937C90.9625 27.3289 90.5687 25.2375 89.7812 23.5193C89.0039 21.8011 87.8431 20.4971 86.2988 19.6074C84.7545 18.7176 82.8369 18.2727 80.546 18.2727H75.0846V41.4068ZM105.85 46.0704C104.357 46.0704 103.007 45.7943 101.8 45.242C100.593 44.6795 99.637 43.8664 98.9313 42.8028C98.2358 41.7392 97.8881 40.4352 97.8881 38.8909C97.8881 37.5613 98.1438 36.467 98.6552 35.6079C99.1665 34.7488 99.8569 34.0687 100.726 33.5676C101.596 33.0664 102.567 32.688 103.641 32.4324C104.715 32.1767 105.809 31.9824 106.924 31.8494C108.335 31.6858 109.481 31.5528 110.36 31.4505C111.24 31.338 111.879 31.1591 112.278 30.9136C112.677 30.6681 112.876 30.2693 112.876 29.717V29.6096C112.876 28.2699 112.498 27.2318 111.741 26.4954C110.994 25.7591 109.88 25.3909 108.397 25.3909C106.852 25.3909 105.635 25.7335 104.746 26.4187C103.866 27.0937 103.257 27.8454 102.92 28.6738L98.6091 27.692C99.1205 26.2602 99.8671 25.1045 100.849 24.225C101.841 23.3352 102.981 22.6909 104.27 22.292C105.559 21.8829 106.914 21.6784 108.335 21.6784C109.276 21.6784 110.273 21.7909 111.327 22.0159C112.39 22.2306 113.382 22.6295 114.303 23.2125C115.234 23.7954 115.996 24.6289 116.589 25.713C117.182 26.7869 117.478 28.1829 117.478 29.9011V45.5488H112.999V42.3272H112.815C112.518 42.9204 112.073 43.5034 111.48 44.0761C110.887 44.6488 110.125 45.1244 109.194 45.5028C108.264 45.8812 107.149 46.0704 105.85 46.0704ZM106.847 42.3886C108.115 42.3886 109.199 42.138 110.099 41.6369C111.01 41.1358 111.7 40.4812 112.171 39.6733C112.651 38.8551 112.892 37.9806 112.892 37.05V34.0125C112.728 34.1761 112.411 34.3295 111.94 34.4727C111.48 34.6056 110.953 34.7233 110.36 34.8255C109.767 34.9176 109.189 35.0045 108.627 35.0863C108.064 35.1579 107.594 35.2193 107.215 35.2704C106.326 35.3829 105.513 35.5721 104.776 35.838C104.05 36.1039 103.467 36.4875 103.027 36.9886C102.598 37.4795 102.383 38.1341 102.383 38.9522C102.383 40.0875 102.802 40.9466 103.641 41.5295C104.48 42.1022 105.548 42.3886 106.847 42.3886ZM121.428 45.5488V21.9852H126.015V45.5488H121.428ZM123.744 18.3494C122.947 18.3494 122.261 18.0835 121.689 17.5517C121.126 17.0096 120.845 16.3653 120.845 15.6187C120.845 14.8619 121.126 14.2176 121.689 13.6858C122.261 13.1437 122.947 12.8727 123.744 12.8727C124.542 12.8727 125.222 13.1437 125.785 13.6858C126.358 14.2176 126.644 14.8619 126.644 15.6187C126.644 16.3653 126.358 17.0096 125.785 17.5517C125.222 18.0835 124.542 18.3494 123.744 18.3494ZM130.026 45.5488V21.9852H134.429V25.8204H134.72C135.211 24.5216 136.014 23.5091 137.129 22.7829C138.243 22.0466 139.578 21.6784 141.133 21.6784C142.708 21.6784 144.027 22.0466 145.091 22.7829C146.164 23.5193 146.957 24.5318 147.468 25.8204H147.714C148.276 24.5625 149.171 23.5602 150.399 22.8136C151.626 22.0568 153.088 21.6784 154.786 21.6784C156.924 21.6784 158.667 22.3483 160.017 23.688C161.377 25.0278 162.058 27.0477 162.058 29.7477V45.5488H157.471V30.1772C157.471 28.5818 157.036 27.4261 156.167 26.7102C155.297 25.9943 154.259 25.6363 153.052 25.6363C151.559 25.6363 150.399 26.0966 149.57 27.017C148.742 27.9272 148.327 29.0983 148.327 30.5301V45.5488H143.756V29.8858C143.756 28.6074 143.357 27.5795 142.559 26.8022C141.762 26.025 140.724 25.6363 139.445 25.6363C138.576 25.6363 137.773 25.8664 137.037 26.3267C136.31 26.7767 135.722 27.4056 135.272 28.2136C134.833 29.0216 134.613 29.9574 134.613 31.021V45.5488H130.026ZM175.971 46.0244C173.762 46.0244 171.834 45.5181 170.188 44.5056C168.541 43.4931 167.263 42.0767 166.352 40.2562C165.442 38.4358 164.987 36.3085 164.987 33.8744C164.987 31.4301 165.442 29.2926 166.352 27.4619C167.263 25.6312 168.541 24.2096 170.188 23.1971C171.834 22.1846 173.762 21.6784 175.971 21.6784C178.18 21.6784 180.108 22.1846 181.755 23.1971C183.401 24.2096 184.68 25.6312 185.59 27.4619C186.5 29.2926 186.955 31.4301 186.955 33.8744C186.955 36.3085 186.5 38.4358 185.59 40.2562C184.68 42.0767 183.401 43.4931 181.755 44.5056C180.108 45.5181 178.18 46.0244 175.971 46.0244ZM175.986 42.1738C177.418 42.1738 178.605 41.7954 179.545 41.0386C180.486 40.2818 181.182 39.2744 181.632 38.0164C182.092 36.7585 182.322 35.3727 182.322 33.8591C182.322 32.3556 182.092 30.975 181.632 29.717C181.182 28.4488 180.486 27.4312 179.545 26.6642C178.605 25.8971 177.418 25.5136 175.986 25.5136C174.544 25.5136 173.348 25.8971 172.397 26.6642C171.456 27.4312 170.755 28.4488 170.295 29.717C169.845 30.975 169.62 32.3556 169.62 33.8591C169.62 35.3727 169.845 36.7585 170.295 38.0164C170.755 39.2744 171.456 40.2818 172.397 41.0386C173.348 41.7954 174.544 42.1738 175.986 42.1738ZM199.556 45.5488V14.1306H210.755C213.199 14.1306 215.224 14.5755 216.83 15.4653C218.436 16.3551 219.637 17.5721 220.435 19.1164C221.233 20.6505 221.632 22.3789 221.632 24.3017C221.632 26.2346 221.228 27.9733 220.42 29.5176C219.622 31.0517 218.415 32.2687 216.799 33.1687C215.194 34.0585 213.174 34.5034 210.74 34.5034H203.039V30.4841H210.31C211.854 30.4841 213.107 30.2181 214.069 29.6863C215.03 29.1443 215.736 28.4079 216.186 27.4772C216.636 26.5466 216.861 25.488 216.861 24.3017C216.861 23.1153 216.636 22.0619 216.186 21.1414C215.736 20.221 215.025 19.5 214.053 18.9784C213.092 18.4568 211.824 18.196 210.249 18.196H204.296V45.5488H199.556ZM231.307 46.0704C229.814 46.0704 228.464 45.7943 227.257 45.242C226.05 44.6795 225.094 43.8664 224.388 42.8028C223.693 41.7392 223.345 40.4352 223.345 38.8909C223.345 37.5613 223.601 36.467 224.112 35.6079C224.624 34.7488 225.314 34.0687 226.183 33.5676C227.053 33.0664 228.024 32.688 229.098 32.4324C230.172 32.1767 231.266 31.9824 232.381 31.8494C233.792 31.6858 234.938 31.5528 235.817 31.4505C236.697 31.338 237.336 31.1591 237.735 30.9136C238.134 30.6681 238.333 30.2693 238.333 29.717V29.6096C238.333 28.2699 237.955 27.2318 237.198 26.4954C236.452 25.7591 235.337 25.3909 233.854 25.3909C232.309 25.3909 231.092 25.7335 230.203 26.4187C229.323 27.0937 228.715 27.8454 228.377 28.6738L224.066 27.692C224.578 26.2602 225.324 25.1045 226.306 24.225C227.298 23.3352 228.438 22.6909 229.727 22.292C231.016 21.8829 232.371 21.6784 233.792 21.6784C234.733 21.6784 235.731 21.7909 236.784 22.0159C237.848 22.2306 238.84 22.6295 239.76 23.2125C240.691 23.7954 241.453 24.6289 242.046 25.713C242.639 26.7869 242.936 28.1829 242.936 29.9011V45.5488H238.456V42.3272H238.272C237.975 42.9204 237.531 43.5034 236.937 44.0761C236.344 44.6488 235.582 45.1244 234.652 45.5028C233.721 45.8812 232.606 46.0704 231.307 46.0704ZM232.304 42.3886C233.573 42.3886 234.657 42.138 235.557 41.6369C236.467 41.1358 237.157 40.4812 237.628 39.6733C238.108 38.8551 238.349 37.9806 238.349 37.05V34.0125C238.185 34.1761 237.868 34.3295 237.398 34.4727C236.937 34.6056 236.411 34.7233 235.817 34.8255C235.224 34.9176 234.646 35.0045 234.084 35.0863C233.521 35.1579 233.051 35.2193 232.673 35.2704C231.783 35.3829 230.97 35.5721 230.233 35.838C229.507 36.1039 228.924 36.4875 228.484 36.9886C228.055 37.4795 227.84 38.1341 227.84 38.9522C227.84 40.0875 228.259 40.9466 229.098 41.5295C229.937 42.1022 231.006 42.3886 232.304 42.3886ZM248.941 54.3852C248.256 54.3852 247.632 54.3289 247.069 54.2164C246.507 54.1142 246.087 54.0017 245.811 53.8789L246.916 50.1204C247.754 50.3454 248.501 50.4426 249.156 50.4119C249.81 50.3812 250.388 50.1358 250.889 49.6755C251.4 49.2153 251.85 48.4636 252.239 47.4204L252.807 45.8556L244.185 21.9852H249.094L255.062 40.2716H255.307L261.275 21.9852H266.199L256.489 48.6937C256.039 49.921 255.466 50.9591 254.77 51.8079C254.075 52.667 253.247 53.3113 252.285 53.7409C251.324 54.1704 250.209 54.3852 248.941 54.3852Z" fill="#9599A6"/>
<defs>
<clipPath id="clip0_3376_626">
<rect width="59.04" height="59.04" fill="white" transform="translate(0.652344 0.0288086)"/>
</clipPath>
</defs>
</svg>
