<svg width="254" height="159" viewBox="0 0 254 159" fill="none" xmlns="http://www.w3.org/2000/svg">
<path d="M22.052 50.1284C19.2811 53.7131 19.1657 54.1757 21.0129 58.1073C22.5139 61.3451 26.2084 62.8484 29.9029 61.5764C31.8657 60.9982 32.3275 61.3451 32.3275 63.3109C32.3275 67.2426 30.2493 70.0178 25.6311 72.5618C22.7448 74.1808 22.2829 74.7589 24.2457 74.1808C33.1357 71.868 38.1002 65.9706 38.1002 57.9917C38.1002 48.5095 27.4784 43.3058 22.052 50.1284Z" fill="#9599A6"/>
<path d="M123.537 80.0782V113.035H128.733C133.12 113.035 133.928 112.688 133.928 110.722C133.928 108.062 134.736 107.831 137.276 110.028C139.701 112.109 146.166 114.191 150.092 114.191C154.71 114.191 162.907 111.069 166.024 108.062C171.566 102.974 173.413 97.308 172.952 87.4789C172.605 79.6156 172.143 77.9967 169.026 74.0651C161.868 65.1611 149.63 62.0389 140.278 66.78C137.738 68.052 135.544 69.0927 135.429 69.0927C135.198 69.0927 135.083 64.1204 135.083 58.1073V47.1218H129.31H123.537V80.0782ZM157.019 76.956C161.291 80.0782 163.253 87.2476 161.637 93.3764C159.674 100.661 155.98 103.784 149.514 103.784C143.511 103.784 140.047 102.396 137.161 98.6956C134.39 95.4578 134.39 83.4316 136.93 79.6156C141.086 73.7182 150.9 72.4462 157.019 76.956Z" fill="#9599A6"/>
<path d="M217.055 58.57V69.9023L211.628 67.1271C200.66 61.4609 186.459 65.8551 180.802 76.6092C177.107 83.6631 177.454 95.8049 181.495 102.627C187.383 112.803 201.122 116.966 211.628 111.531C216.708 108.872 217.055 108.872 217.055 110.838C217.055 112.688 217.978 113.035 222.25 113.035H227.446V80.0783V47.122H222.25H217.055V58.57ZM212.552 77.8812C218.44 83.5474 218.44 94.5329 212.436 100.546C209.666 103.206 208.165 103.784 203.316 103.784C198.582 103.784 196.85 103.206 193.848 100.546C189.115 96.3831 187.845 87.1322 191.077 81.1191C195.234 73.2558 206.086 71.6369 212.552 77.8812Z" fill="#9599A6"/>
<path d="M48.8366 66.8958C40.7548 70.8275 39.2539 75.5686 39.2539 96.0362V113.035H45.0266H50.7994V96.9613C50.7994 81.6973 50.9148 80.6566 53.4548 77.65C55.7639 74.9904 57.1494 74.5278 61.7675 74.5278C66.3857 74.5278 67.7712 74.9904 70.0803 77.65C72.6203 80.6566 72.7357 81.6973 72.7357 96.9613V113.035H78.5085H84.2812V97.6551C84.2812 87.7104 84.8585 81.3504 85.7821 79.5002C87.7448 75.5686 94.3257 73.4871 99.8675 74.9904C106.102 76.7249 107.372 80.7722 107.372 98.5802V113.15L112.914 112.803L118.34 112.457L118.225 95.6893C118.109 76.8406 116.839 72.2151 110.374 67.5897C107.488 65.5082 105.178 65.0457 98.713 65.0457C91.093 65.0457 90.1694 65.3926 84.5121 69.4398L78.393 73.834L74.6985 70.7118C66.8475 64.0049 57.3803 62.6173 48.8366 66.8958Z" fill="#9599A6"/>
</svg>
