<svg width="779" height="164" viewBox="0 0 779 164" fill="none" xmlns="http://www.w3.org/2000/svg">
<g clip-path="url(#clip0_3256_677)">
<path fill-rule="evenodd" clip-rule="evenodd" d="M228.609 81.966C228.609 96.2316 224.972 109.646 218.576 121.329C194.021 118.508 165.894 113.122 136.423 105.209C121.564 101.22 107.322 96.8451 93.9452 92.2245L93.9429 92.2198L93.7677 92.1626C93.2113 91.9702 92.6552 91.777 92.0993 91.5832C76.8233 85.9375 66.9338 72.8524 68.0123 59.8817L68.2014 59.9327L68.0416 59.7734C77.6996 25.2869 109.307 0 146.809 0C191.986 0 228.609 36.6973 228.609 81.966ZM67.7969 103.264C74.3953 98.6839 83.1948 96.5883 92.3332 97.8685C105.875 102.41 120.146 106.722 134.954 110.698C163.213 118.285 190.387 123.832 214.961 127.314C200.303 149.386 175.251 163.932 146.809 163.932C108.983 163.932 77.1545 138.206 67.7969 103.264Z" fill="#9599A6"/>
<path fill-rule="evenodd" clip-rule="evenodd" d="M256.711 80.2632C248.099 75.6008 238.148 70.892 227.113 66.2768C226.598 63.6175 225.951 60.9856 225.175 58.3909C238.177 63.6621 249.852 69.0965 259.822 74.4938C272.254 81.2248 282.2 87.9852 288.76 94.4121C295.1 100.623 299.233 107.486 297.449 114.159C295.665 120.832 288.66 124.704 280.07 126.907C271.183 129.186 259.195 130.058 245.071 129.658C235.938 129.4 225.832 128.607 214.978 127.287C216.305 125.288 217.543 123.231 218.69 121.122C228.245 122.213 237.156 122.875 245.256 123.104C259.111 123.496 270.407 122.616 278.448 120.555C286.786 118.416 290.353 115.358 291.128 112.462C291.902 109.567 290.339 105.129 284.185 99.1008C278.25 93.2865 268.907 86.8658 256.711 80.2632ZM52.7957 18.9094C64.0903 19.2289 76.8719 20.3661 90.7166 22.3055C88.7477 24.1648 86.8714 26.1202 85.0947 28.1646C73.2843 26.6422 62.3602 25.7394 52.6104 25.464C38.7549 25.0718 27.4579 25.9514 19.4181 28.013C11.0803 30.1512 7.51279 33.2099 6.73846 36.1055C5.96412 39.001 7.52746 43.4375 13.6812 49.4668C19.615 55.2811 28.9595 61.7018 41.1551 68.3036L41.7565 68.6285C40.763 69.2079 40.0674 69.9374 39.6968 70.824C39.1873 72.0431 39.3185 73.4959 40.0342 75.139C39.3633 74.7832 38.7001 74.4289 38.0439 74.0738C25.612 67.3428 15.6661 60.5825 9.10624 54.1555C2.76641 47.9436 -1.36699 41.0812 0.41715 34.4082C2.20129 27.7353 9.20583 23.8635 17.7946 21.6603C26.6828 19.3821 38.67 18.5103 52.7949 18.9102L52.7957 18.9094Z" fill="#9599A6"/>
<path d="M33.7588 71.8305C44.5493 77.8936 54.0478 81.4666 54.9744 79.8109C55.901 78.1553 47.9046 71.8979 37.1141 65.8348C26.3236 59.7716 16.825 56.1986 15.8985 57.8543C14.9719 59.51 22.9682 65.7673 33.7588 71.8305Z" fill="#9599A6"/>
</g>
<path d="M397.773 38.2273V125.5H387.545L339.989 56.9773H339.136V125.5H328.568V38.2273H338.795L386.523 106.92H387.375V38.2273H397.773ZM412.92 125.5V38.2273H465.59V47.6023H423.488V77.0909H462.863V86.4659H423.488V116.125H466.272V125.5H412.92ZM471.138 38.2273H483.241L507.445 78.9659H508.468L532.673 38.2273H544.775L513.241 89.5341V125.5H502.673V89.5341L471.138 38.2273ZM621.648 38.2273V125.5H611.42L563.864 56.9773H563.011V125.5H552.443V38.2273H562.67L610.398 106.92H611.25V38.2273H621.648ZM640.374 125.5H629.295L661.34 38.2273H672.249L704.295 125.5H693.215L667.136 52.0341H666.454L640.374 125.5ZM644.465 91.4091H689.124V100.784H644.465V91.4091ZM711.888 125.5V38.2273H741.377C748.195 38.2273 753.792 39.392 758.167 41.7216C762.542 44.0227 765.781 47.1903 767.883 51.2244C769.985 55.2585 771.036 59.8466 771.036 64.9886C771.036 70.1307 769.985 74.6903 767.883 78.6676C765.781 82.6449 762.556 85.7699 758.21 88.0426C753.863 90.2869 748.309 91.4091 741.548 91.4091H717.684V81.8636H741.207C745.866 81.8636 749.616 81.1818 752.457 79.8182C755.326 78.4545 757.4 76.5227 758.678 74.0227C759.985 71.4943 760.638 68.483 760.638 64.9886C760.638 61.4943 759.985 58.4403 758.678 55.8267C757.371 53.2131 755.283 51.196 752.414 49.7756C749.545 48.3267 745.752 47.6023 741.036 47.6023H722.457V125.5H711.888ZM752.968 86.2955L774.445 125.5H762.173L741.036 86.2955H752.968Z" fill="#9599A6"/>
<defs>
<clipPath id="clip0_3256_677">
<rect width="298" height="164" fill="white"/>
</clipPath>
</defs>
</svg>
