<svg width="897" height="897" viewBox="0 0 897 897" fill="none" xmlns="http://www.w3.org/2000/svg">
<g clip-path="url(#clip0_2859_50819)">
<path d="M897 0H0V897H897V0Z" fill="white"/>
<path opacity="0.35" d="M944.137 476.441L513.623 45.9266C512.966 45.2698 511.901 45.2698 511.244 45.9266C510.588 46.5834 510.588 47.6483 511.244 48.3051L941.758 478.819C942.415 479.476 943.48 479.476 944.137 478.819C944.794 478.162 944.794 477.097 944.137 476.441Z" fill="url(#paint0_linear_2859_50819)"/>
<path opacity="0.4" d="M460.048 371.334L150.047 61.3318C149.39 60.675 148.325 60.675 147.668 61.3318C147.011 61.9887 147.011 63.0536 147.668 63.7104L457.67 373.712C458.327 374.369 459.392 374.369 460.048 373.712C460.705 373.055 460.705 371.99 460.048 371.334Z" fill="url(#paint1_linear_2859_50819)"/>
<path opacity="0.49" d="M659.114 283.36L184.201 -191.553C183.544 -192.21 182.479 -192.21 181.822 -191.553C181.166 -190.896 181.166 -189.831 181.822 -189.174L656.736 285.739C657.393 286.396 658.457 286.396 659.114 285.739C659.771 285.082 659.771 284.017 659.114 283.36Z" fill="url(#paint2_linear_2859_50819)"/>
<path opacity="0.39" d="M445.15 753.358L355.558 663.766C354.902 663.11 353.837 663.11 353.18 663.766C352.523 664.423 352.523 665.488 353.18 666.145L442.771 755.736C443.428 756.393 444.493 756.393 445.15 755.736C445.807 755.079 445.807 754.015 445.15 753.358Z" fill="url(#paint3_linear_2859_50819)"/>
<path opacity="0.84" d="M1092.47 480.135L585.053 -27.2853C584.396 -27.9422 583.331 -27.9422 582.674 -27.2853C582.017 -26.6285 582.017 -25.5636 582.674 -24.9068L1090.09 482.513C1090.75 483.17 1091.82 483.17 1092.47 482.513C1093.13 481.856 1093.13 480.791 1092.47 480.135Z" fill="url(#paint4_linear_2859_50819)"/>
<path opacity="0.31" d="M503.093 652.084L373.859 522.85C373.202 522.194 372.137 522.194 371.481 522.85C370.824 523.507 370.824 524.572 371.481 525.229L500.714 654.462C501.371 655.119 502.436 655.119 503.093 654.462C503.749 653.806 503.749 652.741 503.093 652.084Z" fill="url(#paint5_linear_2859_50819)"/>
<path opacity="0.77" d="M410.258 981.961L168.441 740.143C167.784 739.487 166.72 739.487 166.063 740.143C165.406 740.8 165.406 741.865 166.063 742.522L407.88 984.339C408.537 984.996 409.602 984.996 410.258 984.339C410.915 983.682 410.915 982.617 410.258 981.961Z" fill="url(#paint6_linear_2859_50819)"/>
<path opacity="0.76" d="M527.795 329.199L358.127 159.53C357.47 158.873 356.405 158.873 355.748 159.53C355.091 160.187 355.091 161.252 355.748 161.909L525.417 331.577C526.074 332.234 527.138 332.234 527.795 331.577C528.452 330.92 528.452 329.855 527.795 329.199Z" fill="url(#paint7_linear_2859_50819)"/>
<path opacity="0.24" d="M199.848 437.418L-29.2834 208.286C-29.9402 207.629 -31.0051 207.629 -31.6619 208.286C-32.3187 208.943 -32.3187 210.008 -31.6619 210.664L197.47 439.796C198.127 440.453 199.192 440.453 199.848 439.796C200.505 439.139 200.505 438.075 199.848 437.418Z" fill="url(#paint8_linear_2859_50819)"/>
<path opacity="0.86" d="M523.228 215.871L447.908 140.551C447.251 139.894 446.186 139.894 445.529 140.551C444.873 141.207 444.873 142.272 445.529 142.929L520.85 218.249C521.506 218.906 522.571 218.906 523.228 218.249C523.885 217.592 523.885 216.528 523.228 215.871Z" fill="url(#paint9_linear_2859_50819)"/>
<path opacity="0.29" d="M393.876 961.092L-46.1525 521.064C-46.8093 520.407 -47.8742 520.407 -48.5311 521.064C-49.1879 521.721 -49.1879 522.786 -48.5311 523.443L391.497 963.471C392.154 964.128 393.219 964.128 393.876 963.471C394.532 962.814 394.532 961.749 393.876 961.092Z" fill="url(#paint10_linear_2859_50819)"/>
<path opacity="0.09" d="M840.706 870.844L576.689 606.827C576.032 606.171 574.968 606.171 574.311 606.827C573.654 607.484 573.654 608.549 574.311 609.206L838.328 873.223C838.984 873.88 840.049 873.88 840.706 873.223C841.363 872.566 841.363 871.501 840.706 870.844Z" fill="url(#paint11_linear_2859_50819)"/>
<path opacity="0.34" d="M236.915 366.845L83.8963 213.826C83.2395 213.169 82.1746 213.169 81.5178 213.826C80.861 214.483 80.861 215.548 81.5178 216.205L234.537 369.223C235.193 369.88 236.258 369.88 236.915 369.223C237.572 368.566 237.572 367.502 236.915 366.845Z" fill="url(#paint12_linear_2859_50819)"/>
<path opacity="0.72" d="M365.519 384.445L224.392 243.319C223.736 242.662 222.671 242.662 222.014 243.319C221.357 243.976 221.357 245.041 222.014 245.698L363.14 386.824C363.797 387.481 364.862 387.481 365.519 386.824C366.175 386.167 366.175 385.102 365.519 384.445Z" fill="url(#paint13_linear_2859_50819)"/>
<path opacity="0.51" d="M86.304 433.757L-27.8654 319.588C-28.5222 318.931 -29.5871 318.931 -30.244 319.588C-30.9008 320.245 -30.9008 321.309 -30.244 321.966L83.9255 436.136C84.5823 436.792 85.6472 436.792 86.304 436.136C86.9608 435.479 86.9608 434.414 86.304 433.757Z" fill="url(#paint14_linear_2859_50819)"/>
<path opacity="0.45" d="M455.757 210.066L152.097 -93.593C151.441 -94.2498 150.376 -94.2498 149.719 -93.593C149.062 -92.9361 149.062 -91.8712 149.719 -91.2144L453.378 212.445C454.035 213.101 455.1 213.101 455.757 212.445C456.413 211.788 456.413 210.723 455.757 210.066Z" fill="url(#paint15_linear_2859_50819)"/>
<path opacity="0.24" d="M454.11 464.065L299.506 309.461C298.849 308.804 297.784 308.804 297.127 309.461C296.47 310.118 296.47 311.182 297.127 311.839L451.732 466.444C452.388 467.101 453.453 467.101 454.11 466.444C454.767 465.787 454.767 464.722 454.11 464.065Z" fill="url(#paint16_linear_2859_50819)"/>
<path opacity="0.33" d="M844.279 819.476L337.652 312.849C336.995 312.193 335.93 312.193 335.274 312.849C334.617 313.506 334.617 314.571 335.274 315.228L841.901 821.855C842.557 822.512 843.622 822.512 844.279 821.855C844.936 821.198 844.936 820.133 844.279 819.476Z" fill="url(#paint17_linear_2859_50819)"/>
<path opacity="0.83" d="M583.615 502.749L161.029 80.1639C160.372 79.5071 159.307 79.5071 158.651 80.1639C157.994 80.8207 157.994 81.8856 158.651 82.5424L581.236 505.128C581.893 505.785 582.958 505.785 583.615 505.128C584.271 504.471 584.271 503.406 583.615 502.749Z" fill="url(#paint18_linear_2859_50819)"/>
<path opacity="0.31" d="M861.793 470.342L618.39 226.939C617.734 226.282 616.669 226.282 616.012 226.939C615.355 227.596 615.355 228.661 616.012 229.318L859.415 472.721C860.072 473.378 861.137 473.378 861.793 472.721C862.45 472.064 862.45 470.999 861.793 470.342Z" fill="url(#paint19_linear_2859_50819)"/>
<path opacity="0.46" d="M772.271 536.673L705.672 470.074C705.015 469.417 703.95 469.417 703.293 470.074C702.636 470.731 702.636 471.796 703.293 472.453L769.892 539.051C770.549 539.708 771.614 539.708 772.271 539.051C772.927 538.395 772.927 537.33 772.271 536.673Z" fill="url(#paint20_linear_2859_50819)"/>
<path opacity="0.23" d="M419.49 544.934L181.637 307.081C180.98 306.424 179.915 306.424 179.258 307.081C178.601 307.738 178.601 308.803 179.258 309.459L417.111 547.312C417.768 547.969 418.833 547.969 419.49 547.312C420.146 546.656 420.146 545.591 419.49 544.934Z" fill="url(#paint21_linear_2859_50819)"/>
<path opacity="0.58" d="M344.077 811.503L286.199 753.626C285.542 752.969 284.477 752.969 283.821 753.626C283.164 754.283 283.164 755.348 283.821 756.004L341.698 813.882C342.355 814.539 343.42 814.539 344.077 813.882C344.733 813.225 344.733 812.16 344.077 811.503Z" fill="url(#paint22_linear_2859_50819)"/>
<path opacity="0.32" d="M571.987 919.439L20.1678 367.62C19.511 366.963 18.4461 366.963 17.7893 367.62C17.1324 368.277 17.1324 369.342 17.7893 369.998L569.608 921.817C570.265 922.474 571.33 922.474 571.987 921.817C572.644 921.161 572.644 920.096 571.987 919.439Z" fill="url(#paint23_linear_2859_50819)"/>
<path opacity="0.24" d="M438.809 537.343L283.412 381.946C282.755 381.289 281.69 381.289 281.033 381.946C280.377 382.603 280.377 383.668 281.033 384.325L436.431 539.722C437.088 540.379 438.152 540.379 438.809 539.722C439.466 539.065 439.466 538 438.809 537.343Z" fill="url(#paint24_linear_2859_50819)"/>
<path opacity="0.59" d="M861.845 600.46L786.525 525.139C785.868 524.483 784.803 524.483 784.147 525.139C783.49 525.796 783.49 526.861 784.147 527.518L859.467 602.838C860.124 603.495 861.189 603.495 861.845 602.838C862.502 602.181 862.502 601.116 861.845 600.46Z" fill="url(#paint25_linear_2859_50819)"/>
<path opacity="0.6" d="M225.877 407.385L-129.317 52.1912C-129.973 51.5344 -131.038 51.5344 -131.695 52.1912C-132.352 52.848 -132.352 53.9129 -131.695 54.5697L223.499 409.764C224.156 410.42 225.22 410.42 225.877 409.764C226.534 409.107 226.534 408.042 225.877 407.385Z" fill="url(#paint26_linear_2859_50819)"/>
<path opacity="0.39" d="M662.329 986.234L284.142 608.048C283.486 607.391 282.421 607.391 281.764 608.048C281.107 608.704 281.107 609.769 281.764 610.426L659.95 988.613C660.607 989.269 661.672 989.269 662.329 988.613C662.986 987.956 662.986 986.891 662.329 986.234Z" fill="url(#paint27_linear_2859_50819)"/>
<path opacity="0.11" d="M132.968 126.105L-18.465 -25.3283C-19.1218 -25.9851 -20.1867 -25.9851 -20.8436 -25.3283C-21.5004 -24.6715 -21.5004 -23.6066 -20.8436 -22.9498L130.59 128.483C131.246 129.14 132.311 129.14 132.968 128.483C133.625 127.827 133.625 126.762 132.968 126.105Z" fill="url(#paint28_linear_2859_50819)"/>
<path opacity="0.43" d="M110.574 154.167L75.6893 119.282C75.0325 118.625 73.9675 118.625 73.3107 119.282C72.6539 119.939 72.6539 121.004 73.3107 121.661L108.196 156.546C108.853 157.202 109.918 157.202 110.574 156.546C111.231 155.889 111.231 154.824 110.574 154.167Z" fill="url(#paint29_linear_2859_50819)"/>
<path opacity="0.72" d="M701.343 510.595L435.74 244.992C435.083 244.335 434.018 244.335 433.362 244.992C432.705 245.649 432.705 246.714 433.362 247.371L698.964 512.973C699.621 513.63 700.686 513.63 701.343 512.973C701.999 512.316 701.999 511.251 701.343 510.595Z" fill="url(#paint30_linear_2859_50819)"/>
<path opacity="0.33" d="M194.206 936.339L5.50958 747.642C4.85276 746.986 3.78786 746.986 3.13105 747.642C2.47423 748.299 2.47423 749.364 3.13105 750.021L191.828 938.718C192.485 939.374 193.55 939.374 194.206 938.718C194.863 938.061 194.863 936.996 194.206 936.339Z" fill="url(#paint31_linear_2859_50819)"/>
<path opacity="0.38" d="M766.15 436.367L456.148 126.365C455.491 125.708 454.427 125.708 453.77 126.365C453.113 127.022 453.113 128.087 453.77 128.744L763.772 438.745C764.428 439.402 765.493 439.402 766.15 438.745C766.807 438.089 766.807 437.024 766.15 436.367Z" fill="url(#paint32_linear_2859_50819)"/>
<path opacity="0.19" d="M699.498 836.155L354.611 491.268C353.954 490.612 352.889 490.612 352.233 491.268C351.576 491.925 351.576 492.99 352.233 493.647L697.12 838.534C697.776 839.191 698.841 839.191 699.498 838.534C700.155 837.877 700.155 836.812 699.498 836.155Z" fill="url(#paint33_linear_2859_50819)"/>
<path opacity="0.45" d="M594.867 559.972L432.334 397.439C431.677 396.782 430.612 396.782 429.955 397.439C429.298 398.096 429.298 399.161 429.955 399.818L592.488 562.351C593.145 563.008 594.21 563.008 594.867 562.351C595.524 561.694 595.524 560.629 594.867 559.972Z" fill="url(#paint34_linear_2859_50819)"/>
<path opacity="0.89" d="M320.797 653.672L109.9 442.775C109.243 442.118 108.178 442.118 107.522 442.775C106.865 443.432 106.865 444.497 107.522 445.154L318.418 656.05C319.075 656.707 320.14 656.707 320.797 656.05C321.453 655.393 321.453 654.328 320.797 653.672Z" fill="url(#paint35_linear_2859_50819)"/>
<path opacity="0.83" d="M637.382 395.056L125.205 -117.121C124.548 -117.778 123.483 -117.778 122.826 -117.121C122.17 -116.464 122.17 -115.4 122.826 -114.743L635.003 397.434C635.66 398.091 636.725 398.091 637.382 397.434C638.039 396.777 638.039 395.712 637.382 395.056Z" fill="url(#paint36_linear_2859_50819)"/>
<path opacity="0.85" d="M557.2 446.059L326.482 215.342C325.825 214.685 324.761 214.685 324.104 215.342C323.447 215.998 323.447 217.063 324.104 217.72L554.821 448.438C555.478 449.094 556.543 449.094 557.2 448.438C557.856 447.781 557.856 446.716 557.2 446.059Z" fill="url(#paint37_linear_2859_50819)"/>
<path opacity="0.54" d="M755.464 647.688L675.387 567.611C674.73 566.954 673.665 566.954 673.008 567.611C672.351 568.268 672.351 569.333 673.008 569.99L753.085 650.067C753.742 650.724 754.807 650.724 755.464 650.067C756.121 649.41 756.121 648.345 755.464 647.688Z" fill="url(#paint38_linear_2859_50819)"/>
<path opacity="0.88" d="M408.685 648.496L156.56 396.372C155.904 395.715 154.839 395.715 154.182 396.372C153.525 397.029 153.525 398.094 154.182 398.75L406.306 650.875C406.963 651.531 408.028 651.531 408.685 650.875C409.341 650.218 409.341 649.153 408.685 648.496Z" fill="url(#paint39_linear_2859_50819)"/>
<path opacity="0.7" d="M365.501 645.679L15.8572 296.035C15.2004 295.378 14.1355 295.378 13.4787 296.035C12.8219 296.692 12.8219 297.757 13.4787 298.413L363.123 648.057C363.779 648.714 364.844 648.714 365.501 648.057C366.158 647.401 366.158 646.336 365.501 645.679Z" fill="url(#paint40_linear_2859_50819)"/>
<path opacity="0.44" d="M876.231 898.52L794.568 816.857C793.911 816.2 792.846 816.2 792.19 816.857C791.533 817.514 791.533 818.578 792.19 819.235L873.853 900.898C874.509 901.555 875.574 901.555 876.231 900.898C876.888 900.241 876.888 899.176 876.231 898.52Z" fill="url(#paint41_linear_2859_50819)"/>
<path opacity="0.87" d="M781.915 1009.39L469.535 697.013C468.878 696.356 467.813 696.356 467.156 697.013C466.5 697.67 466.5 698.735 467.156 699.392L779.537 1011.77C780.194 1012.43 781.258 1012.43 781.915 1011.77C782.572 1011.12 782.572 1010.05 781.915 1009.39Z" fill="url(#paint42_linear_2859_50819)"/>
<path opacity="0.51" d="M528.812 362.731L480.449 314.368C479.792 313.711 478.727 313.711 478.071 314.368C477.414 315.025 477.414 316.09 478.071 316.747L526.434 365.11C527.091 365.767 528.156 365.767 528.812 365.11C529.469 364.453 529.469 363.388 528.812 362.731Z" fill="url(#paint43_linear_2859_50819)"/>
<path opacity="0.73" d="M1156.5 401.764L514.297 -240.44C513.64 -241.096 512.575 -241.096 511.918 -240.44C511.261 -239.783 511.261 -238.718 511.918 -238.061L1154.12 404.142C1154.78 404.799 1155.84 404.799 1156.5 404.142C1157.16 403.485 1157.16 402.42 1156.5 401.764Z" fill="url(#paint44_linear_2859_50819)"/>
<path opacity="0.68" d="M1092.79 601.546L600.433 109.19C599.777 108.533 598.712 108.533 598.055 109.19C597.398 109.847 597.398 110.912 598.055 111.569L1090.41 603.925C1091.07 604.581 1092.13 604.581 1092.79 603.925C1093.45 603.268 1093.45 602.203 1092.79 601.546Z" fill="url(#paint45_linear_2859_50819)"/>
<path opacity="0.17" d="M175.247 493.546L22.2283 340.527C21.5715 339.87 20.5066 339.87 19.8498 340.527C19.193 341.184 19.193 342.249 19.8498 342.906L172.869 495.924C173.525 496.581 174.59 496.581 175.247 495.924C175.904 495.268 175.904 494.203 175.247 493.546Z" fill="url(#paint46_linear_2859_50819)"/>
<path opacity="0.73" d="M117.109 650.689L75.8807 609.461C75.2239 608.804 74.159 608.804 73.5021 609.461C72.8453 610.118 72.8453 611.182 73.5021 611.839L114.73 653.067C115.387 653.724 116.452 653.724 117.109 653.067C117.765 652.41 117.765 651.345 117.109 650.689Z" fill="url(#paint47_linear_2859_50819)"/>
<path opacity="0.15" d="M254.104 925.597L-173.238 498.255C-173.895 497.598 -174.96 497.598 -175.617 498.255C-176.274 498.912 -176.274 499.976 -175.617 500.633L251.726 927.976C252.382 928.633 253.447 928.633 254.104 927.976C254.761 927.319 254.761 926.254 254.104 925.597Z" fill="url(#paint48_linear_2859_50819)"/>
<path opacity="0.16" d="M729.398 233.671L358.347 -137.38C357.691 -138.037 356.626 -138.037 355.969 -137.38C355.312 -136.723 355.312 -135.658 355.969 -135.002L727.02 236.049C727.677 236.706 728.741 236.706 729.398 236.049C730.055 235.392 730.055 234.328 729.398 233.671Z" fill="url(#paint49_linear_2859_50819)"/>
<path opacity="0.81" d="M370.307 556.299L336.215 522.207C335.558 521.55 334.493 521.55 333.836 522.207C333.179 522.864 333.179 523.929 333.836 524.585L367.928 558.678C368.585 559.334 369.65 559.334 370.307 558.678C370.964 558.021 370.964 556.956 370.307 556.299Z" fill="url(#paint50_linear_2859_50819)"/>
<path opacity="0.68" d="M665.177 229.996L501.058 65.8777C500.402 65.2209 499.337 65.2209 498.68 65.8777C498.023 66.5346 498.023 67.5995 498.68 68.2563L662.798 232.375C663.455 233.032 664.52 233.032 665.177 232.375C665.834 231.718 665.834 230.653 665.177 229.996Z" fill="url(#paint51_linear_2859_50819)"/>
<path opacity="0.47" d="M700.023 551.883L663.553 515.412C662.896 514.755 661.831 514.755 661.174 515.412C660.517 516.069 660.517 517.134 661.174 517.79L697.645 554.261C698.302 554.918 699.367 554.918 700.023 554.261C700.68 553.604 700.68 552.54 700.023 551.883Z" fill="url(#paint52_linear_2859_50819)"/>
<path opacity="0.79" d="M234.486 715.367L-160.35 320.531C-161.007 319.874 -162.072 319.874 -162.728 320.531C-163.385 321.188 -163.385 322.253 -162.728 322.91L232.108 717.746C232.765 718.402 233.829 718.402 234.486 717.746C235.143 717.089 235.143 716.024 234.486 715.367Z" fill="url(#paint53_linear_2859_50819)"/>
<path opacity="0.85" d="M886.774 809.273L815.418 737.917C814.761 737.26 813.696 737.26 813.039 737.917C812.382 738.574 812.382 739.639 813.039 740.295L884.395 811.651C885.052 812.308 886.117 812.308 886.774 811.651C887.431 810.994 887.43 809.93 886.774 809.273Z" fill="url(#paint54_linear_2859_50819)"/>
<path opacity="0.93" d="M223.651 658.56L155.467 590.376C154.81 589.719 153.745 589.719 153.088 590.376C152.431 591.033 152.431 592.098 153.088 592.754L221.273 660.939C221.929 661.596 222.994 661.596 223.651 660.939C224.308 660.282 224.308 659.217 223.651 658.56Z" fill="url(#paint55_linear_2859_50819)"/>
<path opacity="0.09" d="M367.408 768.68L-127.326 273.946C-127.983 273.289 -129.048 273.289 -129.705 273.946C-130.362 274.603 -130.362 275.668 -129.705 276.325L365.029 771.059C365.686 771.716 366.751 771.716 367.408 771.059C368.065 770.402 368.065 769.337 367.408 768.68Z" fill="url(#paint56_linear_2859_50819)"/>
<path opacity="0.66" d="M566.404 926.19L445.099 804.885C444.443 804.228 443.378 804.228 442.721 804.885C442.064 805.541 442.064 806.606 442.721 807.263L564.026 928.568C564.683 929.225 565.748 929.225 566.404 928.568C567.061 927.911 567.061 926.846 566.404 926.19Z" fill="url(#paint57_linear_2859_50819)"/>
<path opacity="0.43" d="M728.395 190.059L680.031 141.695C679.374 141.038 678.309 141.038 677.653 141.695C676.996 142.352 676.996 143.417 677.653 144.074L726.016 192.437C726.673 193.094 727.738 193.094 728.395 192.437C729.051 191.78 729.051 190.715 728.395 190.059Z" fill="url(#paint58_linear_2859_50819)"/>
<path opacity="0.53" d="M331.75 361.888L38.3982 68.5359C37.7414 67.8791 36.6765 67.8791 36.0197 68.5359C35.3629 69.1928 35.3629 70.2577 36.0197 70.9145L329.372 364.267C330.029 364.923 331.094 364.923 331.75 364.267C332.407 363.61 332.407 362.545 331.75 361.888Z" fill="url(#paint59_linear_2859_50819)"/>
<path opacity="0.14" d="M900.698 564.187L669.187 332.677C668.53 332.02 667.466 332.02 666.809 332.677C666.152 333.333 666.152 334.398 666.809 335.055L898.319 566.565C898.976 567.222 900.041 567.222 900.698 566.565C901.354 565.909 901.354 564.844 900.698 564.187Z" fill="url(#paint60_linear_2859_50819)"/>
<path opacity="0.1" d="M792.325 945.801L416.517 569.993C415.861 569.336 414.796 569.336 414.139 569.993C413.482 570.65 413.482 571.715 414.139 572.372L789.947 948.179C790.604 948.836 791.668 948.836 792.325 948.179C792.982 947.523 792.982 946.458 792.325 945.801Z" fill="url(#paint61_linear_2859_50819)"/>
<path opacity="0.65" d="M825.842 703.49L741.801 619.449C741.144 618.792 740.079 618.792 739.422 619.449C738.765 620.106 738.765 621.171 739.422 621.828L823.463 705.869C824.12 706.526 825.185 706.526 825.842 705.869C826.499 705.212 826.499 704.147 825.842 703.49Z" fill="url(#paint62_linear_2859_50819)"/>
<path opacity="0.54" d="M180.681 414.886L151.346 385.551C150.689 384.894 149.624 384.894 148.967 385.551C148.31 386.207 148.31 387.272 148.967 387.929L178.302 417.264C178.959 417.921 180.024 417.921 180.681 417.264C181.338 416.608 181.338 415.543 180.681 414.886Z" fill="url(#paint63_linear_2859_50819)"/>
<path opacity="0.85" d="M762.376 776.817L545.137 559.578C544.48 558.921 543.415 558.921 542.758 559.578C542.101 560.235 542.101 561.3 542.758 561.956L759.997 779.196C760.654 779.852 761.719 779.852 762.376 779.196C763.032 778.539 763.032 777.474 762.376 776.817Z" fill="url(#paint64_linear_2859_50819)"/>
<path opacity="0.93" d="M312.176 432.014L154.4 274.238C153.743 273.581 152.678 273.581 152.022 274.238C151.365 274.895 151.365 275.96 152.022 276.617L309.798 434.392C310.454 435.049 311.519 435.049 312.176 434.392C312.833 433.736 312.833 432.671 312.176 432.014Z" fill="url(#paint65_linear_2859_50819)"/>
<path opacity="0.57" d="M513.604 548.227L356.621 391.244C355.964 390.587 354.899 390.587 354.242 391.244C353.586 391.901 353.586 392.966 354.242 393.622L511.225 550.605C511.882 551.262 512.947 551.262 513.604 550.605C514.261 549.949 514.261 548.884 513.604 548.227Z" fill="url(#paint66_linear_2859_50819)"/>
<path opacity="0.3" d="M888.472 499.263L836.144 446.935C835.488 446.279 834.423 446.279 833.766 446.935C833.109 447.592 833.109 448.657 833.766 449.314L886.093 501.642C886.75 502.298 887.815 502.298 888.472 501.642C889.129 500.985 889.129 499.92 888.472 499.263Z" fill="url(#paint67_linear_2859_50819)"/>
<path opacity="0.46" d="M736.553 581.686L481.258 326.39C480.601 325.734 479.536 325.734 478.879 326.39C478.222 327.047 478.222 328.112 478.879 328.769L734.175 584.065C734.832 584.721 735.896 584.721 736.553 584.065C737.21 583.408 737.21 582.343 736.553 581.686Z" fill="url(#paint68_linear_2859_50819)"/>
<path opacity="0.26" d="M860.795 824.779L704.605 668.589C703.948 667.932 702.884 667.932 702.227 668.589C701.57 669.246 701.57 670.311 702.227 670.968L858.417 827.158C859.074 827.815 860.139 827.815 860.795 827.158C861.452 826.501 861.452 825.436 860.795 824.779Z" fill="url(#paint69_linear_2859_50819)"/>
<path opacity="0.51" d="M977.531 767.722L751.57 541.762C750.913 541.105 749.848 541.105 749.192 541.762C748.535 542.418 748.535 543.483 749.192 544.14L975.152 770.1C975.809 770.757 976.874 770.757 977.531 770.1C978.187 769.444 978.187 768.379 977.531 767.722Z" fill="url(#paint70_linear_2859_50819)"/>
<path opacity="0.25" d="M377.789 283.469L82.0584 -12.2619C81.4016 -12.9187 80.3367 -12.9187 79.6799 -12.2619C79.0231 -11.6051 79.0231 -10.5402 79.6799 -9.88338L375.41 285.847C376.067 286.504 377.132 286.504 377.789 285.847C378.446 285.19 378.446 284.126 377.789 283.469Z" fill="url(#paint71_linear_2859_50819)"/>
<path opacity="0.95" d="M806.592 537.357L559.224 289.99C558.568 289.333 557.503 289.333 556.846 289.99C556.189 290.647 556.189 291.712 556.846 292.369L804.213 539.736C804.87 540.393 805.935 540.393 806.592 539.736C807.248 539.079 807.248 538.014 806.592 537.357Z" fill="url(#paint72_linear_2859_50819)"/>
<path opacity="0.31" d="M351.038 207.383L23.5936 -120.062C22.9367 -120.719 21.8718 -120.719 21.215 -120.062C20.5582 -119.405 20.5582 -118.34 21.215 -117.683L348.659 209.761C349.316 210.418 350.381 210.418 351.038 209.761C351.695 209.104 351.695 208.039 351.038 207.383Z" fill="url(#paint73_linear_2859_50819)"/>
<path opacity="0.67" d="M916.966 268.749L482.488 -165.73C481.831 -166.386 480.766 -166.386 480.11 -165.73C479.453 -165.073 479.453 -164.008 480.11 -163.351L914.588 271.127C915.245 271.784 916.31 271.784 916.966 271.127C917.623 270.47 917.623 269.405 916.966 268.749Z" fill="url(#paint74_linear_2859_50819)"/>
<path opacity="0.25" d="M279.317 476.521L211.926 409.13C211.269 408.473 210.204 408.473 209.547 409.13C208.89 409.787 208.89 410.851 209.547 411.508L276.939 478.9C277.596 479.557 278.66 479.557 279.317 478.9C279.974 478.243 279.974 477.178 279.317 476.521Z" fill="url(#paint75_linear_2859_50819)"/>
<path opacity="0.26" d="M848.871 963.104L599.918 714.151C599.261 713.494 598.196 713.494 597.539 714.151C596.882 714.808 596.882 715.872 597.539 716.529L846.492 965.482C847.149 966.139 848.214 966.139 848.871 965.482C849.527 964.825 849.527 963.76 848.871 963.104Z" fill="url(#paint76_linear_2859_50819)"/>
</g>
<defs>
<linearGradient id="paint0_linear_2859_50819" x1="22525.7" y1="-22196.1" x2="22763.6" y2="-21958.3" gradientUnits="userSpaceOnUse">
<stop stop-color="white"/>
<stop offset="0.45" stop-color="#7C65C1"/>
<stop offset="1" stop-color="#A29CB2"/>
</linearGradient>
<linearGradient id="paint1_linear_2859_50819" x1="16073.1" y1="-15676.2" x2="16311" y2="-15438.4" gradientUnits="userSpaceOnUse">
<stop stop-color="white"/>
<stop offset="0.45" stop-color="#7C65C1"/>
<stop offset="1" stop-color="#A29CB2"/>
</linearGradient>
<linearGradient id="paint2_linear_2859_50819" x1="24111.8" y1="-24174.7" x2="24349.7" y2="-23936.8" gradientUnits="userSpaceOnUse">
<stop stop-color="white"/>
<stop offset="0.45" stop-color="#7C65C1"/>
<stop offset="1" stop-color="#A29CB2"/>
</linearGradient>
<linearGradient id="paint3_linear_2859_50819" x1="5954.22" y1="-4408.45" x2="6192.08" y2="-4170.6" gradientUnits="userSpaceOnUse">
<stop stop-color="white"/>
<stop offset="0.45" stop-color="#7C65C1"/>
<stop offset="1" stop-color="#A29CB2"/>
</linearGradient>
<linearGradient id="paint4_linear_2859_50819" x1="26393.3" y1="-26193.1" x2="26631.2" y2="-25955.2" gradientUnits="userSpaceOnUse">
<stop stop-color="white"/>
<stop offset="0.45" stop-color="#7C65C1"/>
<stop offset="1" stop-color="#A29CB2"/>
</linearGradient>
<linearGradient id="paint5_linear_2859_50819" x1="7783.38" y1="-6545.75" x2="8021.23" y2="-6307.89" gradientUnits="userSpaceOnUse">
<stop stop-color="white"/>
<stop offset="0.45" stop-color="#7C65C1"/>
<stop offset="1" stop-color="#A29CB2"/>
</linearGradient>
<linearGradient id="paint6_linear_2859_50819" x1="13594.1" y1="-11634.2" x2="13831.9" y2="-11396.3" gradientUnits="userSpaceOnUse">
<stop stop-color="white"/>
<stop offset="0.45" stop-color="#7C65C1"/>
<stop offset="1" stop-color="#A29CB2"/>
</linearGradient>
<linearGradient id="paint7_linear_2859_50819" x1="9304.18" y1="-8896.73" x2="9542.03" y2="-8658.87" gradientUnits="userSpaceOnUse">
<stop stop-color="white"/>
<stop offset="0.45" stop-color="#7C65C1"/>
<stop offset="1" stop-color="#A29CB2"/>
</linearGradient>
<linearGradient id="paint8_linear_2859_50819" x1="12000.9" y1="-11255.8" x2="12238.8" y2="-11018" gradientUnits="userSpaceOnUse">
<stop stop-color="white"/>
<stop offset="0.45" stop-color="#7C65C1"/>
<stop offset="1" stop-color="#A29CB2"/>
</linearGradient>
<linearGradient id="paint9_linear_2859_50819" x1="4582.98" y1="-4352.89" x2="4820.84" y2="-4115.04" gradientUnits="userSpaceOnUse">
<stop stop-color="white"/>
<stop offset="0.45" stop-color="#7C65C1"/>
<stop offset="1" stop-color="#A29CB2"/>
</linearGradient>
<linearGradient id="paint10_linear_2859_50819" x1="23120.3" y1="-21402.2" x2="23358.2" y2="-21164.4" gradientUnits="userSpaceOnUse">
<stop stop-color="white"/>
<stop offset="0.45" stop-color="#7C65C1"/>
<stop offset="1" stop-color="#A29CB2"/>
</linearGradient>
<linearGradient id="paint11_linear_2859_50819" x1="14939.4" y1="-13448.3" x2="15177.3" y2="-13210.5" gradientUnits="userSpaceOnUse">
<stop stop-color="white"/>
<stop offset="0.45" stop-color="#7C65C1"/>
<stop offset="1" stop-color="#A29CB2"/>
</linearGradient>
<linearGradient id="paint12_linear_2859_50819" x1="8262.47" y1="-7627" x2="8500.33" y2="-7389.15" gradientUnits="userSpaceOnUse">
<stop stop-color="white"/>
<stop offset="0.45" stop-color="#7C65C1"/>
<stop offset="1" stop-color="#A29CB2"/>
</linearGradient>
<linearGradient id="paint13_linear_2859_50819" x1="7841.64" y1="-7205.05" x2="8079.49" y2="-6967.2" gradientUnits="userSpaceOnUse">
<stop stop-color="white"/>
<stop offset="0.45" stop-color="#7C65C1"/>
<stop offset="1" stop-color="#A29CB2"/>
</linearGradient>
<linearGradient id="paint14_linear_2859_50819" x1="6330.34" y1="-5432.1" x2="6568.2" y2="-5194.24" gradientUnits="userSpaceOnUse">
<stop stop-color="white"/>
<stop offset="0.45" stop-color="#7C65C1"/>
<stop offset="1" stop-color="#A29CB2"/>
</linearGradient>
<linearGradient id="paint15_linear_2859_50819" x1="15534.5" y1="-15518.8" x2="15772.3" y2="-15280.9" gradientUnits="userSpaceOnUse">
<stop stop-color="white"/>
<stop offset="0.45" stop-color="#7C65C1"/>
<stop offset="1" stop-color="#A29CB2"/>
</linearGradient>
<linearGradient id="paint16_linear_2859_50819" x1="8693.74" y1="-7915.1" x2="8931.59" y2="-7677.25" gradientUnits="userSpaceOnUse">
<stop stop-color="white"/>
<stop offset="0.45" stop-color="#7C65C1"/>
<stop offset="1" stop-color="#A29CB2"/>
</linearGradient>
<linearGradient id="paint17_linear_2859_50819" x1="26586.7" y1="-25463.7" x2="26824.6" y2="-25225.8" gradientUnits="userSpaceOnUse">
<stop stop-color="white"/>
<stop offset="0.45" stop-color="#7C65C1"/>
<stop offset="1" stop-color="#A29CB2"/>
</linearGradient>
<linearGradient id="paint18_linear_2859_50819" x1="21819.5" y1="-21269.1" x2="22057.4" y2="-21031.3" gradientUnits="userSpaceOnUse">
<stop stop-color="white"/>
<stop offset="0.45" stop-color="#7C65C1"/>
<stop offset="1" stop-color="#A29CB2"/>
</linearGradient>
<linearGradient id="paint19_linear_2859_50819" x1="13398.6" y1="-12862.5" x2="13636.5" y2="-12624.7" gradientUnits="userSpaceOnUse">
<stop stop-color="white"/>
<stop offset="0.45" stop-color="#7C65C1"/>
<stop offset="1" stop-color="#A29CB2"/>
</linearGradient>
<linearGradient id="paint20_linear_2859_50819" x1="4864.53" y1="-3954.39" x2="5102.39" y2="-3716.54" gradientUnits="userSpaceOnUse">
<stop stop-color="white"/>
<stop offset="0.45" stop-color="#7C65C1"/>
<stop offset="1" stop-color="#A29CB2"/>
</linearGradient>
<linearGradient id="paint21_linear_2859_50819" x1="12793.8" y1="-11888.8" x2="13031.6" y2="-11651" gradientUnits="userSpaceOnUse">
<stop stop-color="white"/>
<stop offset="0.45" stop-color="#7C65C1"/>
<stop offset="1" stop-color="#A29CB2"/>
</linearGradient>
<linearGradient id="paint22_linear_2859_50819" x1="4403.83" y1="-2644.1" x2="4641.68" y2="-2406.25" gradientUnits="userSpaceOnUse">
<stop stop-color="white"/>
<stop offset="0.45" stop-color="#7C65C1"/>
<stop offset="1" stop-color="#A29CB2"/>
</linearGradient>
<linearGradient id="paint23_linear_2859_50819" x1="28638.2" y1="-27206.3" x2="28876.1" y2="-26968.4" gradientUnits="userSpaceOnUse">
<stop stop-color="white"/>
<stop offset="0.45" stop-color="#7C65C1"/>
<stop offset="1" stop-color="#A29CB2"/>
</linearGradient>
<linearGradient id="paint24_linear_2859_50819" x1="8820.35" y1="-7859.27" x2="9058.21" y2="-7621.41" gradientUnits="userSpaceOnUse">
<stop stop-color="white"/>
<stop offset="0.45" stop-color="#7C65C1"/>
<stop offset="1" stop-color="#A29CB2"/>
</linearGradient>
<linearGradient id="paint25_linear_2859_50819" x1="5465.49" y1="-4447.18" x2="5703.34" y2="-4209.33" gradientUnits="userSpaceOnUse">
<stop stop-color="white"/>
<stop offset="0.45" stop-color="#7C65C1"/>
<stop offset="1" stop-color="#A29CB2"/>
</linearGradient>
<linearGradient id="paint26_linear_2859_50819" x1="18072.4" y1="-17536.6" x2="18310.2" y2="-17298.8" gradientUnits="userSpaceOnUse">
<stop stop-color="white"/>
<stop offset="0.45" stop-color="#7C65C1"/>
<stop offset="1" stop-color="#A29CB2"/>
</linearGradient>
<linearGradient id="paint27_linear_2859_50819" x1="20437.8" y1="-18708.4" x2="20675.7" y2="-18470.5" gradientUnits="userSpaceOnUse">
<stop stop-color="white"/>
<stop offset="0.45" stop-color="#7C65C1"/>
<stop offset="1" stop-color="#A29CB2"/>
</linearGradient>
<linearGradient id="paint28_linear_2859_50819" x1="7741.49" y1="-7642.57" x2="7979.34" y2="-7404.72" gradientUnits="userSpaceOnUse">
<stop stop-color="white"/>
<stop offset="0.45" stop-color="#7C65C1"/>
<stop offset="1" stop-color="#A29CB2"/>
</linearGradient>
<linearGradient id="paint29_linear_2859_50819" x1="2130.34" y1="-1837.85" x2="2368.2" y2="-1600" gradientUnits="userSpaceOnUse">
<stop stop-color="white"/>
<stop offset="0.45" stop-color="#7C65C1"/>
<stop offset="1" stop-color="#A29CB2"/>
</linearGradient>
<linearGradient id="paint30_linear_2859_50819" x1="14367.2" y1="-13689.6" x2="14605" y2="-13451.8" gradientUnits="userSpaceOnUse">
<stop stop-color="white"/>
<stop offset="0.45" stop-color="#7C65C1"/>
<stop offset="1" stop-color="#A29CB2"/>
</linearGradient>
<linearGradient id="paint31_linear_2859_50819" x1="10748.1" y1="-8755.78" x2="10986" y2="-8517.92" gradientUnits="userSpaceOnUse">
<stop stop-color="white"/>
<stop offset="0.45" stop-color="#7C65C1"/>
<stop offset="1" stop-color="#A29CB2"/>
</linearGradient>
<linearGradient id="paint32_linear_2859_50819" x1="16471.2" y1="-16044.1" x2="16709" y2="-15806.2" gradientUnits="userSpaceOnUse">
<stop stop-color="white"/>
<stop offset="0.45" stop-color="#7C65C1"/>
<stop offset="1" stop-color="#A29CB2"/>
</linearGradient>
<linearGradient id="paint33_linear_2859_50819" x1="18654.6" y1="-17269.6" x2="18892.5" y2="-17031.8" gradientUnits="userSpaceOnUse">
<stop stop-color="white"/>
<stop offset="0.45" stop-color="#7C65C1"/>
<stop offset="1" stop-color="#A29CB2"/>
</linearGradient>
<linearGradient id="paint34_linear_2859_50819" x1="9353.01" y1="-8409.07" x2="9590.86" y2="-8171.22" gradientUnits="userSpaceOnUse">
<stop stop-color="white"/>
<stop offset="0.45" stop-color="#7C65C1"/>
<stop offset="1" stop-color="#A29CB2"/>
</linearGradient>
<linearGradient id="paint35_linear_2859_50819" x1="11547.1" y1="-10311.7" x2="11784.9" y2="-10073.9" gradientUnits="userSpaceOnUse">
<stop stop-color="white"/>
<stop offset="0.45" stop-color="#7C65C1"/>
<stop offset="1" stop-color="#A29CB2"/>
</linearGradient>
<linearGradient id="paint36_linear_2859_50819" x1="26047.6" y1="-25869.1" x2="26285.5" y2="-25631.2" gradientUnits="userSpaceOnUse">
<stop stop-color="white"/>
<stop offset="0.45" stop-color="#7C65C1"/>
<stop offset="1" stop-color="#A29CB2"/>
</linearGradient>
<linearGradient id="paint37_linear_2859_50819" x1="12447.1" y1="-11830.7" x2="12684.9" y2="-11592.9" gradientUnits="userSpaceOnUse">
<stop stop-color="white"/>
<stop offset="0.45" stop-color="#7C65C1"/>
<stop offset="1" stop-color="#A29CB2"/>
</linearGradient>
<linearGradient id="paint38_linear_2859_50819" x1="5655.63" y1="-4483.99" x2="5893.49" y2="-4246.14" gradientUnits="userSpaceOnUse">
<stop stop-color="white"/>
<stop offset="0.45" stop-color="#7C65C1"/>
<stop offset="1" stop-color="#A29CB2"/>
</linearGradient>
<linearGradient id="paint39_linear_2859_50819" x1="13618.6" y1="-12473.5" x2="13856.5" y2="-12235.6" gradientUnits="userSpaceOnUse">
<stop stop-color="white"/>
<stop offset="0.45" stop-color="#7C65C1"/>
<stop offset="1" stop-color="#A29CB2"/>
</linearGradient>
<linearGradient id="paint40_linear_2859_50819" x1="18281" y1="-17222.2" x2="18518.8" y2="-16984.4" gradientUnits="userSpaceOnUse">
<stop stop-color="white"/>
<stop offset="0.45" stop-color="#7C65C1"/>
<stop offset="1" stop-color="#A29CB2"/>
</linearGradient>
<linearGradient id="paint41_linear_2859_50819" x1="6207.71" y1="-4482.11" x2="6445.56" y2="-4244.26" gradientUnits="userSpaceOnUse">
<stop stop-color="white"/>
<stop offset="0.45" stop-color="#7C65C1"/>
<stop offset="1" stop-color="#A29CB2"/>
</linearGradient>
<linearGradient id="paint42_linear_2859_50819" x1="17412.2" y1="-15610.6" x2="17650.1" y2="-15372.7" gradientUnits="userSpaceOnUse">
<stop stop-color="white"/>
<stop offset="0.45" stop-color="#7C65C1"/>
<stop offset="1" stop-color="#A29CB2"/>
</linearGradient>
<linearGradient id="paint43_linear_2859_50819" x1="3494.44" y1="-2885.15" x2="3732.3" y2="-2647.3" gradientUnits="userSpaceOnUse">
<stop stop-color="white"/>
<stop offset="0.45" stop-color="#7C65C1"/>
<stop offset="1" stop-color="#A29CB2"/>
</linearGradient>
<linearGradient id="paint44_linear_2859_50819" x1="32855.6" y1="-33005.9" x2="33093.4" y2="-32768" gradientUnits="userSpaceOnUse">
<stop stop-color="white"/>
<stop offset="0.45" stop-color="#7C65C1"/>
<stop offset="1" stop-color="#A29CB2"/>
</linearGradient>
<linearGradient id="paint45_linear_2859_50819" x1="25837.8" y1="-25329.6" x2="26075.7" y2="-25091.7" gradientUnits="userSpaceOnUse">
<stop stop-color="white"/>
<stop offset="0.45" stop-color="#7C65C1"/>
<stop offset="1" stop-color="#A29CB2"/>
</linearGradient>
<linearGradient id="paint46_linear_2859_50819" x1="8379.99" y1="-7413.08" x2="8617.84" y2="-7175.23" gradientUnits="userSpaceOnUse">
<stop stop-color="white"/>
<stop offset="0.45" stop-color="#7C65C1"/>
<stop offset="1" stop-color="#A29CB2"/>
</linearGradient>
<linearGradient id="paint47_linear_2859_50819" x1="3145.37" y1="-1663.23" x2="3383.23" y2="-1425.37" gradientUnits="userSpaceOnUse">
<stop stop-color="white"/>
<stop offset="0.45" stop-color="#7C65C1"/>
<stop offset="1" stop-color="#A29CB2"/>
</linearGradient>
<linearGradient id="paint48_linear_2859_50819" x1="22317.7" y1="-20614.8" x2="22555.6" y2="-20376.9" gradientUnits="userSpaceOnUse">
<stop stop-color="white"/>
<stop offset="0.45" stop-color="#7C65C1"/>
<stop offset="1" stop-color="#A29CB2"/>
</linearGradient>
<linearGradient id="paint49_linear_2859_50819" x1="19096" y1="-19204.1" x2="19333.9" y2="-18966.2" gradientUnits="userSpaceOnUse">
<stop stop-color="white"/>
<stop offset="0.45" stop-color="#7C65C1"/>
<stop offset="1" stop-color="#A29CB2"/>
</linearGradient>
<linearGradient id="paint50_linear_2859_50819" x1="2920.49" y1="-1763.96" x2="3158.34" y2="-1526.1" gradientUnits="userSpaceOnUse">
<stop stop-color="white"/>
<stop offset="0.45" stop-color="#7C65C1"/>
<stop offset="1" stop-color="#A29CB2"/>
</linearGradient>
<linearGradient id="paint51_linear_2859_50819" x1="9033.24" y1="-8916.64" x2="9271.1" y2="-8678.79" gradientUnits="userSpaceOnUse">
<stop stop-color="white"/>
<stop offset="0.45" stop-color="#7C65C1"/>
<stop offset="1" stop-color="#A29CB2"/>
</linearGradient>
<linearGradient id="paint52_linear_2859_50819" x1="3358.82" y1="-2351.91" x2="3596.68" y2="-2114.05" gradientUnits="userSpaceOnUse">
<stop stop-color="white"/>
<stop offset="0.45" stop-color="#7C65C1"/>
<stop offset="1" stop-color="#A29CB2"/>
</linearGradient>
<linearGradient id="paint53_linear_2859_50819" x1="20431" y1="-19194.9" x2="20668.8" y2="-18957.1" gradientUnits="userSpaceOnUse">
<stop stop-color="white"/>
<stop offset="0.45" stop-color="#7C65C1"/>
<stop offset="1" stop-color="#A29CB2"/>
</linearGradient>
<linearGradient id="paint54_linear_2859_50819" x1="5594.28" y1="-4078.21" x2="5832.13" y2="-3840.36" gradientUnits="userSpaceOnUse">
<stop stop-color="white"/>
<stop offset="0.45" stop-color="#7C65C1"/>
<stop offset="1" stop-color="#A29CB2"/>
</linearGradient>
<linearGradient id="paint55_linear_2859_50819" x1="4564.87" y1="-3134.8" x2="4802.72" y2="-2896.95" gradientUnits="userSpaceOnUse">
<stop stop-color="white"/>
<stop offset="0.45" stop-color="#7C65C1"/>
<stop offset="1" stop-color="#A29CB2"/>
</linearGradient>
<linearGradient id="paint56_linear_2859_50819" x1="25463.7" y1="-24253.9" x2="25701.5" y2="-24016" gradientUnits="userSpaceOnUse">
<stop stop-color="white"/>
<stop offset="0.45" stop-color="#7C65C1"/>
<stop offset="1" stop-color="#A29CB2"/>
</linearGradient>
<linearGradient id="paint57_linear_2859_50819" x1="7851.45" y1="-5970.36" x2="8089.3" y2="-5732.51" gradientUnits="userSpaceOnUse">
<stop stop-color="white"/>
<stop offset="0.45" stop-color="#7C65C1"/>
<stop offset="1" stop-color="#A29CB2"/>
</linearGradient>
<linearGradient id="paint58_linear_2859_50819" x1="3449.83" y1="-3340.08" x2="3687.68" y2="-3102.22" gradientUnits="userSpaceOnUse">
<stop stop-color="white"/>
<stop offset="0.45" stop-color="#7C65C1"/>
<stop offset="1" stop-color="#A29CB2"/>
</linearGradient>
<linearGradient id="paint59_linear_2859_50819" x1="15127.4" y1="-14683.5" x2="15365.3" y2="-14445.7" gradientUnits="userSpaceOnUse">
<stop stop-color="white"/>
<stop offset="0.45" stop-color="#7C65C1"/>
<stop offset="1" stop-color="#A29CB2"/>
</linearGradient>
<linearGradient id="paint60_linear_2859_50819" x1="12995.9" y1="-12237.5" x2="13233.8" y2="-11999.6" gradientUnits="userSpaceOnUse">
<stop stop-color="white"/>
<stop offset="0.45" stop-color="#7C65C1"/>
<stop offset="1" stop-color="#A29CB2"/>
</linearGradient>
<linearGradient id="paint61_linear_2859_50819" x1="20395.8" y1="-18815.4" x2="20633.6" y2="-18577.6" gradientUnits="userSpaceOnUse">
<stop stop-color="white"/>
<stop offset="0.45" stop-color="#7C65C1"/>
<stop offset="1" stop-color="#A29CB2"/>
</linearGradient>
<linearGradient id="paint62_linear_2859_50819" x1="5996.37" y1="-4723.13" x2="6234.22" y2="-4485.27" gradientUnits="userSpaceOnUse">
<stop stop-color="white"/>
<stop offset="0.45" stop-color="#7C65C1"/>
<stop offset="1" stop-color="#A29CB2"/>
</linearGradient>
<linearGradient id="paint63_linear_2859_50819" x1="2301.14" y1="-1402.71" x2="2538.99" y2="-1164.85" gradientUnits="userSpaceOnUse">
<stop stop-color="white"/>
<stop offset="0.45" stop-color="#7C65C1"/>
<stop offset="1" stop-color="#A29CB2"/>
</linearGradient>
<linearGradient id="paint64_linear_2859_50819" x1="12469.1" y1="-11125.7" x2="12707" y2="-10887.9" gradientUnits="userSpaceOnUse">
<stop stop-color="white"/>
<stop offset="0.45" stop-color="#7C65C1"/>
<stop offset="1" stop-color="#A29CB2"/>
</linearGradient>
<linearGradient id="paint65_linear_2859_50819" x1="8659.63" y1="-7902.75" x2="8897.48" y2="-7664.9" gradientUnits="userSpaceOnUse">
<stop stop-color="white"/>
<stop offset="0.45" stop-color="#7C65C1"/>
<stop offset="1" stop-color="#A29CB2"/>
</linearGradient>
<linearGradient id="paint66_linear_2859_50819" x1="8987.12" y1="-8032.32" x2="9224.97" y2="-7794.47" gradientUnits="userSpaceOnUse">
<stop stop-color="white"/>
<stop offset="0.45" stop-color="#7C65C1"/>
<stop offset="1" stop-color="#A29CB2"/>
</linearGradient>
<linearGradient id="paint67_linear_2859_50819" x1="4238.63" y1="-3452.67" x2="4476.48" y2="-3214.81" gradientUnits="userSpaceOnUse">
<stop stop-color="white"/>
<stop offset="0.45" stop-color="#7C65C1"/>
<stop offset="1" stop-color="#A29CB2"/>
</linearGradient>
<linearGradient id="paint68_linear_2859_50819" x1="14005.2" y1="-13160.3" x2="14243" y2="-12922.4" gradientUnits="userSpaceOnUse">
<stop stop-color="white"/>
<stop offset="0.45" stop-color="#7C65C1"/>
<stop offset="1" stop-color="#A29CB2"/>
</linearGradient>
<linearGradient id="paint69_linear_2859_50819" x1="9687.13" y1="-8207.69" x2="9924.98" y2="-7969.84" gradientUnits="userSpaceOnUse">
<stop stop-color="white"/>
<stop offset="0.45" stop-color="#7C65C1"/>
<stop offset="1" stop-color="#A29CB2"/>
</linearGradient>
<linearGradient id="paint70_linear_2859_50819" x1="13092.6" y1="-11869" x2="13330.4" y2="-11631.2" gradientUnits="userSpaceOnUse">
<stop stop-color="white"/>
<stop offset="0.45" stop-color="#7C65C1"/>
<stop offset="1" stop-color="#A29CB2"/>
</linearGradient>
<linearGradient id="paint71_linear_2859_50819" x1="15177.4" y1="-14944.3" x2="15415.3" y2="-14706.4" gradientUnits="userSpaceOnUse">
<stop stop-color="white"/>
<stop offset="0.45" stop-color="#7C65C1"/>
<stop offset="1" stop-color="#A29CB2"/>
</linearGradient>
<linearGradient id="paint72_linear_2859_50819" x1="13629.6" y1="-12912.8" x2="13867.5" y2="-12675" gradientUnits="userSpaceOnUse">
<stop stop-color="white"/>
<stop offset="0.45" stop-color="#7C65C1"/>
<stop offset="1" stop-color="#A29CB2"/>
</linearGradient>
<linearGradient id="paint73_linear_2859_50819" x1="16574.6" y1="-16545.8" x2="16812.4" y2="-16307.9" gradientUnits="userSpaceOnUse">
<stop stop-color="white"/>
<stop offset="0.45" stop-color="#7C65C1"/>
<stop offset="1" stop-color="#A29CB2"/>
</linearGradient>
<linearGradient id="paint74_linear_2859_50819" x1="22396.3" y1="-22560.8" x2="22634.1" y2="-22322.9" gradientUnits="userSpaceOnUse">
<stop stop-color="white"/>
<stop offset="0.45" stop-color="#7C65C1"/>
<stop offset="1" stop-color="#A29CB2"/>
</linearGradient>
<linearGradient id="paint75_linear_2859_50819" x1="4324.8" y1="-3356.48" x2="4562.65" y2="-3118.63" gradientUnits="userSpaceOnUse">
<stop stop-color="white"/>
<stop offset="0.45" stop-color="#7C65C1"/>
<stop offset="1" stop-color="#A29CB2"/>
</linearGradient>
<linearGradient id="paint76_linear_2859_50819" x1="14350.6" y1="-12625" x2="14588.5" y2="-12387.2" gradientUnits="userSpaceOnUse">
<stop stop-color="white"/>
<stop offset="0.45" stop-color="#7C65C1"/>
<stop offset="1" stop-color="#A29CB2"/>
</linearGradient>
<clipPath id="clip0_2859_50819">
<rect width="897" height="897" fill="white"/>
</clipPath>
</defs>
</svg>
