<svg width="346" height="78" viewBox="0 0 346 78" fill="none" xmlns="http://www.w3.org/2000/svg">
<path fill-rule="evenodd" clip-rule="evenodd" d="M253.81 41.4359H252.76L239.098 1.81787H223.096V3.45587L242.368 58.7819H263.62L282.898 3.45587V1.81787H267.592L253.804 41.4359H253.81Z" fill="#9599A6"/>
<path d="M218.836 1.81787H202.924V58.7759H218.836V1.81787Z" fill="#9599A6"/>
<path fill-rule="evenodd" clip-rule="evenodd" d="M330.166 1.81215H330.178L316.39 41.4422H315.34L301.678 1.81815H285.676V3.46815L306.61 63.5762H286.786V76.7702H306.16C314.434 76.7702 320.878 73.9802 324.004 65.0762C324.424 63.8882 345.472 3.45615 345.472 3.45615V1.80615H330.166V1.81215Z" fill="#9599A6"/>
<path fill-rule="evenodd" clip-rule="evenodd" d="M121.833 0.27002C114.597 0.27002 107.835 3.95402 103.617 10.878H102.639V1.87802H87.4707V76.752H103.587V51.528H104.577C104.685 51.678 104.793 51.834 104.901 51.96C107.619 55.266 113.967 60.306 121.863 60.306C136.233 60.306 146.061 47.886 146.061 30.294C146.061 12.702 135.747 0.27002 121.833 0.27002ZM117.021 47.958C109.521 47.958 104.343 42.114 104.343 30.3C104.343 18.486 109.521 12.642 117.021 12.642C124.521 12.642 129.951 18.612 129.951 30.3C129.951 41.988 124.647 47.958 117.021 47.958Z" fill="#9599A6"/>
<path fill-rule="evenodd" clip-rule="evenodd" d="M186.034 1.81201C178.564 1.81201 173.77 3.06001 170.968 10.878H170.007V1.81801H146.938V14.898H152.086C153.784 14.898 154.618 15.498 154.834 16.89V27.762H154.893V58.782H171.01V28.566C171.01 20.742 173.133 15.948 180.957 15.948H197.842V1.81201H186.04H186.034Z" fill="#9599A6"/>
<path d="M30.5313 60.2881C47.0973 60.2881 60.5313 46.8541 60.5313 30.2881C60.5313 13.7221 47.0973 0.288086 30.5313 0.288086C13.9653 0.288086 0.53125 13.7221 0.53125 30.2881C0.53125 46.8541 13.9653 60.2881 30.5313 60.2881Z" fill="#9599A6"/>
<path d="M30.5313 77.73C41.8533 77.73 51.0333 75.798 51.0333 73.428C51.0333 71.058 41.8593 69.126 30.5313 69.126C19.2033 69.126 10.0293 71.058 10.0293 73.428C10.0293 75.798 19.2033 77.73 30.5313 77.73Z" fill="#9599A6"/>
</svg>
