<svg width="285" height="72" viewBox="0 0 285 72" fill="none" xmlns="http://www.w3.org/2000/svg">
<g clip-path="url(#clip0_3032_564)">
<path d="M6.37891 35.5684V71.0684H41.8789H77.3789V35.5684V0.0683517H41.8789H6.37891V35.5684ZM53.9489 21.2796V23.6936L56.8954 23.6759C58.5107 23.6581 59.8597 23.6759 59.8952 23.7114C59.9129 23.7291 59.6822 24.7941 59.3627 26.0721L58.7947 28.3796L58.1379 28.4329L57.4989 28.4861V37.9824L57.5167 47.4609L57.9604 47.5674C58.5107 47.7094 58.7414 48.1354 58.7414 49.0584C58.7414 49.6619 58.8124 49.8039 59.1674 49.9459C59.7709 50.1589 60.0194 50.7091 59.9484 51.5966L59.8952 52.3421L53.9134 52.3954L47.9139 52.4309V51.6144C47.9139 50.6736 48.1447 50.1589 48.6772 49.9636C48.9434 49.8571 49.0677 49.6619 49.0854 49.2181C49.1032 48.8809 49.1209 48.4726 49.1387 48.2951C49.1564 48.1176 49.3872 47.8336 49.6889 47.6739L50.2214 47.3721V41.9229C50.2214 35.7991 50.1327 35.2311 48.9257 33.4029C47.2749 30.9356 44.9319 29.6754 41.9677 29.6931C40.1039 29.6931 38.9147 30.0481 37.3527 31.0954C35.6309 32.2669 34.4594 33.9531 33.9802 35.9589C33.6607 37.3256 33.5897 47.4609 33.8914 47.4609C33.9979 47.4609 34.2819 47.6561 34.5127 47.9046C34.8499 48.2241 34.9564 48.5259 34.9564 49.1471C34.9564 49.7151 35.0274 49.9459 35.2049 49.9459C35.7374 49.9459 36.0214 50.4784 36.0214 51.4724V52.4309H30.0752H24.1289V51.4546C24.1289 50.5849 24.1822 50.4429 24.6614 50.0879C25.0874 49.7684 25.1939 49.5731 25.1939 49.0229C25.1939 48.3484 25.7974 47.4609 26.2589 47.4609C26.3832 47.4609 26.4364 44.4611 26.4364 37.9646V28.4684H25.8152C25.2649 28.4684 25.1939 28.4151 25.0342 27.7939C24.9277 27.4389 24.8389 27.0129 24.8389 26.8531C24.8389 26.6934 24.7324 26.2496 24.6082 25.8769C24.4662 25.4864 24.3064 24.8474 24.2354 24.4391L24.1289 23.6759L27.0044 23.6404L29.8977 23.5871L29.9509 21.2264L30.0042 18.8834H41.9677H53.9489V21.2796Z" fill="#ACA1B7"/>
</g>
<path d="M89.7404 32.6445V8.13834H99.4089C101.268 8.13834 102.851 8.49333 104.159 9.20331C105.468 9.90531 106.465 10.8825 107.151 12.135C107.845 13.3794 108.192 14.8153 108.192 16.4427C108.192 18.0701 107.841 19.506 107.139 20.7504C106.437 21.9949 105.42 22.9641 104.088 23.6581C102.763 24.3522 101.16 24.6992 99.2773 24.6992H93.1148V20.547H98.4397C99.4368 20.547 100.258 20.3755 100.905 20.0325C101.559 19.6815 102.045 19.1988 102.364 18.5846C102.692 17.9624 102.855 17.2484 102.855 16.4427C102.855 15.629 102.692 14.919 102.364 14.3128C102.045 13.6985 101.559 13.2239 100.905 12.8888C100.251 12.5458 99.4209 12.3743 98.4157 12.3743H94.9217V32.6445H89.7404ZM124.596 24.8188V14.2649H129.693V32.6445H124.799V29.306H124.608C124.193 30.383 123.503 31.2485 122.538 31.9026C121.58 32.5568 120.412 32.8838 119.032 32.8838C117.803 32.8838 116.722 32.6046 115.789 32.0462C114.856 31.4878 114.126 30.6941 113.599 29.665C113.081 28.636 112.817 27.4035 112.809 25.9676V14.2649H117.907V25.0581C117.915 26.1431 118.206 27.0006 118.78 27.6308C119.355 28.261 120.125 28.5761 121.09 28.5761C121.704 28.5761 122.278 28.4365 122.813 28.1573C123.347 27.8701 123.778 27.4473 124.105 26.8889C124.44 26.3305 124.604 25.6405 124.596 24.8188ZM135.119 32.6445V14.2649H140.06V17.4718H140.252C140.587 16.331 141.149 15.4695 141.939 14.8871C142.729 14.2968 143.638 14.0016 144.667 14.0016C144.923 14.0016 145.198 14.0176 145.493 14.0495C145.788 14.0814 146.047 14.1253 146.271 14.1811V18.7042C146.031 18.6324 145.7 18.5686 145.278 18.5128C144.855 18.4569 144.468 18.429 144.117 18.429C143.367 18.429 142.697 18.5926 142.107 18.9196C141.524 19.2387 141.062 19.6854 140.719 20.2598C140.384 20.8342 140.216 21.4963 140.216 22.2462V32.6445H135.119ZM150.254 39.5369V14.2649H155.28V17.3521H155.507C155.73 16.8575 156.054 16.3549 156.476 15.8444C156.907 15.3259 157.466 14.8951 158.152 14.5521C158.846 14.2011 159.707 14.0256 160.736 14.0256C162.076 14.0256 163.313 14.3766 164.446 15.0786C165.578 15.7726 166.484 16.8216 167.162 18.2256C167.84 19.6216 168.179 21.3726 168.179 23.4786C168.179 25.5288 167.848 27.2599 167.186 28.6718C166.532 30.0758 165.638 31.1408 164.505 31.8667C163.381 32.5847 162.12 32.9437 160.724 32.9437C159.735 32.9437 158.893 32.7801 158.199 32.4531C157.513 32.126 156.951 31.7152 156.512 31.2206C156.074 30.718 155.738 30.2115 155.507 29.7009H155.352V39.5369H150.254ZM155.244 23.4547C155.244 24.5476 155.395 25.5009 155.699 26.3146C156.002 27.1282 156.44 27.7624 157.015 28.2171C157.589 28.6639 158.287 28.8872 159.109 28.8872C159.939 28.8872 160.641 28.6599 161.215 28.2052C161.789 27.7425 162.224 27.1043 162.519 26.2906C162.822 25.469 162.974 24.5237 162.974 23.4547C162.974 22.3937 162.826 21.4604 162.531 20.6547C162.236 19.849 161.801 19.2188 161.227 18.7641C160.652 18.3094 159.946 18.082 159.109 18.082C158.279 18.082 157.577 18.3014 157.003 18.7401C156.436 19.1789 156.002 19.8011 155.699 20.6068C155.395 21.4125 155.244 22.3618 155.244 23.4547ZM178.023 8.13834V32.6445H172.925V8.13834H178.023ZM191.83 33.0035C189.939 33.0035 188.312 32.6206 186.948 31.8548C185.592 31.081 184.547 29.9881 183.813 28.5761C183.079 27.1562 182.712 25.4769 182.712 23.5385C182.712 21.6479 183.079 19.9886 183.813 18.5607C184.547 17.1327 185.58 16.0199 186.912 15.2222C188.252 14.4244 189.824 14.0256 191.627 14.0256C192.839 14.0256 193.968 14.221 195.013 14.6119C196.066 14.9948 196.983 15.5732 197.765 16.347C198.555 17.1208 199.169 18.094 199.608 19.2666C200.047 20.4313 200.266 21.7954 200.266 23.359V24.759H184.746V21.6H195.468C195.468 20.8661 195.308 20.2159 194.989 19.6496C194.67 19.0832 194.227 18.6404 193.661 18.3213C193.102 17.9943 192.452 17.8307 191.71 17.8307C190.937 17.8307 190.251 18.0102 189.652 18.3692C189.062 18.7202 188.599 19.1948 188.264 19.7931C187.929 20.3835 187.758 21.0416 187.75 21.7675V24.771C187.75 25.6804 187.917 26.4661 188.252 27.1282C188.595 27.7904 189.078 28.3009 189.7 28.6599C190.322 29.0189 191.06 29.1983 191.914 29.1983C192.48 29.1983 192.999 29.1186 193.469 28.959C193.94 28.7995 194.343 28.5602 194.678 28.2411C195.013 27.922 195.268 27.5311 195.444 27.0684L200.158 27.3795C199.919 28.5123 199.428 29.5015 198.686 30.3471C197.953 31.1847 197.003 31.8388 195.839 32.3095C194.682 32.7722 193.346 33.0035 191.83 33.0035ZM213.723 32.6445H205.036V8.13834H213.795C216.26 8.13834 218.382 8.62895 220.161 9.61015C221.94 10.5834 223.308 11.9834 224.265 13.8102C225.231 15.637 225.713 17.8228 225.713 20.3675C225.713 22.9202 225.231 25.114 224.265 26.9488C223.308 28.7835 221.932 30.1915 220.137 31.1727C218.35 32.1539 216.212 32.6445 213.723 32.6445ZM210.217 28.2052H213.508C215.04 28.2052 216.328 27.934 217.373 27.3915C218.426 26.8411 219.216 25.9915 219.742 24.8428C220.277 23.6861 220.544 22.1943 220.544 20.3675C220.544 18.5567 220.277 17.0769 219.742 15.9282C219.216 14.7794 218.43 13.9338 217.385 13.3914C216.34 12.8489 215.052 12.5777 213.52 12.5777H210.217V28.2052ZM233.741 32.6445H228.189L236.649 8.13834H243.326L251.774 32.6445H246.221L240.083 13.7384H239.891L233.741 32.6445ZM233.394 23.012H246.509V27.0565H233.394V23.012ZM277.439 20.3914C277.439 23.0638 276.933 25.3373 275.92 27.212C274.914 29.0867 273.542 30.5186 271.803 31.5078C270.072 32.489 268.126 32.9796 265.964 32.9796C263.786 32.9796 261.832 32.485 260.101 31.4958C258.37 30.5066 257.001 29.0747 255.996 27.2C254.991 25.3254 254.489 23.0558 254.489 20.3914C254.489 17.7191 254.991 15.4455 255.996 13.5709C257.001 11.6962 258.37 10.2683 260.101 9.28707C261.832 8.29789 263.786 7.8033 265.964 7.8033C268.126 7.8033 270.072 8.29789 271.803 9.28707C273.542 10.2683 274.914 11.6962 275.92 13.5709C276.933 15.4455 277.439 17.7191 277.439 20.3914ZM272.186 20.3914C272.186 18.6604 271.927 17.2005 271.408 16.0119C270.898 14.8233 270.176 13.9219 269.243 13.3076C268.309 12.6934 267.216 12.3862 265.964 12.3862C264.711 12.3862 263.619 12.6934 262.685 13.3076C261.752 13.9219 261.026 14.8233 260.507 16.0119C259.997 17.2005 259.742 18.6604 259.742 20.3914C259.742 22.1225 259.997 23.5823 260.507 24.771C261.026 25.9596 261.752 26.861 262.685 27.4753C263.619 28.0895 264.711 28.3966 265.964 28.3966C267.216 28.3966 268.309 28.0895 269.243 27.4753C270.176 26.861 270.898 25.9596 271.408 24.771C271.927 23.5823 272.186 22.1225 272.186 20.3914Z" fill="#ACA1B7"/>
<path d="M89.6072 63.4927V49.8781H97.4847V50.9949H90.8503V56.1203H96.8665V57.2372H90.8503V63.4927H89.6072ZM103.182 63.7253C102.566 63.7253 102.003 63.6057 101.493 63.3664C100.984 63.1226 100.578 62.7725 100.277 62.316C99.9754 61.8551 99.8247 61.2967 99.8247 60.6408C99.8247 60.1356 99.92 59.7101 100.111 59.3644C100.301 59.0188 100.571 58.7351 100.922 58.5135C101.272 58.2919 101.686 58.1169 102.165 57.9884C102.643 57.8598 103.171 57.7601 103.747 57.6892C104.319 57.6183 104.802 57.5563 105.196 57.5031C105.595 57.4499 105.899 57.3657 106.107 57.2505C106.315 57.1352 106.419 56.9491 106.419 56.692V56.4527C106.419 55.7569 106.211 55.2096 105.794 54.8107C105.382 54.4074 104.788 54.2058 104.013 54.2058C103.277 54.2058 102.677 54.3676 102.211 54.6911C101.75 55.0146 101.427 55.3957 101.241 55.8345L100.117 55.429C100.348 54.8706 100.667 54.4252 101.074 54.0928C101.482 53.756 101.939 53.5144 102.444 53.3682C102.949 53.2175 103.461 53.1422 103.98 53.1422C104.37 53.1422 104.775 53.1931 105.196 53.2951C105.622 53.397 106.016 53.5743 106.379 53.8269C106.743 54.0751 107.037 54.423 107.264 54.8706C107.49 55.3138 107.603 55.8766 107.603 56.5591V63.4927H106.419V61.8773H106.346C106.204 62.1786 105.994 62.4711 105.715 62.7548C105.435 63.0384 105.085 63.2711 104.664 63.4528C104.243 63.6345 103.749 63.7253 103.182 63.7253ZM103.341 62.6418C103.971 62.6418 104.516 62.5022 104.977 62.223C105.438 61.9438 105.792 61.5737 106.04 61.1128C106.293 60.6474 106.419 60.1356 106.419 59.5772V58.1014C106.331 58.1856 106.182 58.2609 105.974 58.3274C105.77 58.3939 105.533 58.4537 105.263 58.5069C104.997 58.5556 104.731 58.5977 104.465 58.6332C104.199 58.6686 103.96 58.6997 103.747 58.7263C103.171 58.7972 102.679 58.908 102.271 59.0586C101.863 59.2093 101.551 59.4176 101.334 59.6835C101.117 59.945 101.008 60.2818 101.008 60.694C101.008 61.3144 101.23 61.7953 101.673 62.1365C102.116 62.4734 102.672 62.6418 103.341 62.6418ZM110.75 63.4927V53.2818H111.9V54.8506H111.987C112.191 54.3365 112.545 53.9222 113.05 53.6075C113.56 53.2884 114.136 53.1289 114.779 53.1289C114.876 53.1289 114.985 53.1311 115.105 53.1355C115.224 53.1399 115.324 53.1444 115.404 53.1488V54.352C115.35 54.3432 115.257 54.3299 115.124 54.3122C114.992 54.2944 114.847 54.2856 114.692 54.2856C114.161 54.2856 113.686 54.3986 113.27 54.6246C112.858 54.8462 112.532 55.1542 112.293 55.5486C112.053 55.9431 111.934 56.3929 111.934 56.8981V63.4927H110.75ZM121.101 63.7054C120.188 63.7054 119.392 63.4772 118.714 63.0207C118.041 62.5642 117.518 61.9393 117.145 61.146C116.773 60.3527 116.587 59.4486 116.587 58.4338C116.587 57.41 116.775 56.4993 117.152 55.7015C117.533 54.9038 118.061 54.2789 118.734 53.8269C119.408 53.3704 120.19 53.1422 121.081 53.1422C121.763 53.1422 122.382 53.2751 122.936 53.541C123.49 53.8025 123.946 54.1726 124.305 54.6512C124.668 55.1254 124.897 55.6794 124.99 56.3131H123.793C123.669 55.737 123.37 55.2451 122.896 54.8373C122.426 54.4252 121.828 54.2191 121.101 54.2191C120.449 54.2191 119.873 54.3964 119.372 54.7509C118.872 55.101 118.479 55.5907 118.196 56.2201C117.917 56.8449 117.777 57.5695 117.777 58.3939C117.777 59.2226 117.914 59.9561 118.189 60.5943C118.464 61.228 118.849 61.7244 119.346 62.0834C119.847 62.4423 120.432 62.6218 121.101 62.6218C121.553 62.6218 121.965 62.5376 122.337 62.3692C122.714 62.1964 123.029 61.9526 123.281 61.638C123.538 61.3233 123.711 60.9488 123.8 60.5145H124.996C124.908 61.1305 124.688 61.6801 124.338 62.1631C123.993 62.6418 123.543 63.0185 122.989 63.2932C122.439 63.568 121.81 63.7054 121.101 63.7054ZM130.384 63.7253C129.768 63.7253 129.205 63.6057 128.696 63.3664C128.186 63.1226 127.781 62.7725 127.479 62.316C127.178 61.8551 127.027 61.2967 127.027 60.6408C127.027 60.1356 127.123 59.7101 127.313 59.3644C127.504 59.0188 127.774 58.7351 128.124 58.5135C128.474 58.2919 128.889 58.1169 129.367 57.9884C129.846 57.8598 130.373 57.7601 130.949 57.6892C131.521 57.6183 132.004 57.5563 132.399 57.5031C132.797 57.4499 133.101 57.3657 133.309 57.2505C133.518 57.1352 133.622 56.9491 133.622 56.692V56.4527C133.622 55.7569 133.413 55.2096 132.997 54.8107C132.585 54.4074 131.991 54.2058 131.215 54.2058C130.48 54.2058 129.879 54.3676 129.414 54.6911C128.953 55.0146 128.629 55.3957 128.443 55.8345L127.32 55.429C127.55 54.8706 127.869 54.4252 128.277 54.0928C128.685 53.756 129.141 53.5144 129.646 53.3682C130.152 53.2175 130.664 53.1422 131.182 53.1422C131.572 53.1422 131.978 53.1931 132.399 53.2951C132.824 53.397 133.218 53.5743 133.582 53.8269C133.945 54.0751 134.24 54.423 134.466 54.8706C134.692 55.3138 134.805 55.8766 134.805 56.5591V63.4927H133.622V61.8773H133.549C133.407 62.1786 133.196 62.4711 132.917 62.7548C132.638 63.0384 132.288 63.2711 131.867 63.4528C131.446 63.6345 130.952 63.7253 130.384 63.7253ZM130.544 62.6418C131.173 62.6418 131.718 62.5022 132.179 62.223C132.64 61.9438 132.995 61.5737 133.243 61.1128C133.495 60.6474 133.622 60.1356 133.622 59.5772V58.1014C133.533 58.1856 133.385 58.2609 133.176 58.3274C132.973 58.3939 132.735 58.4537 132.465 58.5069C132.199 58.5556 131.933 58.5977 131.667 58.6332C131.401 58.6686 131.162 58.6997 130.949 58.7263C130.373 58.7972 129.881 58.908 129.474 59.0586C129.066 59.2093 128.753 59.4176 128.536 59.6835C128.319 59.945 128.211 60.2818 128.211 60.694C128.211 61.3144 128.432 61.7953 128.875 62.1365C129.318 62.4734 129.875 62.6418 130.544 62.6418ZM144.813 55.522L143.73 55.8278C143.623 55.522 143.473 55.2451 143.278 54.9969C143.083 54.7487 142.828 54.5515 142.513 54.4052C142.203 54.259 141.817 54.1859 141.356 54.1859C140.665 54.1859 140.098 54.3498 139.655 54.6778C139.211 55.0057 138.99 55.429 138.99 55.9475C138.99 56.3863 139.14 56.743 139.442 57.0178C139.748 57.2881 140.217 57.5031 140.851 57.6626L142.393 58.0415C143.249 58.2498 143.889 58.58 144.315 59.0321C144.745 59.4841 144.959 60.0514 144.959 60.7339C144.959 61.31 144.8 61.8219 144.481 62.2695C144.162 62.7171 143.716 63.0694 143.145 63.3265C142.577 63.5791 141.919 63.7054 141.17 63.7054C140.173 63.7054 139.351 63.4816 138.704 63.034C138.057 62.5819 137.643 61.9305 137.461 61.0796L138.598 60.8003C138.744 61.4075 139.03 61.8662 139.455 62.1764C139.885 62.4867 140.45 62.6418 141.15 62.6418C141.935 62.6418 142.562 62.4667 143.032 62.1166C143.501 61.7621 143.736 61.3189 143.736 60.7871C143.736 60.3749 143.599 60.0292 143.324 59.75C143.049 59.4664 142.633 59.2581 142.074 59.1251L140.406 58.7263C139.519 58.5135 138.863 58.1767 138.438 57.7158C138.013 57.2549 137.8 56.6832 137.8 56.0007C137.8 55.4378 137.953 54.9437 138.259 54.5182C138.564 54.0884 138.985 53.7515 139.522 53.5078C140.058 53.264 140.669 53.1422 141.356 53.1422C142.292 53.1422 143.038 53.3549 143.597 53.7803C144.16 54.2014 144.565 54.7819 144.813 55.522ZM151.572 53.2818V54.3122H146.7V53.2818H151.572ZM148.222 50.8354H149.412V60.8269C149.412 61.2524 149.485 61.587 149.631 61.8307C149.777 62.0701 149.968 62.2407 150.203 62.3426C150.438 62.4401 150.688 62.4889 150.954 62.4889C151.109 62.4889 151.242 62.48 151.353 62.4623C151.464 62.4401 151.561 62.418 151.645 62.3958L151.898 63.4661C151.783 63.5104 151.641 63.5503 151.473 63.5857C151.304 63.6256 151.096 63.6456 150.848 63.6456C150.413 63.6456 149.995 63.5503 149.591 63.3597C149.192 63.1692 148.864 62.8855 148.607 62.5088C148.35 62.1321 148.222 61.6646 148.222 61.1061V50.8354ZM158.278 63.7054C157.325 63.7054 156.501 63.4838 155.805 63.0406C155.109 62.593 154.571 61.9748 154.19 61.1859C153.813 60.3926 153.625 59.4797 153.625 58.447C153.625 57.4189 153.813 56.5059 154.19 55.7082C154.571 54.906 155.096 54.2789 155.765 53.8269C156.439 53.3704 157.217 53.1422 158.099 53.1422C158.653 53.1422 159.187 53.2441 159.701 53.448C160.215 53.6474 160.676 53.9554 161.084 54.372C161.496 54.7842 161.821 55.3049 162.061 55.9342C162.3 56.5591 162.42 57.2992 162.42 58.1545V58.7395H154.442V57.6959H161.21C161.21 57.0399 161.077 56.4505 160.811 55.9276C160.549 55.4002 160.184 54.9836 159.714 54.6778C159.249 54.372 158.71 54.2191 158.099 54.2191C157.452 54.2191 156.882 54.3919 156.39 54.7376C155.898 55.0833 155.513 55.5398 155.234 56.107C154.959 56.6743 154.819 57.2948 154.815 57.9684V58.5933C154.815 59.4043 154.954 60.1134 155.234 60.7206C155.517 61.3233 155.918 61.7909 156.437 62.1232C156.955 62.4556 157.569 62.6218 158.278 62.6218C158.761 62.6218 159.184 62.5465 159.548 62.3958C159.916 62.2451 160.224 62.0435 160.472 61.7909C160.725 61.5338 160.915 61.2524 161.044 60.9466L162.167 61.3122C162.012 61.7421 161.757 62.1388 161.403 62.5022C161.053 62.8656 160.614 63.1581 160.086 63.3797C159.563 63.5968 158.961 63.7054 158.278 63.7054ZM165.027 63.4927V53.2818H166.177V54.8506H166.264C166.468 54.3365 166.822 53.9222 167.327 53.6075C167.837 53.2884 168.413 53.1289 169.056 53.1289C169.153 53.1289 169.262 53.1311 169.382 53.1355C169.501 53.1399 169.601 53.1444 169.681 53.1488V54.352C169.628 54.3432 169.534 54.3299 169.402 54.3122C169.269 54.2944 169.125 54.2856 168.969 54.2856C168.438 54.2856 167.963 54.3986 167.547 54.6246C167.135 54.8462 166.809 55.1542 166.57 55.5486C166.33 55.9431 166.211 56.3929 166.211 56.8981V63.4927H165.027ZM177.211 63.4927V49.8781H185.108V50.9949H178.454V56.1203H184.69V57.2372H178.454V62.3759H185.241V63.4927H177.211ZM192.069 63.7054C191.156 63.7054 190.36 63.4772 189.682 63.0207C189.008 62.5642 188.485 61.9393 188.113 61.146C187.741 60.3527 187.555 59.4486 187.555 58.4338C187.555 57.41 187.743 56.4993 188.12 55.7015C188.501 54.9038 189.028 54.2789 189.702 53.8269C190.376 53.3704 191.158 53.1422 192.049 53.1422C192.731 53.1422 193.349 53.2751 193.903 53.541C194.457 53.8025 194.914 54.1726 195.273 54.6512C195.636 55.1254 195.864 55.6794 195.958 56.3131H194.761C194.637 55.737 194.338 55.2451 193.863 54.8373C193.394 54.4252 192.795 54.2191 192.069 54.2191C191.417 54.2191 190.841 54.3964 190.34 54.7509C189.839 55.101 189.447 55.5907 189.164 56.2201C188.884 56.8449 188.745 57.5695 188.745 58.3939C188.745 59.2226 188.882 59.9561 189.157 60.5943C189.432 61.228 189.817 61.7244 190.314 62.0834C190.814 62.4423 191.399 62.6218 192.069 62.6218C192.521 62.6218 192.933 62.5376 193.305 62.3692C193.682 62.1964 193.996 61.9526 194.249 61.638C194.506 61.3233 194.679 60.9488 194.768 60.5145H195.964C195.876 61.1305 195.656 61.6801 195.306 62.1631C194.96 62.6418 194.511 63.0185 193.957 63.2932C193.407 63.568 192.778 63.7054 192.069 63.7054ZM202.469 63.7054C201.587 63.7054 200.807 63.4816 200.129 63.034C199.455 62.5864 198.928 61.9681 198.547 61.1793C198.166 60.386 197.975 59.4708 197.975 58.4338C197.975 57.3878 198.166 56.4682 198.547 55.6749C198.928 54.8772 199.455 54.2568 200.129 53.8136C200.807 53.366 201.587 53.1422 202.469 53.1422C203.351 53.1422 204.129 53.366 204.802 53.8136C205.476 54.2612 206.003 54.8817 206.384 55.6749C206.77 56.4682 206.963 57.3878 206.963 58.4338C206.963 59.4708 206.772 60.386 206.391 61.1793C206.01 61.9681 205.48 62.5864 204.802 63.034C204.129 63.4816 203.351 63.7054 202.469 63.7054ZM202.469 62.6218C203.178 62.6218 203.779 62.4313 204.27 62.0501C204.762 61.669 205.135 61.1615 205.387 60.5278C205.644 59.894 205.773 59.196 205.773 58.4338C205.773 57.6715 205.644 56.9713 205.387 56.3331C205.135 55.6949 204.762 55.183 204.27 54.7974C203.779 54.4119 203.178 54.2191 202.469 54.2191C201.764 54.2191 201.164 54.4119 200.667 54.7974C200.175 55.183 199.801 55.6949 199.544 56.3331C199.291 56.9713 199.165 57.6715 199.165 58.4338C199.165 59.196 199.291 59.894 199.544 60.5278C199.801 61.1615 200.175 61.669 200.667 62.0501C201.159 62.4313 201.76 62.6218 202.469 62.6218ZM216.421 55.522L215.337 55.8278C215.231 55.522 215.08 55.2451 214.885 54.9969C214.69 54.7487 214.435 54.5515 214.121 54.4052C213.811 54.259 213.425 54.1859 212.964 54.1859C212.273 54.1859 211.705 54.3498 211.262 54.6778C210.819 55.0057 210.597 55.429 210.597 55.9475C210.597 56.3863 210.748 56.743 211.05 57.0178C211.355 57.2881 211.825 57.5031 212.459 57.6626L214.001 58.0415C214.856 58.2498 215.497 58.58 215.922 59.0321C216.352 59.4841 216.567 60.0514 216.567 60.7339C216.567 61.31 216.408 61.8219 216.088 62.2695C215.769 62.7171 215.324 63.0694 214.752 63.3265C214.185 63.5791 213.527 63.7054 212.778 63.7054C211.781 63.7054 210.959 63.4816 210.312 63.034C209.665 62.5819 209.25 61.9305 209.068 61.0796L210.205 60.8003C210.352 61.4075 210.637 61.8662 211.063 62.1764C211.493 62.4867 212.058 62.6418 212.758 62.6418C213.542 62.6418 214.17 62.4667 214.639 62.1166C215.109 61.7621 215.344 61.3189 215.344 60.7871C215.344 60.3749 215.207 60.0292 214.932 59.75C214.657 59.4664 214.24 59.2581 213.682 59.1251L212.013 58.7263C211.127 58.5135 210.471 58.1767 210.046 57.7158C209.62 57.2549 209.408 56.6832 209.408 56.0007C209.408 55.4378 209.56 54.9437 209.866 54.5182C210.172 54.0884 210.593 53.7515 211.129 53.5078C211.666 53.264 212.277 53.1422 212.964 53.1422C213.899 53.1422 214.646 53.3549 215.204 53.7803C215.767 54.2014 216.173 54.7819 216.421 55.522ZM219.982 67.3218C219.748 67.3218 219.528 67.2996 219.324 67.2553C219.12 67.211 218.959 67.1622 218.839 67.109L219.158 66.0653C219.561 66.1894 219.92 66.2338 220.235 66.1983C220.55 66.1673 220.829 66.0255 221.073 65.7728C221.316 65.5247 221.534 65.1435 221.724 64.6294L222.096 63.5924L218.34 53.2818H219.623L222.655 61.9305H222.748L225.779 53.2818H227.062L222.741 65.1081C222.559 65.6 222.336 66.0099 222.07 66.3379C221.804 66.6703 221.496 66.9163 221.146 67.0758C220.8 67.2398 220.412 67.3218 219.982 67.3218ZM236.238 55.522L235.154 55.8278C235.048 55.522 234.897 55.2451 234.702 54.9969C234.507 54.7487 234.252 54.5515 233.938 54.4052C233.627 54.259 233.242 54.1859 232.781 54.1859C232.09 54.1859 231.522 54.3498 231.079 54.6778C230.636 55.0057 230.414 55.429 230.414 55.9475C230.414 56.3863 230.565 56.743 230.866 57.0178C231.172 57.2881 231.642 57.5031 232.276 57.6626L233.818 58.0415C234.673 58.2498 235.314 58.58 235.739 59.0321C236.169 59.4841 236.384 60.0514 236.384 60.7339C236.384 61.31 236.224 61.8219 235.905 62.2695C235.586 62.7171 235.141 63.0694 234.569 63.3265C234.002 63.5791 233.344 63.7054 232.595 63.7054C231.598 63.7054 230.776 63.4816 230.129 63.034C229.481 62.5819 229.067 61.9305 228.885 61.0796L230.022 60.8003C230.168 61.4075 230.454 61.8662 230.88 62.1764C231.31 62.4867 231.875 62.6418 232.575 62.6418C233.359 62.6418 233.986 62.4667 234.456 62.1166C234.926 61.7621 235.161 61.3189 235.161 60.7871C235.161 60.3749 235.023 60.0292 234.749 59.75C234.474 59.4664 234.057 59.2581 233.499 59.1251L231.83 58.7263C230.944 58.5135 230.288 58.1767 229.863 57.7158C229.437 57.2549 229.224 56.6832 229.224 56.0007C229.224 55.4378 229.377 54.9437 229.683 54.5182C229.989 54.0884 230.41 53.7515 230.946 53.5078C231.482 53.264 232.094 53.1422 232.781 53.1422C233.716 53.1422 234.463 53.3549 235.021 53.7803C235.584 54.2014 235.99 54.7819 236.238 55.522ZM242.997 53.2818V54.3122H238.124V53.2818H242.997ZM239.646 50.8354H240.836V60.8269C240.836 61.2524 240.909 61.587 241.056 61.8307C241.202 62.0701 241.393 62.2407 241.627 62.3426C241.862 62.4401 242.113 62.4889 242.379 62.4889C242.534 62.4889 242.667 62.48 242.777 62.4623C242.888 62.4401 242.986 62.418 243.07 62.3958L243.323 63.4661C243.207 63.5104 243.066 63.5503 242.897 63.5857C242.729 63.6256 242.52 63.6456 242.272 63.6456C241.838 63.6456 241.419 63.5503 241.016 63.3597C240.617 63.1692 240.289 62.8855 240.032 62.5088C239.775 62.1321 239.646 61.6646 239.646 61.1061V50.8354ZM249.703 63.7054C248.75 63.7054 247.926 63.4838 247.23 63.0406C246.534 62.593 245.996 61.9748 245.614 61.1859C245.238 60.3926 245.049 59.4797 245.049 58.447C245.049 57.4189 245.238 56.5059 245.614 55.7082C245.996 54.906 246.521 54.2789 247.19 53.8269C247.864 53.3704 248.641 53.1422 249.523 53.1422C250.077 53.1422 250.611 53.2441 251.125 53.448C251.639 53.6474 252.1 53.9554 252.508 54.372C252.92 54.7842 253.246 55.3049 253.485 55.9342C253.725 56.5591 253.844 57.2992 253.844 58.1545V58.7395H245.867V57.6959H252.634C252.634 57.0399 252.501 56.4505 252.236 55.9276C251.974 55.4002 251.608 54.9836 251.139 54.6778C250.673 54.372 250.135 54.2191 249.523 54.2191C248.876 54.2191 248.307 54.3919 247.815 54.7376C247.323 55.0833 246.937 55.5398 246.658 56.107C246.383 56.6743 246.244 57.2948 246.239 57.9684V58.5933C246.239 59.4043 246.379 60.1134 246.658 60.7206C246.942 61.3233 247.343 61.7909 247.861 62.1232C248.38 62.4556 248.994 62.6218 249.703 62.6218C250.186 62.6218 250.609 62.5465 250.972 62.3958C251.34 62.2451 251.648 62.0435 251.896 61.7909C252.149 61.5338 252.34 61.2524 252.468 60.9466L253.592 61.3122C253.437 61.7421 253.182 62.1388 252.827 62.5022C252.477 62.8656 252.038 63.1581 251.511 63.3797C250.988 63.5968 250.385 63.7054 249.703 63.7054ZM256.452 63.4927V53.2818H257.602V54.8506H257.708C257.912 54.3232 258.251 53.9089 258.725 53.6075C259.204 53.3017 259.778 53.1488 260.447 53.1488C261.152 53.1488 261.73 53.315 262.182 53.6474C262.639 53.9753 262.98 54.4274 263.206 55.0035H263.292C263.523 54.4363 263.897 53.9864 264.416 53.654C264.939 53.3172 265.573 53.1488 266.317 53.1488C267.265 53.1488 268.014 53.448 268.564 54.0463C269.114 54.6401 269.388 55.5088 269.388 56.6522V63.4927H268.205V56.6522C268.205 55.8456 267.999 55.2406 267.587 54.8373C267.175 54.434 266.632 54.2324 265.958 54.2324C265.178 54.2324 264.578 54.4717 264.157 54.9503C263.736 55.429 263.525 56.0361 263.525 56.7718V63.4927H262.315V56.5458C262.315 55.8544 262.122 55.296 261.737 54.8706C261.351 54.4451 260.808 54.2324 260.108 54.2324C259.638 54.2324 259.215 54.3476 258.838 54.5781C258.466 54.8085 258.171 55.1298 257.954 55.542C257.741 55.9497 257.635 56.4195 257.635 56.9513V63.4927H256.452Z" fill="#ACA1B7"/>
<defs>
<clipPath id="clip0_3032_564">
<rect x="6.37891" y="0.0683594" width="71" height="71" rx="10" fill="white"/>
</clipPath>
</defs>
</svg>
