<svg width="152" height="38" viewBox="0 0 152 38" fill="none" xmlns="http://www.w3.org/2000/svg">
<rect x="0.824219" width="38" height="38" rx="19" fill="#ACA1B7"/>
<path d="M50.3037 17.5V4.40909H55.4685C56.4614 4.40909 57.3072 4.59872 58.0061 4.97798C58.705 5.35298 59.2376 5.875 59.6041 6.54403C59.9748 7.20881 60.1602 7.97585 60.1602 8.84517C60.1602 9.71449 59.9727 10.4815 59.5977 11.1463C59.2227 11.8111 58.6794 12.3288 57.9677 12.6996C57.2604 13.0703 56.4038 13.2557 55.3981 13.2557H52.1062V11.0376H54.9507C55.4834 11.0376 55.9223 10.946 56.2675 10.7628C56.6169 10.5753 56.8768 10.3175 57.0473 9.98935C57.222 9.65696 57.3094 9.27557 57.3094 8.84517C57.3094 8.41051 57.222 8.03125 57.0473 7.70739C56.8768 7.37926 56.6169 7.12571 56.2675 6.94673C55.918 6.76349 55.4748 6.67188 54.9379 6.67188H53.0714V17.5H50.3037ZM68.923 13.3196V7.68182H71.646V17.5H69.0317V15.7166H68.9294C68.7078 16.2919 68.3392 16.7543 67.8236 17.1037C67.3122 17.4531 66.6879 17.6278 65.9507 17.6278C65.2945 17.6278 64.717 17.4787 64.2185 17.1804C63.7199 16.8821 63.33 16.4581 63.0487 15.9084C62.7717 15.3587 62.6311 14.7003 62.6268 13.9332V7.68182H65.3499V13.4474C65.3541 14.027 65.5097 14.4851 65.8165 14.8217C66.1233 15.1584 66.5345 15.3267 67.0501 15.3267C67.3783 15.3267 67.6851 15.2521 67.9706 15.103C68.2561 14.9496 68.4862 14.7237 68.6609 14.4254C68.8399 14.1271 68.9273 13.7585 68.923 13.3196ZM74.5441 17.5V7.68182H77.184V9.39489H77.2863C77.4653 8.78551 77.7657 8.32528 78.1876 8.0142C78.6094 7.69886 79.0952 7.54119 79.645 7.54119C79.7813 7.54119 79.9283 7.54972 80.086 7.56676C80.2437 7.58381 80.3822 7.60724 80.5015 7.63707V10.0533C80.3737 10.0149 80.1968 9.98082 79.971 9.95099C79.7451 9.92116 79.5384 9.90625 79.3509 9.90625C78.9504 9.90625 78.5924 9.99361 78.2771 10.1683C77.966 10.3388 77.7188 10.5774 77.5356 10.8842C77.3566 11.1911 77.2671 11.5447 77.2671 11.9453V17.5H74.5441ZM82.6293 21.1818V7.68182H85.314V9.33097H85.4355C85.5548 9.06676 85.7274 8.7983 85.9532 8.52557C86.1833 8.24858 86.4816 8.01847 86.8481 7.83523C87.2188 7.64773 87.6791 7.55398 88.2288 7.55398C88.9447 7.55398 89.6052 7.74148 90.2103 8.11648C90.8154 8.48722 91.2991 9.04759 91.6613 9.79759C92.0235 10.5433 92.2046 11.4787 92.2046 12.6037C92.2046 13.6989 92.0278 14.6236 91.6741 15.3778C91.3247 16.1278 90.8474 16.6967 90.2423 17.0845C89.6414 17.468 88.9681 17.6598 88.2224 17.6598C87.694 17.6598 87.2444 17.5724 86.8737 17.3977C86.5072 17.223 86.2068 17.0036 85.9724 16.7393C85.738 16.4709 85.559 16.2003 85.4355 15.9276H85.3524V21.1818H82.6293ZM85.2948 12.5909C85.2948 13.1747 85.3758 13.6839 85.5377 14.1186C85.6997 14.5533 85.934 14.892 86.2408 15.1349C86.5477 15.3736 86.9205 15.4929 87.3595 15.4929C87.8026 15.4929 88.1776 15.3714 88.4845 15.1286C88.7913 14.8814 89.0235 14.5405 89.1812 14.1058C89.3431 13.6669 89.4241 13.1619 89.4241 12.5909C89.4241 12.0241 89.3453 11.5256 89.1876 11.0952C89.0299 10.6648 88.7977 10.3281 88.4908 10.0852C88.184 9.84233 87.8069 9.72088 87.3595 9.72088C86.9163 9.72088 86.5413 9.83807 86.2345 10.0724C85.9319 10.3068 85.6997 10.6392 85.5377 11.0696C85.3758 11.5 85.2948 12.0071 85.2948 12.5909ZM97.463 4.40909V17.5H94.74V4.40909H97.463ZM104.839 17.6918C103.829 17.6918 102.959 17.4872 102.231 17.0781C101.506 16.6648 100.948 16.081 100.556 15.3267C100.164 14.5682 99.968 13.6712 99.968 12.6357C99.968 11.6257 100.164 10.7393 100.556 9.97656C100.948 9.21378 101.5 8.61932 102.212 8.19318C102.927 7.76705 103.767 7.55398 104.73 7.55398C105.378 7.55398 105.981 7.65838 106.539 7.86719C107.101 8.07173 107.592 8.38068 108.009 8.79403C108.431 9.20739 108.759 9.72727 108.994 10.3537C109.228 10.9759 109.345 11.7045 109.345 12.5398V13.2876H101.055V11.6001H106.782C106.782 11.2081 106.697 10.8608 106.526 10.5582C106.356 10.2557 106.119 10.0192 105.817 9.84872C105.518 9.67401 105.171 9.58665 104.775 9.58665C104.361 9.58665 103.995 9.68253 103.675 9.87429C103.36 10.0618 103.113 10.3153 102.934 10.6349C102.755 10.9503 102.663 11.3018 102.659 11.6896V13.294C102.659 13.7798 102.748 14.1996 102.927 14.5533C103.111 14.907 103.369 15.1797 103.701 15.3714C104.033 15.5632 104.427 15.6591 104.883 15.6591C105.186 15.6591 105.463 15.6165 105.714 15.5312C105.966 15.446 106.181 15.3182 106.36 15.1477C106.539 14.9773 106.675 14.7685 106.769 14.5213L109.288 14.6875C109.16 15.2926 108.898 15.821 108.501 16.2727C108.109 16.7202 107.602 17.0696 106.98 17.321C106.362 17.5682 105.648 17.6918 104.839 17.6918ZM116.534 17.5H111.893V4.40909H116.572C117.889 4.40909 119.022 4.67116 119.973 5.19531C120.923 5.7152 121.654 6.46307 122.165 7.43892C122.681 8.41477 122.939 9.58239 122.939 10.9418C122.939 12.3054 122.681 13.4773 122.165 14.4574C121.654 15.4375 120.919 16.1896 119.96 16.7138C119.005 17.2379 117.863 17.5 116.534 17.5ZM114.661 15.1286H116.419C117.237 15.1286 117.925 14.9837 118.483 14.6939C119.046 14.3999 119.468 13.946 119.749 13.3324C120.035 12.7145 120.177 11.9176 120.177 10.9418C120.177 9.97443 120.035 9.18395 119.749 8.57031C119.468 7.95668 119.048 7.50497 118.49 7.2152C117.932 6.92543 117.243 6.78054 116.425 6.78054H114.661V15.1286ZM127.227 17.5H124.261L128.78 4.40909H132.347L136.86 17.5H133.894L130.615 7.40057H130.513L127.227 17.5ZM127.042 12.3544H134.047V14.5149H127.042V12.3544ZM150.57 10.9545C150.57 12.3821 150.299 13.5966 149.758 14.598C149.221 15.5994 148.488 16.3643 147.559 16.8928C146.635 17.4169 145.595 17.679 144.44 17.679C143.277 17.679 142.233 17.4148 141.308 16.8864C140.383 16.358 139.652 15.593 139.116 14.5916C138.579 13.5902 138.31 12.3778 138.31 10.9545C138.31 9.52699 138.579 8.3125 139.116 7.31108C139.652 6.30966 140.383 5.54687 141.308 5.02273C142.233 4.49432 143.277 4.23011 144.44 4.23011C145.595 4.23011 146.635 4.49432 147.559 5.02273C148.488 5.54687 149.221 6.30966 149.758 7.31108C150.299 8.3125 150.57 9.52699 150.57 10.9545ZM147.764 10.9545C147.764 10.0298 147.625 9.25 147.348 8.61506C147.076 7.98011 146.69 7.49858 146.192 7.17045C145.693 6.84233 145.109 6.67827 144.44 6.67827C143.771 6.67827 143.187 6.84233 142.689 7.17045C142.19 7.49858 141.802 7.98011 141.525 8.61506C141.253 9.25 141.116 10.0298 141.116 10.9545C141.116 11.8793 141.253 12.6591 141.525 13.294C141.802 13.929 142.19 14.4105 142.689 14.7386C143.187 15.0668 143.771 15.2308 144.44 15.2308C145.109 15.2308 145.693 15.0668 146.192 14.7386C146.69 14.4105 147.076 13.929 147.348 13.294C147.625 12.6591 147.764 11.8793 147.764 10.9545Z" fill="#ACA1B7"/>
<path d="M49.8692 33.5V26.2273H54.0773V26.8239H50.5333V29.5618H53.7471V30.1584H50.5333V33.5H49.8692ZM57.1206 33.6243C56.7916 33.6243 56.4909 33.5604 56.2187 33.4325C55.9464 33.3023 55.7298 33.1153 55.5688 32.8714C55.4078 32.6252 55.3273 32.3269 55.3273 31.9766C55.3273 31.7067 55.3782 31.4794 55.48 31.2947C55.5818 31.1101 55.7262 30.9586 55.9133 30.8402C56.1003 30.7218 56.3216 30.6283 56.5773 30.5597C56.833 30.491 57.1147 30.4377 57.4225 30.3999C57.7279 30.362 57.9859 30.3288 58.1966 30.3004C58.4097 30.272 58.5719 30.227 58.6831 30.1655C58.7944 30.1039 58.8501 30.0045 58.8501 29.8672V29.7393C58.8501 29.3677 58.7388 29.0753 58.5162 28.8622C58.2961 28.6468 57.9788 28.5391 57.5645 28.5391C57.1715 28.5391 56.8508 28.6255 56.6022 28.7983C56.356 28.9711 56.1831 29.1747 56.0837 29.4091L55.4836 29.1925C55.6067 28.8942 55.7771 28.6562 55.9949 28.4787C56.2127 28.2988 56.4566 28.1697 56.7265 28.0916C56.9964 28.0111 57.2698 27.9709 57.5468 27.9709C57.7551 27.9709 57.9717 27.9981 58.1966 28.0526C58.4239 28.107 58.6346 28.2017 58.8287 28.3366C59.0229 28.4692 59.1803 28.6551 59.301 28.8942C59.4218 29.1309 59.4822 29.4316 59.4822 29.7962V33.5H58.8501V32.6371H58.811C58.7352 32.7981 58.6228 32.9543 58.4736 33.1058C58.3245 33.2573 58.1375 33.3816 57.9126 33.4787C57.6876 33.5758 57.4237 33.6243 57.1206 33.6243ZM57.2059 33.0455C57.5421 33.0455 57.8332 32.9709 58.0795 32.8217C58.3257 32.6726 58.5151 32.4749 58.6476 32.2287C58.7826 31.9801 58.8501 31.7067 58.8501 31.4084V30.62C58.8027 30.665 58.7234 30.7053 58.6121 30.7408C58.5032 30.7763 58.3766 30.8082 58.2322 30.8366C58.0901 30.8627 57.9481 30.8852 57.806 30.9041C57.664 30.9231 57.5361 30.9396 57.4225 30.9538C57.1147 30.9917 56.8519 31.0509 56.6341 31.1314C56.4163 31.2119 56.2494 31.3232 56.1334 31.4652C56.0174 31.6049 55.9594 31.7848 55.9594 32.005C55.9594 32.3364 56.0778 32.5933 56.3145 32.7756C56.5513 32.9555 56.8484 33.0455 57.2059 33.0455ZM61.1636 33.5V28.0455H61.778V28.8835H61.8241C61.933 28.6089 62.1224 28.3875 62.3923 28.2195C62.6646 28.049 62.9723 27.9638 63.3156 27.9638C63.3677 27.9638 63.4257 27.965 63.4896 27.9673C63.5535 27.9697 63.6068 27.9721 63.6494 27.9744V28.6172C63.621 28.6125 63.5713 28.6054 63.5003 28.5959C63.4292 28.5864 63.3523 28.5817 63.2694 28.5817C62.9854 28.5817 62.732 28.642 62.5095 28.7628C62.2893 28.8812 62.1153 29.0457 61.9875 29.2564C61.8596 29.4671 61.7957 29.7074 61.7957 29.9773V33.5H61.1636ZM66.6927 33.6136C66.205 33.6136 65.7801 33.4917 65.4179 33.2479C65.058 33.004 64.7787 32.6702 64.5798 32.2464C64.3809 31.8227 64.2815 31.3397 64.2815 30.7976C64.2815 30.2507 64.3821 29.7642 64.5834 29.3381C64.787 28.9119 65.0687 28.5781 65.4285 28.3366C65.7884 28.0928 66.2062 27.9709 66.6821 27.9709C67.0467 27.9709 67.3769 28.0419 67.6729 28.1839C67.9688 28.3236 68.2126 28.5213 68.4044 28.777C68.5985 29.0303 68.7204 29.3262 68.7702 29.6648H68.1309C68.0647 29.357 67.9049 29.0942 67.6515 28.8764C67.4006 28.6562 67.081 28.5462 66.6927 28.5462C66.3447 28.5462 66.037 28.6409 65.7694 28.8303C65.5019 29.0173 65.2924 29.2789 65.1409 29.6151C64.9917 29.9489 64.9172 30.3359 64.9172 30.7763C64.9172 31.219 64.9906 31.6108 65.1373 31.9517C65.2841 32.2902 65.4901 32.5554 65.7552 32.7472C66.0228 32.9389 66.3353 33.0348 66.6927 33.0348C66.9342 33.0348 67.1544 32.9898 67.3532 32.8999C67.5545 32.8075 67.7226 32.6773 67.8575 32.5092C67.9948 32.3411 68.0872 32.1411 68.1345 31.9091H68.7737C68.7264 32.2382 68.6092 32.5317 68.4221 32.7898C68.2375 33.0455 67.9972 33.2467 67.7013 33.3935C67.4077 33.5402 67.0715 33.6136 66.6927 33.6136ZM71.6519 33.6243C71.3228 33.6243 71.0222 33.5604 70.7499 33.4325C70.4777 33.3023 70.261 33.1153 70.1001 32.8714C69.9391 32.6252 69.8586 32.3269 69.8586 31.9766C69.8586 31.7067 69.9095 31.4794 70.0113 31.2947C70.1131 31.1101 70.2575 30.9586 70.4445 30.8402C70.6315 30.7218 70.8529 30.6283 71.1086 30.5597C71.3643 30.491 71.646 30.4377 71.9537 30.3999C72.2591 30.362 72.5172 30.3288 72.7279 30.3004C72.941 30.272 73.1031 30.227 73.2144 30.1655C73.3257 30.1039 73.3813 30.0045 73.3813 29.8672V29.7393C73.3813 29.3677 73.27 29.0753 73.0475 28.8622C72.8273 28.6468 72.5101 28.5391 72.0958 28.5391C71.7028 28.5391 71.382 28.6255 71.1334 28.7983C70.8872 28.9711 70.7144 29.1747 70.615 29.4091L70.0148 29.1925C70.1379 28.8942 70.3084 28.6562 70.5262 28.4787C70.744 28.2988 70.9878 28.1697 71.2577 28.0916C71.5276 28.0111 71.801 27.9709 72.078 27.9709C72.2864 27.9709 72.503 27.9981 72.7279 28.0526C72.9552 28.107 73.1659 28.2017 73.36 28.3366C73.5541 28.4692 73.7116 28.6551 73.8323 28.8942C73.953 29.1309 74.0134 29.4316 74.0134 29.7962V33.5H73.3813V32.6371H73.3422C73.2665 32.7981 73.154 32.9543 73.0049 33.1058C72.8557 33.2573 72.6687 33.3816 72.4438 33.4787C72.2189 33.5758 71.9549 33.6243 71.6519 33.6243ZM71.7371 33.0455C72.0733 33.0455 72.3645 32.9709 72.6107 32.8217C72.8569 32.6726 73.0463 32.4749 73.1789 32.2287C73.3138 31.9801 73.3813 31.7067 73.3813 31.4084V30.62C73.334 30.665 73.2546 30.7053 73.1434 30.7408C73.0345 30.7763 72.9078 30.8082 72.7634 30.8366C72.6214 30.8627 72.4793 30.8852 72.3373 30.9041C72.1952 30.9231 72.0674 30.9396 71.9537 30.9538C71.646 30.9917 71.3832 31.0509 71.1654 31.1314C70.9476 31.2119 70.7807 31.3232 70.6647 31.4652C70.5487 31.6049 70.4907 31.7848 70.4907 32.005C70.4907 32.3364 70.609 32.5933 70.8458 32.7756C71.0825 32.9555 71.3796 33.0455 71.7371 33.0455ZM79.3596 29.2422L78.7808 29.4055C78.724 29.2422 78.6435 29.0942 78.5393 28.9616C78.4352 28.8291 78.299 28.7237 78.1309 28.6456C77.9652 28.5675 77.7593 28.5284 77.5131 28.5284C77.1437 28.5284 76.8407 28.616 76.604 28.7912C76.3672 28.9664 76.2488 29.1925 76.2488 29.4695C76.2488 29.7038 76.3293 29.8944 76.4903 30.0412C76.6537 30.1856 76.9046 30.3004 77.2432 30.3857L78.067 30.5881C78.5239 30.6993 78.866 30.8757 79.0933 31.1172C79.3229 31.3587 79.4378 31.6617 79.4378 32.0263C79.4378 32.334 79.3525 32.6075 79.1821 32.8466C79.0116 33.0857 78.7737 33.2739 78.4683 33.4112C78.1653 33.5462 77.8137 33.6136 77.4136 33.6136C76.8809 33.6136 76.4418 33.4941 76.0961 33.255C75.7505 33.0135 75.5291 32.6655 75.4321 32.2109L76.0393 32.0618C76.1175 32.3861 76.2702 32.6312 76.4974 32.7969C76.7271 32.9626 77.0289 33.0455 77.403 33.0455C77.822 33.0455 78.157 32.9519 78.4079 32.7649C78.6589 32.5755 78.7844 32.3388 78.7844 32.0547C78.7844 31.8345 78.711 31.6499 78.5642 31.5007C78.4174 31.3492 78.1949 31.2379 77.8966 31.1669L77.0052 30.9538C76.5318 30.8402 76.1814 30.6603 75.9541 30.4141C75.7268 30.1679 75.6132 29.8625 75.6132 29.4979C75.6132 29.1972 75.6949 28.9332 75.8582 28.706C76.0216 28.4763 76.2465 28.2964 76.5329 28.1662C76.8194 28.036 77.1461 27.9709 77.5131 27.9709C78.0126 27.9709 78.4115 28.0845 78.7098 28.3118C79.0104 28.5367 79.2271 28.8468 79.3596 29.2422ZM82.9703 28.0455V28.5959H80.3673V28.0455H82.9703ZM81.1805 26.7386H81.8161V32.076C81.8161 32.3033 81.8552 32.482 81.9333 32.6122C82.0115 32.7401 82.1133 32.8312 82.2387 32.8857C82.3642 32.9377 82.498 32.9638 82.64 32.9638C82.7229 32.9638 82.7939 32.959 82.8531 32.9496C82.9123 32.9377 82.9643 32.9259 83.0093 32.9141L83.1443 33.4858C83.0827 33.5095 83.007 33.5308 82.917 33.5497C82.827 33.571 82.7158 33.5817 82.5832 33.5817C82.3512 33.5817 82.1275 33.5308 81.912 33.429C81.699 33.3272 81.5238 33.1757 81.3865 32.9744C81.2491 32.7732 81.1805 32.5234 81.1805 32.2251V26.7386ZM86.5525 33.6136C86.0435 33.6136 85.6031 33.4953 85.2314 33.2585C84.8598 33.0194 84.5721 32.6892 84.3685 32.2678C84.1673 31.844 84.0667 31.3563 84.0667 30.8047C84.0667 30.2554 84.1673 29.7678 84.3685 29.3416C84.5721 28.9131 84.8527 28.5781 85.2101 28.3366C85.57 28.0928 85.9855 27.9709 86.4566 27.9709C86.7525 27.9709 87.0378 28.0253 87.3124 28.1342C87.587 28.2408 87.8332 28.4053 88.051 28.6278C88.2712 28.848 88.4452 29.1262 88.5731 29.4624C88.7009 29.7962 88.7648 30.1915 88.7648 30.6484V30.9609H84.5035V30.4034H88.1185C88.1185 30.053 88.0475 29.7382 87.9055 29.4588C87.7658 29.1771 87.5705 28.9545 87.3195 28.7912C87.0709 28.6278 86.7833 28.5462 86.4566 28.5462C86.1109 28.5462 85.8067 28.6385 85.5439 28.8232C85.2812 29.0078 85.0752 29.2517 84.926 29.5547C84.7793 29.8577 84.7047 30.1892 84.7023 30.549V30.8828C84.7023 31.3161 84.7769 31.6948 84.926 32.0192C85.0776 32.3411 85.2918 32.5909 85.5688 32.7685C85.8458 32.946 86.1737 33.0348 86.5525 33.0348C86.8105 33.0348 87.0366 32.9946 87.2307 32.9141C87.4272 32.8336 87.5918 32.7259 87.7243 32.5909C87.8593 32.4536 87.9611 32.3033 88.0297 32.1399L88.6299 32.3352C88.547 32.5649 88.4109 32.7768 88.2215 32.9709C88.0345 33.165 87.8001 33.3213 87.5184 33.4396C87.239 33.5556 86.9171 33.6136 86.5525 33.6136ZM90.1578 33.5V28.0455H90.7721V28.8835H90.8183C90.9272 28.6089 91.1166 28.3875 91.3865 28.2195C91.6587 28.049 91.9665 27.9638 92.3097 27.9638C92.3618 27.9638 92.4198 27.965 92.4838 27.9673C92.5477 27.9697 92.6009 27.9721 92.6436 27.9744V28.6172C92.6151 28.6125 92.5654 28.6054 92.4944 28.5959C92.4234 28.5864 92.3464 28.5817 92.2636 28.5817C91.9795 28.5817 91.7262 28.642 91.5036 28.7628C91.2835 28.8812 91.1095 29.0457 90.9816 29.2564C90.8538 29.4671 90.7899 29.7074 90.7899 29.9773V33.5H90.1578ZM96.6661 33.5V26.2273H100.885V26.8239H97.3302V29.5618H100.661V30.1584H97.3302V32.9034H100.956V33.5H96.6661ZM104.603 33.6136C104.115 33.6136 103.69 33.4917 103.328 33.2479C102.968 33.004 102.689 32.6702 102.49 32.2464C102.291 31.8227 102.192 31.3397 102.192 30.7976C102.192 30.2507 102.292 29.7642 102.494 29.3381C102.697 28.9119 102.979 28.5781 103.339 28.3366C103.699 28.0928 104.116 27.9709 104.592 27.9709C104.957 27.9709 105.287 28.0419 105.583 28.1839C105.879 28.3236 106.123 28.5213 106.315 28.777C106.509 29.0303 106.631 29.3262 106.68 29.6648H106.041C105.975 29.357 105.815 29.0942 105.562 28.8764C105.311 28.6562 104.991 28.5462 104.603 28.5462C104.255 28.5462 103.947 28.6409 103.68 28.8303C103.412 29.0173 103.203 29.2789 103.051 29.6151C102.902 29.9489 102.827 30.3359 102.827 30.7763C102.827 31.219 102.901 31.6108 103.047 31.9517C103.194 32.2902 103.4 32.5554 103.665 32.7472C103.933 32.9389 104.245 33.0348 104.603 33.0348C104.844 33.0348 105.065 32.9898 105.263 32.8999C105.465 32.8075 105.633 32.6773 105.768 32.5092C105.905 32.3411 105.997 32.1411 106.045 31.9091H106.684C106.637 32.2382 106.519 32.5317 106.332 32.7898C106.148 33.0455 105.907 33.2467 105.611 33.3935C105.318 33.5402 104.982 33.6136 104.603 33.6136ZM110.159 33.6136C109.688 33.6136 109.271 33.4941 108.909 33.255C108.549 33.0159 108.267 32.6856 108.063 32.2642C107.86 31.8404 107.758 31.3516 107.758 30.7976C107.758 30.2389 107.86 29.7476 108.063 29.3239C108.267 28.8977 108.549 28.5663 108.909 28.3295C109.271 28.0904 109.688 27.9709 110.159 27.9709C110.63 27.9709 111.045 28.0904 111.405 28.3295C111.765 28.5687 112.047 28.9001 112.25 29.3239C112.456 29.7476 112.559 30.2389 112.559 30.7976C112.559 31.3516 112.457 31.8404 112.254 32.2642C112.05 32.6856 111.767 33.0159 111.405 33.255C111.045 33.4941 110.63 33.6136 110.159 33.6136ZM110.159 33.0348C110.537 33.0348 110.858 32.933 111.121 32.7294C111.384 32.5258 111.583 32.2547 111.718 31.9162C111.855 31.5777 111.924 31.2048 111.924 30.7976C111.924 30.3904 111.855 30.0163 111.718 29.6754C111.583 29.3345 111.384 29.0611 111.121 28.8551C110.858 28.6491 110.537 28.5462 110.159 28.5462C109.782 28.5462 109.461 28.6491 109.196 28.8551C108.934 29.0611 108.733 29.3345 108.596 29.6754C108.461 30.0163 108.394 30.3904 108.394 30.7976C108.394 31.2048 108.461 31.5777 108.596 31.9162C108.733 32.2547 108.934 32.5258 109.196 32.7294C109.459 32.933 109.78 33.0348 110.159 33.0348ZM117.612 29.2422L117.033 29.4055C116.976 29.2422 116.895 29.0942 116.791 28.9616C116.687 28.8291 116.551 28.7237 116.383 28.6456C116.217 28.5675 116.011 28.5284 115.765 28.5284C115.396 28.5284 115.093 28.616 114.856 28.7912C114.619 28.9664 114.501 29.1925 114.501 29.4695C114.501 29.7038 114.581 29.8944 114.742 30.0412C114.906 30.1856 115.157 30.3004 115.495 30.3857L116.319 30.5881C116.776 30.6993 117.118 30.8757 117.345 31.1172C117.575 31.3587 117.69 31.6617 117.69 32.0263C117.69 32.334 117.604 32.6075 117.434 32.8466C117.264 33.0857 117.026 33.2739 116.72 33.4112C116.417 33.5462 116.066 33.6136 115.666 33.6136C115.133 33.6136 114.694 33.4941 114.348 33.255C114.002 33.0135 113.781 32.6655 113.684 32.2109L114.291 32.0618C114.369 32.3861 114.522 32.6312 114.749 32.7969C114.979 32.9626 115.281 33.0455 115.655 33.0455C116.074 33.0455 116.409 32.9519 116.66 32.7649C116.911 32.5755 117.036 32.3388 117.036 32.0547C117.036 31.8345 116.963 31.6499 116.816 31.5007C116.669 31.3492 116.447 31.2379 116.149 31.1669L115.257 30.9538C114.784 30.8402 114.433 30.6603 114.206 30.4141C113.979 30.1679 113.865 29.8625 113.865 29.4979C113.865 29.1972 113.947 28.9332 114.11 28.706C114.274 28.4763 114.498 28.2964 114.785 28.1662C115.071 28.036 115.398 27.9709 115.765 27.9709C116.265 27.9709 116.663 28.0845 116.962 28.3118C117.262 28.5367 117.479 28.8468 117.612 29.2422ZM119.514 35.5455C119.389 35.5455 119.271 35.5336 119.163 35.5099C119.054 35.4863 118.967 35.4602 118.903 35.4318L119.074 34.8743C119.289 34.9406 119.481 34.9643 119.649 34.9453C119.817 34.9287 119.966 34.853 120.097 34.718C120.227 34.5855 120.343 34.3819 120.445 34.1072L120.643 33.5533L118.637 28.0455H119.322L120.942 32.6655H120.991L122.611 28.0455H123.296L120.988 34.3629C120.891 34.6257 120.771 34.8447 120.629 35.0199C120.487 35.1974 120.323 35.3288 120.136 35.4141C119.951 35.5017 119.744 35.5455 119.514 35.5455ZM128.198 29.2422L127.619 29.4055C127.562 29.2422 127.481 29.0942 127.377 28.9616C127.273 28.8291 127.137 28.7237 126.969 28.6456C126.803 28.5675 126.597 28.5284 126.351 28.5284C125.982 28.5284 125.679 28.616 125.442 28.7912C125.205 28.9664 125.087 29.1925 125.087 29.4695C125.087 29.7038 125.167 29.8944 125.328 30.0412C125.492 30.1856 125.743 30.3004 126.081 30.3857L126.905 30.5881C127.362 30.6993 127.704 30.8757 127.931 31.1172C128.161 31.3587 128.276 31.6617 128.276 32.0263C128.276 32.334 128.19 32.6075 128.02 32.8466C127.85 33.0857 127.612 33.2739 127.306 33.4112C127.003 33.5462 126.652 33.6136 126.252 33.6136C125.719 33.6136 125.28 33.4941 124.934 33.255C124.588 33.0135 124.367 32.6655 124.27 32.2109L124.877 32.0618C124.955 32.3861 125.108 32.6312 125.335 32.7969C125.565 32.9626 125.867 33.0455 126.241 33.0455C126.66 33.0455 126.995 32.9519 127.246 32.7649C127.497 32.5755 127.622 32.3388 127.622 32.0547C127.622 31.8345 127.549 31.6499 127.402 31.5007C127.255 31.3492 127.033 31.2379 126.734 31.1669L125.843 30.9538C125.37 30.8402 125.019 30.6603 124.792 30.4141C124.565 30.1679 124.451 29.8625 124.451 29.4979C124.451 29.1972 124.533 28.9332 124.696 28.706C124.859 28.4763 125.084 28.2964 125.371 28.1662C125.657 28.036 125.984 27.9709 126.351 27.9709C126.85 27.9709 127.249 28.0845 127.548 28.3118C127.848 28.5367 128.065 28.8468 128.198 29.2422ZM131.808 28.0455V28.5959H129.205V28.0455H131.808ZM130.018 26.7386H130.654V32.076C130.654 32.3033 130.693 32.482 130.771 32.6122C130.849 32.7401 130.951 32.8312 131.077 32.8857C131.202 32.9377 131.336 32.9638 131.478 32.9638C131.561 32.9638 131.632 32.959 131.691 32.9496C131.75 32.9377 131.802 32.9259 131.847 32.9141L131.982 33.4858C131.921 33.5095 131.845 33.5308 131.755 33.5497C131.665 33.571 131.554 33.5817 131.421 33.5817C131.189 33.5817 130.965 33.5308 130.75 33.429C130.537 33.3272 130.362 33.1757 130.224 32.9744C130.087 32.7732 130.018 32.5234 130.018 32.2251V26.7386ZM135.39 33.6136C134.881 33.6136 134.441 33.4953 134.069 33.2585C133.698 33.0194 133.41 32.6892 133.206 32.2678C133.005 31.844 132.905 31.3563 132.905 30.8047C132.905 30.2554 133.005 29.7678 133.206 29.3416C133.41 28.9131 133.691 28.5781 134.048 28.3366C134.408 28.0928 134.823 27.9709 135.294 27.9709C135.59 27.9709 135.876 28.0253 136.15 28.1342C136.425 28.2408 136.671 28.4053 136.889 28.6278C137.109 28.848 137.283 29.1262 137.411 29.4624C137.539 29.7962 137.603 30.1915 137.603 30.6484V30.9609H133.341V30.4034H136.956C136.956 30.053 136.885 29.7382 136.743 29.4588C136.604 29.1771 136.408 28.9545 136.157 28.7912C135.909 28.6278 135.621 28.5462 135.294 28.5462C134.949 28.5462 134.645 28.6385 134.382 28.8232C134.119 29.0078 133.913 29.2517 133.764 29.5547C133.617 29.8577 133.543 30.1892 133.54 30.549V30.8828C133.54 31.3161 133.615 31.6948 133.764 32.0192C133.915 32.3411 134.13 32.5909 134.407 32.7685C134.684 32.946 135.012 33.0348 135.39 33.0348C135.648 33.0348 135.874 32.9946 136.069 32.9141C136.265 32.8336 136.43 32.7259 136.562 32.5909C136.697 32.4536 136.799 32.3033 136.868 32.1399L137.468 32.3352C137.385 32.5649 137.249 32.7768 137.059 32.9709C136.872 33.165 136.638 33.3213 136.356 33.4396C136.077 33.5556 135.755 33.6136 135.39 33.6136ZM138.996 33.5V28.0455H139.61V28.8835H139.667C139.776 28.6018 139.957 28.3804 140.21 28.2195C140.466 28.0561 140.772 27.9744 141.13 27.9744C141.506 27.9744 141.815 28.0632 142.057 28.2408C142.301 28.416 142.483 28.6574 142.604 28.9652H142.65C142.773 28.6622 142.973 28.4219 143.25 28.2443C143.529 28.0644 143.868 27.9744 144.266 27.9744C144.772 27.9744 145.172 28.1342 145.466 28.4538C145.759 28.7711 145.906 29.2351 145.906 29.8459V33.5H145.274V29.8459C145.274 29.415 145.164 29.0919 144.944 28.8764C144.724 28.661 144.434 28.5533 144.074 28.5533C143.657 28.5533 143.336 28.6811 143.111 28.9368C142.887 29.1925 142.774 29.5168 142.774 29.9098V33.5H142.128V29.7891C142.128 29.4197 142.025 29.1214 141.819 28.8942C141.613 28.6669 141.323 28.5533 140.949 28.5533C140.698 28.5533 140.472 28.6148 140.271 28.7379C140.072 28.861 139.914 29.0327 139.798 29.2528C139.685 29.4706 139.628 29.7216 139.628 30.0057V33.5H138.996Z" fill="#ACA1B7"/>
</svg>
