<svg width="285" height="72" viewBox="0 0 285 72" fill="none" xmlns="http://www.w3.org/2000/svg">
<g clip-path="url(#clip0_3032_564)">
<path d="M2.01953 35.5684V71.0684H37.5195H73.0195V35.5684V0.0683496H37.5195H2.01953V35.5684ZM49.5895 21.2796V23.6936L52.536 23.6759C54.1513 23.6581 55.5003 23.6759 55.5358 23.7114C55.5535 23.7291 55.3228 24.7941 55.0033 26.0721L54.4353 28.3796L53.7785 28.4329L53.1395 28.4861V37.9824L53.1573 47.4609L53.601 47.5674C54.1513 47.7094 54.382 48.1354 54.382 49.0584C54.382 49.6619 54.453 49.8039 54.808 49.9459C55.4115 50.1589 55.66 50.7091 55.589 51.5966L55.5358 52.3421L49.554 52.3954L43.5545 52.4309V51.6144C43.5545 50.6736 43.7853 50.1589 44.3178 49.9636C44.584 49.8571 44.7083 49.6619 44.726 49.2181C44.7438 48.8809 44.7615 48.4726 44.7793 48.2951C44.797 48.1176 45.0278 47.8336 45.3295 47.6739L45.862 47.3721V41.9229C45.862 35.7991 45.7733 35.2311 44.5663 33.4029C42.9155 30.9356 40.5725 29.6754 37.6083 29.6931C35.7445 29.6931 34.5553 30.0481 32.9933 31.0954C31.2715 32.2669 30.1 33.9531 29.6208 35.9589C29.3013 37.3256 29.2303 47.4609 29.532 47.4609C29.6385 47.4609 29.9225 47.6561 30.1533 47.9046C30.4905 48.2241 30.597 48.5259 30.597 49.1471C30.597 49.7151 30.668 49.9459 30.8455 49.9459C31.378 49.9459 31.662 50.4784 31.662 51.4724V52.4309H25.7158H19.7695V51.4546C19.7695 50.5849 19.8228 50.4429 20.302 50.0879C20.728 49.7684 20.8345 49.5731 20.8345 49.0229C20.8345 48.3484 21.438 47.4609 21.8995 47.4609C22.0238 47.4609 22.077 44.4611 22.077 37.9646V28.4684H21.4558C20.9055 28.4684 20.8345 28.4151 20.6748 27.7939C20.5683 27.4389 20.4795 27.0129 20.4795 26.8531C20.4795 26.6934 20.373 26.2496 20.2488 25.8769C20.1068 25.4864 19.947 24.8474 19.876 24.4391L19.7695 23.6759L22.645 23.6404L25.5383 23.5871L25.5915 21.2264L25.6448 18.8834H37.6083H49.5895V21.2796Z" fill="#ACA1B7"/>
</g>
<path d="M94.1018 32.6445V8.13834H103.77C105.629 8.13834 107.212 8.49333 108.521 9.20331C109.829 9.90531 110.826 10.8825 111.512 12.135C112.206 13.3794 112.553 14.8153 112.553 16.4427C112.553 18.0701 112.202 19.506 111.5 20.7504C110.798 21.9949 109.781 22.9641 108.449 23.6581C107.125 24.3522 105.521 24.6992 103.639 24.6992H97.4762V20.547H102.801C103.798 20.547 104.62 20.3755 105.266 20.0325C105.92 19.6815 106.407 19.1988 106.726 18.5846C107.053 17.9624 107.216 17.2484 107.216 16.4427C107.216 15.629 107.053 14.919 106.726 14.3128C106.407 13.6985 105.92 13.2239 105.266 12.8888C104.612 12.5458 103.782 12.3743 102.777 12.3743H99.283V32.6445H94.1018ZM128.957 24.8188V14.2649H134.055V32.6445H129.161V29.306H128.969C128.554 30.383 127.864 31.2485 126.899 31.9026C125.942 32.5568 124.773 32.8838 123.393 32.8838C122.165 32.8838 121.084 32.6046 120.15 32.0462C119.217 31.4878 118.487 30.6941 117.96 29.665C117.442 28.636 117.179 27.4035 117.171 25.9676V14.2649H122.268V25.0581C122.276 26.1431 122.567 27.0006 123.142 27.6308C123.716 28.261 124.486 28.5761 125.451 28.5761C126.065 28.5761 126.64 28.4365 127.174 28.1573C127.709 27.8701 128.139 27.4473 128.467 26.8889C128.802 26.3305 128.965 25.6405 128.957 24.8188ZM139.48 32.6445V14.2649H144.422V17.4718H144.613C144.948 16.331 145.511 15.4695 146.3 14.8871C147.09 14.2968 148 14.0016 149.029 14.0016C149.284 14.0016 149.559 14.0176 149.854 14.0495C150.149 14.0814 150.409 14.1253 150.632 14.1811V18.7042C150.393 18.6324 150.062 18.5686 149.639 18.5128C149.216 18.4569 148.829 18.429 148.478 18.429C147.728 18.429 147.058 18.5926 146.468 18.9196C145.886 19.2387 145.423 19.6854 145.08 20.2598C144.745 20.8342 144.577 21.4963 144.577 22.2462V32.6445H139.48ZM154.615 39.5369V14.2649H159.641V17.3521H159.868C160.092 16.8575 160.415 16.3549 160.838 15.8444C161.268 15.3259 161.827 14.8951 162.513 14.5521C163.207 14.2011 164.068 14.0256 165.098 14.0256C166.438 14.0256 167.674 14.3766 168.807 15.0786C169.94 15.7726 170.845 16.8216 171.523 18.2256C172.201 19.6216 172.54 21.3726 172.54 23.4786C172.54 25.5288 172.209 27.2599 171.547 28.6718C170.893 30.0758 170 31.1408 168.867 31.8667C167.742 32.5847 166.482 32.9437 165.086 32.9437C164.096 32.9437 163.255 32.7801 162.561 32.4531C161.875 32.126 161.312 31.7152 160.874 31.2206C160.435 30.718 160.1 30.2115 159.868 29.7009H159.713V39.5369H154.615ZM159.605 23.4547C159.605 24.5476 159.757 25.5009 160.06 26.3146C160.363 27.1282 160.802 27.7624 161.376 28.2171C161.951 28.6639 162.649 28.8872 163.47 28.8872C164.3 28.8872 165.002 28.6599 165.576 28.2052C166.151 27.7425 166.585 27.1043 166.88 26.2906C167.184 25.469 167.335 24.5237 167.335 23.4547C167.335 22.3937 167.188 21.4604 166.892 20.6547C166.597 19.849 166.163 19.2188 165.588 18.7641C165.014 18.3094 164.308 18.082 163.47 18.082C162.641 18.082 161.939 18.3014 161.364 18.7401C160.798 19.1789 160.363 19.8011 160.06 20.6068C159.757 21.4125 159.605 22.3618 159.605 23.4547ZM182.384 8.13834V32.6445H177.287V8.13834H182.384ZM196.191 33.0035C194.301 33.0035 192.673 32.6206 191.309 31.8548C189.953 31.081 188.908 29.9881 188.174 28.5761C187.44 27.1562 187.073 25.4769 187.073 23.5385C187.073 21.6479 187.44 19.9886 188.174 18.5607C188.908 17.1327 189.941 16.0199 191.273 15.2222C192.614 14.4244 194.185 14.0256 195.988 14.0256C197.2 14.0256 198.329 14.221 199.374 14.6119C200.427 14.9948 201.345 15.5732 202.126 16.347C202.916 17.1208 203.53 18.094 203.969 19.2666C204.408 20.4313 204.627 21.7954 204.627 23.359V24.759H189.108V21.6H199.829C199.829 20.8661 199.669 20.2159 199.35 19.6496C199.031 19.0832 198.589 18.6404 198.022 18.3213C197.464 17.9943 196.814 17.8307 196.072 17.8307C195.298 17.8307 194.612 18.0102 194.014 18.3692C193.423 18.7202 192.961 19.1948 192.625 19.7931C192.29 20.3835 192.119 21.0416 192.111 21.7675V24.771C192.111 25.6804 192.278 26.4661 192.614 27.1282C192.957 27.7904 193.439 28.3009 194.061 28.6599C194.684 29.0189 195.422 29.1983 196.275 29.1983C196.841 29.1983 197.36 29.1186 197.831 28.959C198.301 28.7995 198.704 28.5602 199.039 28.2411C199.374 27.922 199.63 27.5311 199.805 27.0684L204.52 27.3795C204.28 28.5123 203.79 29.5015 203.048 30.3471C202.314 31.1847 201.365 31.8388 200.2 32.3095C199.043 32.7722 197.707 33.0035 196.191 33.0035ZM218.085 32.6445H209.397V8.13834H218.156C220.621 8.13834 222.743 8.62895 224.522 9.61015C226.301 10.5834 227.669 11.9834 228.627 13.8102C229.592 15.637 230.074 17.8228 230.074 20.3675C230.074 22.9202 229.592 25.114 228.627 26.9488C227.669 28.7835 226.293 30.1915 224.498 31.1727C222.711 32.1539 220.574 32.6445 218.085 32.6445ZM214.579 28.2052H217.869C219.401 28.2052 220.689 27.934 221.734 27.3915C222.787 26.8411 223.577 25.9915 224.104 24.8428C224.638 23.6861 224.905 22.1943 224.905 20.3675C224.905 18.5567 224.638 17.0769 224.104 15.9282C223.577 14.7794 222.791 13.9338 221.746 13.3914C220.701 12.8489 219.413 12.5777 217.881 12.5777H214.579V28.2052ZM238.102 32.6445H232.55L241.01 8.13834H247.687L256.135 32.6445H250.583L244.444 13.7384H244.253L238.102 32.6445ZM237.755 23.012H250.87V27.0565H237.755V23.012ZM281.801 20.3914C281.801 23.0638 281.294 25.3373 280.281 27.212C279.276 29.0867 277.904 30.5186 276.165 31.5078C274.433 32.489 272.487 32.9796 270.325 32.9796C268.147 32.9796 266.193 32.485 264.462 31.4958C262.731 30.5066 261.363 29.0747 260.358 27.2C259.352 25.3254 258.85 23.0558 258.85 20.3914C258.85 17.7191 259.352 15.4455 260.358 13.5709C261.363 11.6962 262.731 10.2683 264.462 9.28707C266.193 8.29789 268.147 7.8033 270.325 7.8033C272.487 7.8033 274.433 8.29789 276.165 9.28707C277.904 10.2683 279.276 11.6962 280.281 13.5709C281.294 15.4455 281.801 17.7191 281.801 20.3914ZM276.547 20.3914C276.547 18.6604 276.288 17.2005 275.77 16.0119C275.259 14.8233 274.537 13.9219 273.604 13.3076C272.671 12.6934 271.578 12.3862 270.325 12.3862C269.073 12.3862 267.98 12.6934 267.047 13.3076C266.113 13.9219 265.387 14.8233 264.869 16.0119C264.358 17.2005 264.103 18.6604 264.103 20.3914C264.103 22.1225 264.358 23.5823 264.869 24.771C265.387 25.9596 266.113 26.861 267.047 27.4753C267.98 28.0895 269.073 28.3966 270.325 28.3966C271.578 28.3966 272.671 28.0895 273.604 27.4753C274.537 26.861 275.259 25.9596 275.77 24.771C276.288 23.5823 276.547 22.1225 276.547 20.3914Z" fill="#ACA1B7"/>
<path d="M93.9685 63.4927V49.8781H101.846V50.9949H95.2116V56.1203H101.228V57.2372H95.2116V63.4927H93.9685ZM107.543 63.7253C106.927 63.7253 106.364 63.6057 105.855 63.3664C105.345 63.1226 104.939 62.7725 104.638 62.316C104.337 61.8551 104.186 61.2967 104.186 60.6408C104.186 60.1356 104.281 59.7101 104.472 59.3644C104.662 59.0188 104.933 58.7351 105.283 58.5135C105.633 58.2919 106.047 58.1169 106.526 57.9884C107.005 57.8598 107.532 57.7601 108.108 57.6892C108.68 57.6183 109.163 57.5563 109.557 57.5031C109.956 57.4499 110.26 57.3657 110.468 57.2505C110.676 57.1352 110.781 56.9491 110.781 56.692V56.4527C110.781 55.7569 110.572 55.2096 110.156 54.8107C109.744 54.4074 109.15 54.2058 108.374 54.2058C107.638 54.2058 107.038 54.3676 106.573 54.6911C106.112 55.0146 105.788 55.3957 105.602 55.8345L104.479 55.429C104.709 54.8706 105.028 54.4252 105.436 54.0928C105.844 53.756 106.3 53.5144 106.805 53.3682C107.31 53.2175 107.822 53.1422 108.341 53.1422C108.731 53.1422 109.136 53.1931 109.557 53.2951C109.983 53.397 110.377 53.5743 110.741 53.8269C111.104 54.0751 111.399 54.423 111.625 54.8706C111.851 55.3138 111.964 55.8766 111.964 56.5591V63.4927H110.781V61.8773H110.707C110.566 62.1786 110.355 62.4711 110.076 62.7548C109.797 63.0384 109.447 63.2711 109.026 63.4528C108.605 63.6345 108.11 63.7253 107.543 63.7253ZM107.703 62.6418C108.332 62.6418 108.877 62.5022 109.338 62.223C109.799 61.9438 110.153 61.5737 110.402 61.1128C110.654 60.6474 110.781 60.1356 110.781 59.5772V58.1014C110.692 58.1856 110.543 58.2609 110.335 58.3274C110.131 58.3939 109.894 58.4537 109.624 58.5069C109.358 58.5556 109.092 58.5977 108.826 58.6332C108.56 58.6686 108.321 58.6997 108.108 58.7263C107.532 58.7972 107.04 58.908 106.632 59.0586C106.225 59.2093 105.912 59.4176 105.695 59.6835C105.478 59.945 105.369 60.2818 105.369 60.694C105.369 61.3144 105.591 61.7953 106.034 62.1365C106.477 62.4734 107.033 62.6418 107.703 62.6418ZM115.112 63.4927V53.2818H116.262V54.8506H116.348C116.552 54.3365 116.906 53.9222 117.412 53.6075C117.921 53.2884 118.497 53.1289 119.14 53.1289C119.238 53.1289 119.346 53.1311 119.466 53.1355C119.586 53.1399 119.685 53.1444 119.765 53.1488V54.352C119.712 54.3432 119.619 54.3299 119.486 54.3122C119.353 54.2944 119.209 54.2856 119.054 54.2856C118.522 54.2856 118.048 54.3986 117.631 54.6246C117.219 54.8462 116.893 55.1542 116.654 55.5486C116.415 55.9431 116.295 56.3929 116.295 56.8981V63.4927H115.112ZM125.462 63.7054C124.549 63.7054 123.754 63.4772 123.076 63.0207C122.402 62.5642 121.879 61.9393 121.507 61.146C121.134 60.3527 120.948 59.4486 120.948 58.4338C120.948 57.41 121.137 56.4993 121.513 55.7015C121.894 54.9038 122.422 54.2789 123.096 53.8269C123.769 53.3704 124.551 53.1422 125.442 53.1422C126.125 53.1422 126.743 53.2751 127.297 53.541C127.851 53.8025 128.307 54.1726 128.666 54.6512C129.03 55.1254 129.258 55.6794 129.351 56.3131H128.154C128.03 55.737 127.731 55.2451 127.257 54.8373C126.787 54.4252 126.189 54.2191 125.462 54.2191C124.811 54.2191 124.234 54.3964 123.734 54.7509C123.233 55.101 122.841 55.5907 122.557 56.2201C122.278 56.8449 122.138 57.5695 122.138 58.3939C122.138 59.2226 122.276 59.9561 122.55 60.5943C122.825 61.228 123.211 61.7244 123.707 62.0834C124.208 62.4423 124.793 62.6218 125.462 62.6218C125.914 62.6218 126.326 62.5376 126.699 62.3692C127.075 62.1964 127.39 61.9526 127.643 61.638C127.9 61.3233 128.072 60.9488 128.161 60.5145H129.358C129.269 61.1305 129.05 61.6801 128.7 62.1631C128.354 62.6418 127.904 63.0185 127.35 63.2932C126.801 63.568 126.171 63.7054 125.462 63.7054ZM134.746 63.7253C134.13 63.7253 133.567 63.6057 133.057 63.3664C132.547 63.1226 132.142 62.7725 131.841 62.316C131.539 61.8551 131.389 61.2967 131.389 60.6408C131.389 60.1356 131.484 59.7101 131.674 59.3644C131.865 59.0188 132.135 58.7351 132.485 58.5135C132.836 58.2919 133.25 58.1169 133.729 57.9884C134.207 57.8598 134.735 57.7601 135.311 57.6892C135.882 57.6183 136.365 57.5563 136.76 57.5031C137.159 57.4499 137.462 57.3657 137.671 57.2505C137.879 57.1352 137.983 56.9491 137.983 56.692V56.4527C137.983 55.7569 137.775 55.2096 137.358 54.8107C136.946 54.4074 136.352 54.2058 135.577 54.2058C134.841 54.2058 134.24 54.3676 133.775 54.6911C133.314 55.0146 132.991 55.3957 132.805 55.8345L131.681 55.429C131.912 54.8706 132.231 54.4252 132.638 54.0928C133.046 53.756 133.503 53.5144 134.008 53.3682C134.513 53.2175 135.025 53.1422 135.543 53.1422C135.933 53.1422 136.339 53.1931 136.76 53.2951C137.185 53.397 137.58 53.5743 137.943 53.8269C138.307 54.0751 138.601 54.423 138.827 54.8706C139.053 55.3138 139.166 55.8766 139.166 56.5591V63.4927H137.983V61.8773H137.91C137.768 62.1786 137.558 62.4711 137.278 62.7548C136.999 63.0384 136.649 63.2711 136.228 63.4528C135.807 63.6345 135.313 63.7253 134.746 63.7253ZM134.905 62.6418C135.535 62.6418 136.08 62.5022 136.541 62.223C137.001 61.9438 137.356 61.5737 137.604 61.1128C137.857 60.6474 137.983 60.1356 137.983 59.5772V58.1014C137.894 58.1856 137.746 58.2609 137.538 58.3274C137.334 58.3939 137.097 58.4537 136.826 58.5069C136.56 58.5556 136.295 58.5977 136.029 58.6332C135.763 58.6686 135.523 58.6997 135.311 58.7263C134.735 58.7972 134.243 58.908 133.835 59.0586C133.427 59.2093 133.115 59.4176 132.898 59.6835C132.68 59.945 132.572 60.2818 132.572 60.694C132.572 61.3144 132.793 61.7953 133.237 62.1365C133.68 62.4734 134.236 62.6418 134.905 62.6418ZM149.175 55.522L148.091 55.8278C147.985 55.522 147.834 55.2451 147.639 54.9969C147.444 54.7487 147.189 54.5515 146.874 54.4052C146.564 54.259 146.179 54.1859 145.718 54.1859C145.026 54.1859 144.459 54.3498 144.016 54.6778C143.573 55.0057 143.351 55.429 143.351 55.9475C143.351 56.3863 143.502 56.743 143.803 57.0178C144.109 57.2881 144.579 57.5031 145.212 57.6626L146.755 58.0415C147.61 58.2498 148.251 58.58 148.676 59.0321C149.106 59.4841 149.321 60.0514 149.321 60.7339C149.321 61.31 149.161 61.8219 148.842 62.2695C148.523 62.7171 148.078 63.0694 147.506 63.3265C146.939 63.5791 146.281 63.7054 145.532 63.7054C144.534 63.7054 143.712 63.4816 143.065 63.034C142.418 62.5819 142.004 61.9305 141.822 61.0796L142.959 60.8003C143.105 61.4075 143.391 61.8662 143.816 62.1764C144.246 62.4867 144.811 62.6418 145.512 62.6418C146.296 62.6418 146.923 62.4667 147.393 62.1166C147.863 61.7621 148.098 61.3189 148.098 60.7871C148.098 60.3749 147.96 60.0292 147.685 59.75C147.411 59.4664 146.994 59.2581 146.436 59.1251L144.767 58.7263C143.881 58.5135 143.225 58.1767 142.799 57.7158C142.374 57.2549 142.161 56.6832 142.161 56.0007C142.161 55.4378 142.314 54.9437 142.62 54.5182C142.926 54.0884 143.347 53.7515 143.883 53.5078C144.419 53.264 145.031 53.1422 145.718 53.1422C146.653 53.1422 147.4 53.3549 147.958 53.7803C148.521 54.2014 148.926 54.7819 149.175 55.522ZM155.934 53.2818V54.3122H151.061V53.2818H155.934ZM152.583 50.8354H153.773V60.8269C153.773 61.2524 153.846 61.587 153.992 61.8307C154.139 62.0701 154.329 62.2407 154.564 62.3426C154.799 62.4401 155.049 62.4889 155.315 62.4889C155.47 62.4889 155.603 62.48 155.714 62.4623C155.825 62.4401 155.923 62.418 156.007 62.3958L156.259 63.4661C156.144 63.5104 156.002 63.5503 155.834 63.5857C155.665 63.6256 155.457 63.6456 155.209 63.6456C154.775 63.6456 154.356 63.5503 153.953 63.3597C153.554 63.1692 153.226 62.8855 152.969 62.5088C152.712 62.1321 152.583 61.6646 152.583 61.1061V50.8354ZM162.64 63.7054C161.687 63.7054 160.862 63.4838 160.167 63.0406C159.471 62.593 158.932 61.9748 158.551 61.1859C158.174 60.3926 157.986 59.4797 157.986 58.447C157.986 57.4189 158.174 56.5059 158.551 55.7082C158.932 54.906 159.457 54.2789 160.127 53.8269C160.8 53.3704 161.578 53.1422 162.46 53.1422C163.014 53.1422 163.548 53.2441 164.062 53.448C164.576 53.6474 165.037 53.9554 165.445 54.372C165.857 54.7842 166.183 55.3049 166.422 55.9342C166.661 56.5591 166.781 57.2992 166.781 58.1545V58.7395H158.804V57.6959H165.571C165.571 57.0399 165.438 56.4505 165.172 55.9276C164.911 55.4002 164.545 54.9836 164.075 54.6778C163.61 54.372 163.072 54.2191 162.46 54.2191C161.813 54.2191 161.243 54.3919 160.752 54.7376C160.26 55.0833 159.874 55.5398 159.595 56.107C159.32 56.6743 159.18 57.2948 159.176 57.9684V58.5933C159.176 59.4043 159.316 60.1134 159.595 60.7206C159.878 61.3233 160.28 61.7909 160.798 62.1232C161.317 62.4556 161.93 62.6218 162.64 62.6218C163.123 62.6218 163.546 62.5465 163.909 62.3958C164.277 62.2451 164.585 62.0435 164.833 61.7909C165.086 61.5338 165.276 61.2524 165.405 60.9466L166.528 61.3122C166.373 61.7421 166.118 62.1388 165.764 62.5022C165.414 62.8656 164.975 63.1581 164.448 63.3797C163.925 63.5968 163.322 63.7054 162.64 63.7054ZM169.389 63.4927V53.2818H170.539V54.8506H170.625C170.829 54.3365 171.184 53.9222 171.689 53.6075C172.198 53.2884 172.775 53.1289 173.417 53.1289C173.515 53.1289 173.623 53.1311 173.743 53.1355C173.863 53.1399 173.962 53.1444 174.042 53.1488V54.352C173.989 54.3432 173.896 54.3299 173.763 54.3122C173.63 54.2944 173.486 54.2856 173.331 54.2856C172.799 54.2856 172.325 54.3986 171.908 54.6246C171.496 54.8462 171.17 55.1542 170.931 55.5486C170.692 55.9431 170.572 56.3929 170.572 56.8981V63.4927H169.389ZM181.572 63.4927V49.8781H189.47V50.9949H182.815V56.1203H189.051V57.2372H182.815V62.3759H189.603V63.4927H181.572ZM196.43 63.7054C195.517 63.7054 194.721 63.4772 194.043 63.0207C193.37 62.5642 192.847 61.9393 192.475 61.146C192.102 60.3527 191.916 59.4486 191.916 58.4338C191.916 57.41 192.104 56.4993 192.481 55.7015C192.862 54.9038 193.39 54.2789 194.063 53.8269C194.737 53.3704 195.519 53.1422 196.41 53.1422C197.092 53.1422 197.711 53.2751 198.265 53.541C198.819 53.8025 199.275 54.1726 199.634 54.6512C199.998 55.1254 200.226 55.6794 200.319 56.3131H199.122C198.998 55.737 198.699 55.2451 198.225 54.8373C197.755 54.4252 197.157 54.2191 196.43 54.2191C195.778 54.2191 195.202 54.3964 194.702 54.7509C194.201 55.101 193.808 55.5907 193.525 56.2201C193.246 56.8449 193.106 57.5695 193.106 58.3939C193.106 59.2226 193.243 59.9561 193.518 60.5943C193.793 61.228 194.179 61.7244 194.675 62.0834C195.176 62.4423 195.761 62.6218 196.43 62.6218C196.882 62.6218 197.294 62.5376 197.666 62.3692C198.043 62.1964 198.358 61.9526 198.61 61.638C198.867 61.3233 199.04 60.9488 199.129 60.5145H200.325C200.237 61.1305 200.017 61.6801 199.667 62.1631C199.322 62.6418 198.872 63.0185 198.318 63.2932C197.768 63.568 197.139 63.7054 196.43 63.7054ZM206.83 63.7054C205.948 63.7054 205.168 63.4816 204.49 63.034C203.817 62.5864 203.289 61.9681 202.908 61.1793C202.527 60.386 202.336 59.4708 202.336 58.4338C202.336 57.3878 202.527 56.4682 202.908 55.6749C203.289 54.8772 203.817 54.2568 204.49 53.8136C205.168 53.366 205.948 53.1422 206.83 53.1422C207.712 53.1422 208.49 53.366 209.164 53.8136C209.837 54.2612 210.365 54.8817 210.746 55.6749C211.131 56.4682 211.324 57.3878 211.324 58.4338C211.324 59.4708 211.134 60.386 210.752 61.1793C210.371 61.9681 209.842 62.5864 209.164 63.034C208.49 63.4816 207.712 63.7054 206.83 63.7054ZM206.83 62.6218C207.539 62.6218 208.14 62.4313 208.632 62.0501C209.124 61.669 209.496 61.1615 209.749 60.5278C210.006 59.894 210.134 59.196 210.134 58.4338C210.134 57.6715 210.006 56.9713 209.749 56.3331C209.496 55.6949 209.124 55.183 208.632 54.7974C208.14 54.4119 207.539 54.2191 206.83 54.2191C206.126 54.2191 205.525 54.4119 205.029 54.7974C204.537 55.183 204.162 55.6949 203.905 56.3331C203.653 56.9713 203.526 57.6715 203.526 58.4338C203.526 59.196 203.653 59.894 203.905 60.5278C204.162 61.1615 204.537 61.669 205.029 62.0501C205.521 62.4313 206.121 62.6218 206.83 62.6218ZM220.782 55.522L219.699 55.8278C219.592 55.522 219.442 55.2451 219.247 54.9969C219.052 54.7487 218.797 54.5515 218.482 54.4052C218.172 54.259 217.786 54.1859 217.325 54.1859C216.634 54.1859 216.067 54.3498 215.624 54.6778C215.18 55.0057 214.959 55.429 214.959 55.9475C214.959 56.3863 215.109 56.743 215.411 57.0178C215.717 57.2881 216.186 57.5031 216.82 57.6626L218.362 58.0415C219.218 58.2498 219.858 58.58 220.284 59.0321C220.714 59.4841 220.928 60.0514 220.928 60.7339C220.928 61.31 220.769 61.8219 220.45 62.2695C220.131 62.7171 219.685 63.0694 219.114 63.3265C218.546 63.5791 217.888 63.7054 217.139 63.7054C216.142 63.7054 215.32 63.4816 214.673 63.034C214.026 62.5819 213.612 61.9305 213.43 61.0796L214.567 60.8003C214.713 61.4075 214.999 61.8662 215.424 62.1764C215.854 62.4867 216.419 62.6418 217.119 62.6418C217.904 62.6418 218.531 62.4667 219.001 62.1166C219.47 61.7621 219.705 61.3189 219.705 60.7871C219.705 60.3749 219.568 60.0292 219.293 59.75C219.018 59.4664 218.602 59.2581 218.043 59.1251L216.375 58.7263C215.488 58.5135 214.832 58.1767 214.407 57.7158C213.982 57.2549 213.769 56.6832 213.769 56.0007C213.769 55.4378 213.922 54.9437 214.228 54.5182C214.533 54.0884 214.954 53.7515 215.491 53.5078C216.027 53.264 216.638 53.1422 217.325 53.1422C218.261 53.1422 219.007 53.3549 219.566 53.7803C220.129 54.2014 220.534 54.7819 220.782 55.522ZM224.344 67.3218C224.109 67.3218 223.889 67.2996 223.686 67.2553C223.482 67.211 223.32 67.1622 223.2 67.109L223.519 66.0653C223.923 66.1894 224.282 66.2338 224.596 66.1983C224.911 66.1673 225.19 66.0255 225.434 65.7728C225.678 65.5247 225.895 65.1435 226.085 64.6294L226.458 63.5924L222.702 53.2818H223.985L227.016 61.9305H227.109L230.141 53.2818H231.424L227.103 65.1081C226.921 65.6 226.697 66.0099 226.431 66.3379C226.165 66.6703 225.857 66.9163 225.507 67.0758C225.161 67.2398 224.774 67.3218 224.344 67.3218ZM240.599 55.522L239.516 55.8278C239.409 55.522 239.258 55.2451 239.063 54.9969C238.868 54.7487 238.614 54.5515 238.299 54.4052C237.989 54.259 237.603 54.1859 237.142 54.1859C236.451 54.1859 235.884 54.3498 235.44 54.6778C234.997 55.0057 234.776 55.429 234.776 55.9475C234.776 56.3863 234.926 56.743 235.228 57.0178C235.534 57.2881 236.003 57.5031 236.637 57.6626L238.179 58.0415C239.035 58.2498 239.675 58.58 240.101 59.0321C240.53 59.4841 240.745 60.0514 240.745 60.7339C240.745 61.31 240.586 61.8219 240.267 62.2695C239.948 62.7171 239.502 63.0694 238.931 63.3265C238.363 63.5791 237.705 63.7054 236.956 63.7054C235.959 63.7054 235.137 63.4816 234.49 63.034C233.843 62.5819 233.428 61.9305 233.247 61.0796L234.383 60.8003C234.53 61.4075 234.816 61.8662 235.241 62.1764C235.671 62.4867 236.236 62.6418 236.936 62.6418C237.721 62.6418 238.348 62.4667 238.818 62.1166C239.287 61.7621 239.522 61.3189 239.522 60.7871C239.522 60.3749 239.385 60.0292 239.11 59.75C238.835 59.4664 238.419 59.2581 237.86 59.1251L236.192 58.7263C235.305 58.5135 234.649 58.1767 234.224 57.7158C233.798 57.2549 233.586 56.6832 233.586 56.0007C233.586 55.4378 233.739 54.9437 234.044 54.5182C234.35 54.0884 234.771 53.7515 235.308 53.5078C235.844 53.264 236.455 53.1422 237.142 53.1422C238.077 53.1422 238.824 53.3549 239.383 53.7803C239.945 54.2014 240.351 54.7819 240.599 55.522ZM247.358 53.2818V54.3122H242.485V53.2818H247.358ZM244.008 50.8354H245.198V60.8269C245.198 61.2524 245.271 61.587 245.417 61.8307C245.563 62.0701 245.754 62.2407 245.989 62.3426C246.224 62.4401 246.474 62.4889 246.74 62.4889C246.895 62.4889 247.028 62.48 247.139 62.4623C247.25 62.4401 247.347 62.418 247.431 62.3958L247.684 63.4661C247.569 63.5104 247.427 63.5503 247.258 63.5857C247.09 63.6256 246.882 63.6456 246.634 63.6456C246.199 63.6456 245.78 63.5503 245.377 63.3597C244.978 63.1692 244.65 62.8855 244.393 62.5088C244.136 62.1321 244.008 61.6646 244.008 61.1061V50.8354ZM254.064 63.7054C253.111 63.7054 252.287 63.4838 251.591 63.0406C250.895 62.593 250.357 61.9748 249.976 61.1859C249.599 60.3926 249.411 59.4797 249.411 58.447C249.411 57.4189 249.599 56.5059 249.976 55.7082C250.357 54.906 250.882 54.2789 251.551 53.8269C252.225 53.3704 253.003 53.1422 253.885 53.1422C254.439 53.1422 254.973 53.2441 255.487 53.448C256.001 53.6474 256.462 53.9554 256.869 54.372C257.282 54.7842 257.607 55.3049 257.847 55.9342C258.086 56.5591 258.206 57.2992 258.206 58.1545V58.7395H250.228V57.6959H256.996C256.996 57.0399 256.863 56.4505 256.597 55.9276C256.335 55.4002 255.97 54.9836 255.5 54.6778C255.035 54.372 254.496 54.2191 253.885 54.2191C253.238 54.2191 252.668 54.3919 252.176 54.7376C251.684 55.0833 251.299 55.5398 251.019 56.107C250.745 56.6743 250.605 57.2948 250.601 57.9684V58.5933C250.601 59.4043 250.74 60.1134 251.019 60.7206C251.303 61.3233 251.704 61.7909 252.223 62.1232C252.741 62.4556 253.355 62.6218 254.064 62.6218C254.547 62.6218 254.97 62.5465 255.334 62.3958C255.702 62.2451 256.01 62.0435 256.258 61.7909C256.51 61.5338 256.701 61.2524 256.83 60.9466L257.953 61.3122C257.798 61.7421 257.543 62.1388 257.188 62.5022C256.838 62.8656 256.4 63.1581 255.872 63.3797C255.349 63.5968 254.747 63.7054 254.064 63.7054ZM260.813 63.4927V53.2818H261.963V54.8506H262.07C262.273 54.3232 262.612 53.9089 263.087 53.6075C263.565 53.3017 264.139 53.1488 264.808 53.1488C265.513 53.1488 266.091 53.315 266.544 53.6474C267 53.9753 267.341 54.4274 267.567 55.0035H267.654C267.884 54.4363 268.259 53.9864 268.777 53.654C269.3 53.3172 269.934 53.1488 270.678 53.1488C271.627 53.1488 272.376 53.448 272.925 54.0463C273.475 54.6401 273.75 55.5088 273.75 56.6522V63.4927H272.566V56.6522C272.566 55.8456 272.36 55.2406 271.948 54.8373C271.536 54.434 270.993 54.2324 270.319 54.2324C269.539 54.2324 268.939 54.4717 268.518 54.9503C268.097 55.429 267.886 56.0361 267.886 56.7718V63.4927H266.676V56.5458C266.676 55.8544 266.484 55.296 266.098 54.8706C265.713 54.4451 265.17 54.2324 264.469 54.2324C264 54.2324 263.576 54.3476 263.2 54.5781C262.827 54.8085 262.533 55.1298 262.316 55.542C262.103 55.9497 261.996 56.4195 261.996 56.9513V63.4927H260.813Z" fill="#ACA1B7"/>
<defs>
<clipPath id="clip0_3032_564">
<rect x="2.01953" y="0.0683594" width="71" height="71" rx="10" fill="white"/>
</clipPath>
</defs>
</svg>
