<svg width="280" height="75" viewBox="0 0 280 75" fill="none" xmlns="http://www.w3.org/2000/svg">
<path d="M7.67662 45.222C11.9163 45.222 15.3533 41.7653 15.3533 37.5012C15.3533 33.237 11.9163 29.7803 7.67662 29.7803C3.43695 29.7803 0 33.237 0 37.5012C0 41.7653 3.43695 45.222 7.67662 45.222Z" fill="#9599A6"/>
<path d="M25.406 44.0634C29.0097 44.0634 31.9311 41.1252 31.9311 37.5007C31.9311 33.8762 29.0097 30.938 25.406 30.938C21.8022 30.938 18.8809 33.8762 18.8809 37.5007C18.8809 41.1252 21.8022 44.0634 25.406 44.0634Z" fill="#9599A6"/>
<path d="M43.1373 42.9054C46.1051 42.9054 48.5112 40.4857 48.5112 37.5008C48.5112 34.5159 46.1051 32.0962 43.1373 32.0962C40.1696 32.0962 37.7637 34.5159 37.7637 37.5008C37.7637 40.4857 40.1696 42.9054 43.1373 42.9054Z" fill="#9599A6"/>
<path d="M60.8667 41.7473C63.1986 41.7473 65.0888 39.8461 65.0888 37.5008C65.0888 35.1556 63.1986 33.2544 60.8667 33.2544C58.5348 33.2544 56.6445 35.1556 56.6445 37.5008C56.6445 39.8461 58.5348 41.7473 60.8667 41.7473Z" fill="#9599A6"/>
<path d="M78.5977 40.5893C80.2936 40.5893 81.6686 39.2066 81.6686 37.501C81.6686 35.7953 80.2936 34.4126 78.5977 34.4126C76.9018 34.4126 75.5273 35.7953 75.5273 37.501C75.5273 39.2066 76.9018 40.5893 78.5977 40.5893Z" fill="#9599A6"/>
<path d="M16.5408 59.5068C20.1445 59.5068 23.0659 56.5688 23.0659 52.9441C23.0659 49.3194 20.1445 46.3813 16.5408 46.3813C12.9371 46.3813 10.0156 49.3194 10.0156 52.9441C10.0156 56.5688 12.9371 59.5068 16.5408 59.5068Z" fill="#9599A6"/>
<path d="M34.2721 58.3487C37.2399 58.3487 39.6458 55.9289 39.6458 52.9444C39.6458 49.9594 37.2399 47.5396 34.2721 47.5396C31.3043 47.5396 28.8984 49.9594 28.8984 52.9444C28.8984 55.9289 31.3043 58.3487 34.2721 58.3487Z" fill="#9599A6"/>
<path d="M52.0034 57.1907C54.3353 57.1907 56.2256 55.2895 56.2256 52.9442C56.2256 50.5989 54.3353 48.6978 52.0034 48.6978C49.6715 48.6978 47.7812 50.5989 47.7812 52.9442C47.7812 55.2895 49.6715 57.1907 52.0034 57.1907Z" fill="#9599A6"/>
<path d="M69.7325 56.0321C71.4284 56.0321 72.8033 54.6497 72.8033 52.944C72.8033 51.2384 71.4284 49.8555 69.7325 49.8555C68.0366 49.8555 66.6621 51.2384 66.6621 52.944C66.6621 54.6497 68.0366 56.0321 69.7325 56.0321Z" fill="#9599A6"/>
<path d="M25.4068 73.7902C28.3746 73.7902 30.7805 71.3703 30.7805 68.3858C30.7805 65.4008 28.3746 62.981 25.4068 62.981C22.439 62.981 20.0332 65.4008 20.0332 68.3858C20.0332 71.3703 22.439 73.7902 25.4068 73.7902Z" fill="#9599A6"/>
<path d="M43.1381 72.6326C45.47 72.6326 47.3603 70.7314 47.3603 68.3861C47.3603 66.0408 45.47 64.1396 43.1381 64.1396C40.8064 64.1396 38.916 66.0408 38.916 68.3861C38.916 70.7314 40.8064 72.6326 43.1381 72.6326Z" fill="#9599A6"/>
<path d="M60.8677 71.474C62.5636 71.474 63.9381 70.0911 63.9381 68.3854C63.9381 66.6798 62.5636 65.2974 60.8677 65.2974C59.1719 65.2974 57.7969 66.6798 57.7969 68.3854C57.7969 70.0911 59.1719 71.474 60.8677 71.474Z" fill="#9599A6"/>
<path d="M16.5408 28.6201C20.1445 28.6201 23.0659 25.6819 23.0659 22.0573C23.0659 18.4328 20.1445 15.4946 16.5408 15.4946C12.9371 15.4946 10.0156 18.4328 10.0156 22.0573C10.0156 25.6819 12.9371 28.6201 16.5408 28.6201Z" fill="#9599A6"/>
<path d="M34.2721 27.462C37.2399 27.462 39.6458 25.0423 39.6458 22.0574C39.6458 19.0726 37.2399 16.6528 34.2721 16.6528C31.3043 16.6528 28.8984 19.0726 28.8984 22.0574C28.8984 25.0423 31.3043 27.462 34.2721 27.462Z" fill="#9599A6"/>
<path d="M52.0034 26.304C54.3353 26.304 56.2256 24.4028 56.2256 22.0575C56.2256 19.7122 54.3353 17.811 52.0034 17.811C49.6715 17.811 47.7812 19.7122 47.7812 22.0575C47.7812 24.4028 49.6715 26.304 52.0034 26.304Z" fill="#9599A6"/>
<path d="M69.7325 25.1459C71.4284 25.1459 72.8033 23.7632 72.8033 22.0576C72.8033 20.3519 71.4284 18.9692 69.7325 18.9692C68.0366 18.9692 66.6621 20.3519 66.6621 22.0576C66.6621 23.7632 68.0366 25.1459 69.7325 25.1459Z" fill="#9599A6"/>
<path d="M25.4068 12.0187C28.3746 12.0187 30.7805 9.59897 30.7805 6.61407C30.7805 3.6292 28.3746 1.20947 25.4068 1.20947C22.439 1.20947 20.0332 3.6292 20.0332 6.61407C20.0332 9.59897 22.439 12.0187 25.4068 12.0187Z" fill="#9599A6"/>
<path d="M43.1381 10.8606C45.47 10.8606 47.3603 8.95943 47.3603 6.61415C47.3603 4.26889 45.47 2.36768 43.1381 2.36768C40.8064 2.36768 38.916 4.26889 38.916 6.61415C38.916 8.95943 40.8064 10.8606 43.1381 10.8606Z" fill="#9599A6"/>
<path d="M60.8677 9.70258C62.5636 9.70258 63.9381 8.31987 63.9381 6.61422C63.9381 4.90858 62.5636 3.52588 60.8677 3.52588C59.1719 3.52588 57.7969 4.90858 57.7969 6.61422C57.7969 8.31987 59.1719 9.70258 60.8677 9.70258Z" fill="#9599A6"/>
<path d="M141.215 27.3389C141.011 25.4181 140.151 23.9225 138.635 22.8521C137.133 21.7817 135.18 21.2466 132.774 21.2466C131.083 21.2466 129.633 21.5031 128.423 22.0163C127.212 22.5295 126.287 23.226 125.645 24.1058C125.003 24.9856 124.676 25.9899 124.661 27.119C124.661 28.0574 124.873 28.8712 125.295 29.5603C125.733 30.2495 126.323 30.836 127.066 31.3199C127.81 31.7891 128.634 32.1849 129.538 32.5075C130.441 32.8301 131.353 33.1014 132.271 33.3213L136.47 34.3771C138.161 34.7729 139.787 35.3081 141.346 35.9826C142.921 36.6571 144.328 37.5076 145.567 38.534C146.821 39.5603 147.812 40.7993 148.541 42.251C149.27 43.7026 149.634 45.4034 149.634 47.3536C149.634 49.9928 148.964 52.3168 147.623 54.3259C146.282 56.3199 144.342 57.8813 141.806 59.0107C139.283 60.125 136.229 60.682 132.643 60.682C129.159 60.682 126.134 60.1396 123.568 59.0542C121.017 57.9694 119.019 56.3857 117.576 54.3036C116.147 52.2215 115.374 49.685 115.258 46.6938H123.24C123.356 48.2627 123.837 49.5675 124.683 50.6088C125.528 51.6496 126.629 52.4267 127.985 52.94C129.355 53.4534 130.886 53.7099 132.577 53.7099C134.342 53.7099 135.887 53.4462 137.213 52.9183C138.555 52.3754 139.604 51.6278 140.363 50.6746C141.12 49.7068 141.507 48.578 141.522 47.2876C141.507 46.1146 141.164 45.1468 140.493 44.3844C139.823 43.6072 138.883 42.9621 137.673 42.4489C136.477 41.9211 135.078 41.4518 133.474 41.0413L128.379 39.7216C124.69 38.7685 121.774 37.3243 119.631 35.3888C117.503 33.4386 116.438 30.8507 116.438 27.6248C116.438 24.9709 117.153 22.6468 118.582 20.6527C120.025 18.6586 121.986 17.1116 124.464 16.0119C126.943 14.8976 129.749 14.3404 132.883 14.3404C136.062 14.3404 138.846 14.8976 141.237 16.0119C143.643 17.1116 145.531 18.6439 146.901 20.6087C148.271 22.5589 148.979 24.8023 149.022 27.3389H141.215ZM156.517 72.6689V26.2172H164.303V31.8037H164.762C165.17 30.9826 165.746 30.1102 166.49 29.1864C167.233 28.248 168.239 27.4489 169.507 26.7891C170.776 26.1146 172.394 25.7773 174.362 25.7773C176.957 25.7773 179.297 26.4445 181.382 27.7788C183.481 29.0985 185.143 31.0559 186.368 33.6513C187.607 36.2319 188.226 39.399 188.226 43.1527C188.226 46.8624 187.621 50.0151 186.411 52.6101C185.201 55.2055 183.554 57.185 181.469 58.5486C179.385 59.9121 177.022 60.5939 174.384 60.5939C172.46 60.5939 170.863 60.2717 169.595 59.6262C168.326 58.9812 167.306 58.2041 166.533 57.2949C165.775 56.3712 165.184 55.4988 164.762 54.6776H164.434V72.6689H156.517ZM164.281 43.1087C164.281 45.2935 164.587 47.207 165.199 48.8494C165.826 50.4912 166.722 51.7744 167.889 52.6981C169.07 53.6073 170.499 54.0617 172.175 54.0617C173.925 54.0617 175.39 53.5928 176.571 52.6541C177.752 51.7009 178.641 50.4036 179.239 48.7613C179.851 47.1043 180.157 45.2201 180.157 43.1087C180.157 41.012 179.858 39.1498 179.26 37.5222C178.663 35.8946 177.773 34.619 176.593 33.6952C175.412 32.7715 173.939 32.3096 172.175 32.3096C170.484 32.3096 169.048 32.7568 167.867 33.6513C166.686 34.5456 165.79 35.7993 165.177 37.4122C164.58 39.0251 164.281 40.924 164.281 43.1087ZM202.922 14.9562V60.0002H195.005V14.9562H202.922ZM211.062 60.0002V26.2172H218.979V60.0002H211.062ZM215.042 21.4225C213.788 21.4225 212.709 21.0046 211.806 20.1688C210.902 19.3184 210.45 18.2993 210.45 17.1116C210.45 15.9093 210.902 14.8902 211.806 14.0544C212.709 13.204 213.788 12.7788 215.042 12.7788C216.31 12.7788 217.389 13.204 218.279 14.0544C219.183 14.8902 219.634 15.9093 219.634 17.1116C219.634 18.2993 219.183 19.3184 218.279 20.1688C217.389 21.0046 216.31 21.4225 215.042 21.4225ZM243.892 26.2172V32.3756H224.582V26.2172H243.892ZM229.35 18.1234H237.266V49.8389C237.266 50.9092 237.426 51.7304 237.747 52.3023C238.082 52.8592 238.519 53.2405 239.059 53.4462C239.598 53.6513 240.196 53.7539 240.852 53.7539C241.348 53.7539 241.8 53.7171 242.208 53.6441C242.631 53.5705 242.951 53.5047 243.17 53.4462L244.504 59.6702C244.081 59.8168 243.476 59.9784 242.689 60.1541C241.916 60.3302 240.969 60.4328 239.846 60.4623C237.864 60.5209 236.077 60.2204 234.488 59.5604C232.899 58.8859 231.638 57.8446 230.705 56.437C229.787 55.0294 229.335 53.2701 229.35 51.1584V18.1234ZM276.579 35.1469L269.363 35.9386C269.159 35.2055 268.801 34.5163 268.291 33.8712C267.795 33.226 267.125 32.7055 266.279 32.3096C265.434 31.9137 264.399 31.7158 263.174 31.7158C261.527 31.7158 260.141 32.075 259.019 32.7935C257.911 33.512 257.365 34.443 257.379 35.5867C257.365 36.5691 257.722 37.3683 258.45 37.9841C259.194 38.5999 260.419 39.1058 262.125 39.5017L267.854 40.7333C271.032 41.4225 273.394 42.5149 274.939 44.0105C276.499 45.5061 277.286 47.4635 277.301 49.883C277.286 52.0091 276.667 53.886 275.442 55.5133C274.232 57.1265 272.548 58.3875 270.39 59.2962C268.233 60.2054 265.754 60.6602 262.955 60.6602C258.844 60.6602 255.535 59.795 253.027 58.0647C250.519 56.3199 249.025 53.8933 248.544 50.7849L256.264 50.0368C256.614 51.562 257.357 52.7126 258.494 53.4897C259.631 54.2673 261.111 54.6559 262.933 54.6559C264.814 54.6559 266.323 54.2673 267.46 53.4897C268.612 52.7126 269.188 51.7526 269.188 50.6088C269.188 49.641 268.816 48.8417 268.072 48.2114C267.344 47.5808 266.206 47.097 264.661 46.7598L258.931 45.5501C255.71 44.8756 253.326 43.7392 251.781 42.141C250.235 40.5281 249.47 38.49 249.485 36.0266C249.47 33.9445 250.031 32.141 251.168 30.616C252.32 29.0765 253.916 27.8888 255.957 27.053C258.013 26.2026 260.382 25.7773 263.065 25.7773C267.001 25.7773 270.099 26.6205 272.358 28.3067C274.633 29.9929 276.04 32.273 276.579 35.1469Z" fill="#9599A6"/>
</svg>
