<svg width="710" height="157" viewBox="0 0 710 157" fill="none" xmlns="http://www.w3.org/2000/svg">
<path d="M178.824 75.5599V155.824H154.118V144.064C149.118 152.59 140.882 156.706 129.706 156.706C120.588 156.706 112.941 153.766 107.353 147.592C101.765 141.418 98.8235 133.185 98.8235 122.601V75.5599H123.235V119.073C123.235 124.365 124.706 128.187 127.353 131.127C130 134.067 133.824 135.243 138.529 135.243C143.235 135.243 147.059 133.773 149.706 131.127C152.353 128.481 153.824 124.365 153.824 119.073V75.5599H178.824Z" fill="#ACA1B7"/>
<path d="M217.059 75.5599V90.5543C222.941 79.97 230.588 74.6779 240 74.6779V99.6685H233.824C228.235 99.6685 223.824 101.139 221.176 103.785C218.235 106.431 217.059 111.135 217.059 117.897V155.824H192.353V75.5599H217.059Z" fill="#ACA1B7"/>
<path d="M278.235 86.1442C283.823 78.5 291.471 74.6779 301.765 74.6779C312.059 74.6779 320.588 78.5 327.647 86.1442C334.706 93.7884 338.235 103.785 338.235 115.839C338.235 127.893 334.706 137.596 327.647 145.24C320.588 152.884 312.059 156.706 301.765 156.706C291.765 156.706 283.824 152.59 277.941 144.064V155.824H253.235V49.3933H277.941V86.1442H278.235ZM307.941 130.539C311.471 127.011 313.235 122.307 313.235 115.839C313.235 109.371 311.471 104.667 307.941 101.139C304.412 97.6105 300.294 95.8464 295.588 95.8464C290.882 95.8464 286.765 97.6105 283.235 100.845C279.706 104.373 277.941 109.077 277.941 115.545C277.941 122.013 279.706 126.717 283.235 130.245C286.765 133.773 290.882 135.537 295.588 135.537C300.294 135.537 304.412 133.773 307.941 130.539Z" fill="#ACA1B7"/>
<path d="M388.235 157C376.471 157 367.059 153.178 359.412 145.828C352.059 138.184 348.235 128.187 348.235 115.839C348.235 103.491 352.059 93.4944 359.412 86.1442C366.765 78.794 376.471 74.9719 388.235 74.9719C400 74.9719 409.706 78.5 417.647 85.8502C425.294 93.2004 429.412 103.197 429.412 116.133C429.412 118.779 429.118 121.425 428.824 123.777H373.529C374.118 127.305 375.588 130.245 378.235 132.597C380.882 134.949 383.824 136.125 387.059 136.125C390.294 136.125 392.647 135.831 394.118 135.243C395.588 134.655 396.765 134.067 397.647 133.479C398.235 132.891 399.412 131.715 400.588 130.245H427.353C425 138.184 420.588 144.946 413.529 149.65C405.882 154.354 397.647 157 388.235 157ZM398.824 99.0805C395.882 96.7285 392.647 95.5524 388.529 95.5524C384.412 95.5524 381.176 96.7285 378.529 99.0805C375.882 101.433 374.118 104.373 373.529 108.195H403.529C403.235 104.667 401.471 101.433 398.824 99.0805Z" fill="#ACA1B7"/>
<path d="M466.176 142.3C466.176 146.122 465 149.356 462.353 152.002C459.706 154.648 456.471 155.824 452.647 155.824C448.823 155.824 445.588 154.648 442.941 152.002C440.294 149.356 439.118 146.122 439.118 142.3C439.118 138.478 440.294 135.243 442.941 132.597C445.588 129.951 448.823 128.775 452.647 128.775C456.471 128.775 459.706 129.951 462.353 132.597C465 135.537 466.176 138.478 466.176 142.3Z" fill="#ACA1B7"/>
<path d="M516.176 157C504.412 157 495 153.178 487.353 145.828C480 138.184 476.176 128.187 476.176 115.839C476.176 103.491 480 93.4944 487.353 86.1442C494.706 78.794 504.412 74.9719 516.176 74.9719C527.941 74.9719 537.647 78.5 545.588 85.8502C553.235 93.2004 557.353 103.197 557.353 116.133C557.353 118.779 557.059 121.425 556.765 123.777H501.471C502.059 127.305 503.529 130.245 506.176 132.597C508.823 134.949 511.765 136.125 515 136.125C518.235 136.125 520.588 135.831 522.059 135.243C523.529 134.655 524.706 134.067 525.588 133.479C526.176 132.891 527.353 131.715 528.529 130.245H555.294C552.941 138.184 548.235 144.946 541.471 149.65C534.118 154.354 525.882 157 516.176 157ZM526.765 99.0805C523.823 96.7285 520.588 95.5524 516.471 95.5524C512.647 95.5524 509.118 96.7285 506.47 99.0805C503.823 101.433 502.059 104.373 501.471 108.195H531.471C531.176 104.667 529.706 101.433 526.765 99.0805Z" fill="#ACA1B7"/>
<path d="M607.353 134.949H616.176V155.824H603.529C594.412 155.824 587.647 153.766 582.647 149.944C577.647 146.122 575.294 139.066 575.294 129.363V95.8464H567.941V75.2659H575.294V55.5674H600V75.2659H616.176V95.8464H600V129.363C599.706 133.185 602.353 134.949 607.353 134.949Z" fill="#ACA1B7"/>
<path d="M654.706 49.3933V87.3202C659.706 78.794 667.941 74.6779 679.118 74.6779C688.235 74.6779 695.882 77.618 701.471 83.7921C707.059 89.9663 710 98.1985 710 108.783V155.824H685.588V112.311C685.588 107.019 684.118 103.197 681.471 100.257C678.824 97.3165 675 96.1405 670.294 96.1405C665.588 96.1405 661.765 97.6105 659.118 100.257C656.471 103.197 655 107.019 655 112.311V155.824H630.294V49.3933H654.706Z" fill="#ACA1B7"/>
<path d="M22.9412 49.3933L47.6471 29.1067L24.1176 0L22.9412 49.3933Z" fill="#ACA1B7"/>
<path d="M85 152.296L80 155.824L58.2353 144.946L48.8235 114.369L15.2941 97.0225H28.5294L0 84.6742L27.3529 70.2678L8.52941 72.6199L53.2353 36.1629L85 75.5599V135.831H75.2941L73.2353 139.066L83.2353 150.826H85.2941V152.296H85ZM75 94.0824L63.8235 79.676L47.3529 76.442L56.7647 86.4382L65 85.5562L75 94.0824Z" fill="#ACA1B7"/>
</svg>
