<svg width="614" height="614" viewBox="0 0 614 614" fill="none" xmlns="http://www.w3.org/2000/svg">
<g clip-path="url(#clip0_3032_580)">
<path d="M0 306.667V613.333H306.667H613.333V306.667V0.000130773H306.667H0V306.667ZM212.667 199.067C213.2 201.333 217.467 217.733 222.267 235.333C226.933 252.933 232.933 275.467 235.467 285.333C238 295.2 240.4 304.267 240.933 305.333C241.333 306.4 247.467 285.467 254.667 258.667C261.733 231.867 268.667 206.533 269.867 202.267L272.133 194.667H307.2H342.267L356.667 248.933C364.533 278.933 371.333 303.867 371.733 304.533C372.133 305.2 379.067 280.667 387.2 250.133L402 194.533L441.333 194.667C462.8 194.667 480.8 194.933 481.067 195.2C481.467 195.733 478.4 206.533 459.2 271.733C453.6 290.533 447.333 312 445.2 319.333C443.067 326.667 433.867 357.867 424.933 388.667L408.533 444.667L373.867 445.067L339.333 445.333L323.333 388.667C314.667 357.467 307.067 332 306.667 332C306.133 332 298.667 357.467 290 388.667L274.133 445.333H239.733H205.467L201.467 432.267C199.333 425.2 195.467 412.133 192.8 403.333C190.267 394.533 175.6 344.4 160.133 291.867C144.667 239.333 132 196 132 195.6C132 194.8 208.933 193.6 210.933 194.4C211.333 194.533 212.267 196.667 212.667 199.067Z" fill="#ACA1B7"/>
</g>
<defs>
<clipPath id="clip0_3032_580">
<rect width="613.333" height="613.333" fill="white"/>
</clipPath>
</defs>
</svg>
