<svg width="308" height="71" viewBox="0 0 308 71" fill="none" xmlns="http://www.w3.org/2000/svg">
<g clip-path="url(#clip0_3232_583)">
<path d="M0 35.5V71H35.5H71V35.5V-7.62939e-06H35.5H0V35.5ZM24.6185 23.0441C24.6802 23.3065 25.1741 25.205 25.7298 27.2424C26.27 29.2798 26.9646 31.8883 27.2578 33.0304C27.5511 34.1726 27.8289 35.2222 27.8907 35.3456C27.937 35.4691 28.647 33.0459 29.4804 29.9435C30.2985 26.8411 31.1011 23.9085 31.24 23.4146L31.5024 22.5348H35.5617H39.6211L41.288 28.8167C42.1987 32.2896 42.9859 35.1759 43.0322 35.253C43.0785 35.3302 43.8811 32.4902 44.8226 28.9557L46.5359 22.5193L51.0891 22.5348C53.5741 22.5348 55.6578 22.5656 55.6887 22.5965C55.735 22.6583 55.38 23.9085 53.1574 31.4561C52.5091 33.6324 51.7837 36.1174 51.5367 36.9663C51.2898 37.8152 50.2248 41.427 49.1907 44.9924L47.2922 51.475L43.2791 51.5213L39.2815 51.5522L37.4294 44.9924C36.4261 41.3806 35.5463 38.4326 35.5 38.4326C35.4383 38.4326 34.5739 41.3806 33.5707 44.9924L31.7339 51.5522H27.7517H23.785L23.322 50.0396C23.075 49.2215 22.6274 47.7089 22.3187 46.6902C22.0254 45.6715 20.3276 39.868 18.5372 33.7867C16.7467 27.7054 15.2804 22.6891 15.2804 22.6428C15.2804 22.5502 24.1863 22.4113 24.4178 22.5039C24.4641 22.5193 24.5722 22.7663 24.6185 23.0441Z" fill="#ACA1B7"/>
</g>
<path d="M91.892 52.5L81.9034 17.5909H89.9659L95.7443 41.8466H96.0341L102.409 17.5909H109.312L115.67 41.8977H115.977L121.756 17.5909H129.818L119.83 52.5H112.636L105.989 29.6761H105.716L99.0852 52.5H91.892ZM138.286 52.9943C136.615 52.9943 135.126 52.7045 133.82 52.125C132.513 51.5341 131.479 50.6648 130.717 49.517C129.967 48.358 129.592 46.9148 129.592 45.1875C129.592 43.733 129.859 42.5114 130.393 41.5227C130.928 40.5341 131.655 39.7386 132.575 39.1364C133.496 38.5341 134.541 38.0795 135.712 37.7727C136.893 37.4659 138.132 37.25 139.428 37.125C140.95 36.9659 142.178 36.8182 143.109 36.6818C144.041 36.5341 144.717 36.3182 145.138 36.0341C145.558 35.75 145.768 35.3295 145.768 34.7727V34.6705C145.768 33.5909 145.428 32.7557 144.746 32.1648C144.075 31.5739 143.121 31.2784 141.882 31.2784C140.575 31.2784 139.536 31.5682 138.763 32.1477C137.99 32.7159 137.479 33.4318 137.229 34.2955L130.513 33.75C130.854 32.1591 131.524 30.7841 132.524 29.625C133.524 28.4545 134.814 27.5568 136.393 26.9318C137.984 26.2955 139.825 25.9773 141.916 25.9773C143.371 25.9773 144.763 26.1477 146.092 26.4886C147.433 26.8295 148.621 27.358 149.655 28.0739C150.7 28.7898 151.524 29.7102 152.126 30.8352C152.729 31.9489 153.03 33.2841 153.03 34.8409V52.5H146.143V48.8693H145.939C145.518 49.6875 144.956 50.4091 144.251 51.0341C143.547 51.6477 142.7 52.1307 141.712 52.483C140.723 52.8239 139.581 52.9943 138.286 52.9943ZM140.365 47.983C141.433 47.983 142.376 47.7727 143.195 47.3523C144.013 46.9205 144.655 46.3409 145.121 45.6136C145.587 44.8864 145.82 44.0625 145.82 43.142V40.3636C145.592 40.5114 145.28 40.6477 144.882 40.7727C144.496 40.8864 144.058 40.9943 143.57 41.0966C143.081 41.1875 142.592 41.2727 142.104 41.3523C141.615 41.4205 141.172 41.483 140.774 41.5398C139.922 41.6648 139.178 41.8636 138.541 42.1364C137.905 42.4091 137.411 42.7784 137.058 43.2443C136.706 43.6989 136.53 44.267 136.53 44.9489C136.53 45.9375 136.888 46.6932 137.604 47.2159C138.331 47.7273 139.251 47.983 140.365 47.983ZM158.663 52.5V26.3182H165.703V30.8864H165.976C166.453 29.2614 167.254 28.0341 168.379 27.2045C169.504 26.3636 170.8 25.9432 172.266 25.9432C172.629 25.9432 173.021 25.9659 173.442 26.0114C173.862 26.0568 174.232 26.1193 174.55 26.1989V32.642C174.209 32.5398 173.737 32.4489 173.135 32.3693C172.533 32.2898 171.982 32.25 171.482 32.25C170.413 32.25 169.459 32.483 168.618 32.9489C167.788 33.4034 167.129 34.0398 166.641 34.858C166.163 35.6761 165.925 36.6193 165.925 37.6875V52.5H158.663ZM178.304 62.3182V26.3182H185.463V30.7159H185.787C186.105 30.0114 186.565 29.2955 187.168 28.5682C187.781 27.8295 188.577 27.2159 189.554 26.7273C190.543 26.2273 191.77 25.9773 193.236 25.9773C195.145 25.9773 196.906 26.4773 198.52 27.4773C200.134 28.4659 201.423 29.9602 202.389 31.9602C203.355 33.9489 203.838 36.4432 203.838 39.4432C203.838 42.3636 203.366 44.8295 202.423 46.8409C201.491 48.8409 200.219 50.358 198.605 51.392C197.003 52.4148 195.207 52.9261 193.219 52.9261C191.81 52.9261 190.611 52.6932 189.622 52.2273C188.645 51.7614 187.844 51.1761 187.219 50.4716C186.594 49.7557 186.116 49.0341 185.787 48.3068H185.565V62.3182H178.304ZM185.412 39.4091C185.412 40.9659 185.628 42.3239 186.06 43.483C186.491 44.642 187.116 45.5455 187.935 46.1932C188.753 46.8295 189.747 47.1477 190.918 47.1477C192.099 47.1477 193.099 46.8239 193.918 46.1761C194.736 45.517 195.355 44.608 195.776 43.4489C196.207 42.2784 196.423 40.9318 196.423 39.4091C196.423 37.8977 196.213 36.5682 195.793 35.4205C195.372 34.2727 194.753 33.375 193.935 32.7273C193.116 32.0795 192.111 31.7557 190.918 31.7557C189.736 31.7557 188.736 32.0682 187.918 32.6932C187.111 33.3182 186.491 34.2045 186.06 35.3523C185.628 36.5 185.412 37.8523 185.412 39.4091ZM220.509 53.0114C217.827 53.0114 215.52 52.4432 213.588 51.3068C211.668 50.1591 210.19 48.5682 209.156 46.5341C208.134 44.5 207.622 42.1591 207.622 39.5114C207.622 36.8295 208.139 34.4773 209.173 32.4545C210.219 30.4205 211.702 28.8352 213.622 27.6989C215.543 26.5511 217.827 25.9773 220.474 25.9773C222.759 25.9773 224.759 26.392 226.474 27.2216C228.19 28.0511 229.548 29.2159 230.548 30.7159C231.548 32.2159 232.099 33.9773 232.202 36H225.349C225.156 34.6932 224.645 33.642 223.815 32.8466C222.997 32.0398 221.923 31.6364 220.594 31.6364C219.469 31.6364 218.486 31.9432 217.645 32.5568C216.815 33.1591 216.168 34.0398 215.702 35.1989C215.236 36.358 215.003 37.7614 215.003 39.4091C215.003 41.0795 215.23 42.5 215.685 43.6705C216.151 44.8409 216.804 45.733 217.645 46.3466C218.486 46.9602 219.469 47.267 220.594 47.267C221.423 47.267 222.168 47.0966 222.827 46.7557C223.497 46.4148 224.048 45.9205 224.48 45.2727C224.923 44.6136 225.213 43.8239 225.349 42.9034H232.202C232.088 44.9034 231.543 46.6648 230.565 48.1875C229.599 49.6989 228.264 50.8807 226.56 51.733C224.855 52.5852 222.838 53.0114 220.509 53.0114ZM244.317 52.9943C242.646 52.9943 241.158 52.7045 239.851 52.125C238.544 51.5341 237.51 50.6648 236.749 49.517C235.999 48.358 235.624 46.9148 235.624 45.1875C235.624 43.733 235.891 42.5114 236.425 41.5227C236.959 40.5341 237.686 39.7386 238.607 39.1364C239.527 38.5341 240.572 38.0795 241.743 37.7727C242.925 37.4659 244.163 37.25 245.459 37.125C246.982 36.9659 248.209 36.8182 249.141 36.6818C250.072 36.5341 250.749 36.3182 251.169 36.0341C251.589 35.75 251.8 35.3295 251.8 34.7727V34.6705C251.8 33.5909 251.459 32.7557 250.777 32.1648C250.107 31.5739 249.152 31.2784 247.913 31.2784C246.607 31.2784 245.567 31.5682 244.794 32.1477C244.021 32.7159 243.51 33.4318 243.26 34.2955L236.544 33.75C236.885 32.1591 237.555 30.7841 238.555 29.625C239.555 28.4545 240.845 27.5568 242.425 26.9318C244.016 26.2955 245.857 25.9773 247.947 25.9773C249.402 25.9773 250.794 26.1477 252.124 26.4886C253.464 26.8295 254.652 27.358 255.686 28.0739C256.732 28.7898 257.555 29.7102 258.158 30.8352C258.76 31.9489 259.061 33.2841 259.061 34.8409V52.5H252.175V48.8693H251.97C251.55 49.6875 250.987 50.4091 250.283 51.0341C249.578 51.6477 248.732 52.1307 247.743 52.483C246.754 52.8239 245.612 52.9943 244.317 52.9943ZM246.396 47.983C247.464 47.983 248.408 47.7727 249.226 47.3523C250.044 46.9205 250.686 46.3409 251.152 45.6136C251.618 44.8864 251.851 44.0625 251.851 43.142V40.3636C251.624 40.5114 251.311 40.6477 250.913 40.7727C250.527 40.8864 250.089 40.9943 249.601 41.0966C249.112 41.1875 248.624 41.2727 248.135 41.3523C247.646 41.4205 247.203 41.483 246.805 41.5398C245.953 41.6648 245.209 41.8636 244.572 42.1364C243.936 42.4091 243.442 42.7784 243.089 43.2443C242.737 43.6989 242.561 44.267 242.561 44.9489C242.561 45.9375 242.919 46.6932 243.635 47.2159C244.362 47.7273 245.283 47.983 246.396 47.983ZM286.479 33.7841L279.831 34.1932C279.717 33.625 279.473 33.1136 279.098 32.6591C278.723 32.1932 278.229 31.8239 277.615 31.5511C277.013 31.267 276.291 31.125 275.45 31.125C274.325 31.125 273.376 31.3636 272.604 31.8409C271.831 32.3068 271.445 32.9318 271.445 33.7159C271.445 34.3409 271.695 34.8693 272.195 35.3011C272.695 35.733 273.553 36.0795 274.768 36.3409L279.507 37.2955C282.053 37.8182 283.95 38.6591 285.2 39.8182C286.45 40.9773 287.075 42.5 287.075 44.3864C287.075 46.1023 286.57 47.608 285.558 48.9034C284.558 50.1989 283.183 51.2102 281.433 51.9375C279.695 52.6534 277.689 53.0114 275.416 53.0114C271.95 53.0114 269.189 52.2898 267.132 50.8466C265.087 49.392 263.888 47.4148 263.536 44.9148L270.678 44.5398C270.893 45.5966 271.416 46.4034 272.246 46.9602C273.075 47.5057 274.138 47.7784 275.433 47.7784C276.706 47.7784 277.729 47.5341 278.501 47.0455C279.286 46.5455 279.683 45.9034 279.695 45.1193C279.683 44.4602 279.405 43.9205 278.859 43.5C278.314 43.0682 277.473 42.7386 276.337 42.5114L271.803 41.608C269.246 41.0966 267.342 40.2102 266.092 38.9489C264.854 37.6875 264.234 36.0795 264.234 34.125C264.234 32.4432 264.689 30.9943 265.598 29.7784C266.518 28.5625 267.808 27.625 269.467 26.9659C271.138 26.3068 273.092 25.9773 275.331 25.9773C278.638 25.9773 281.24 26.6761 283.138 28.0739C285.047 29.4716 286.161 31.375 286.479 33.7841ZM305.574 26.3182V31.7727H289.807V26.3182H305.574ZM293.386 20.0455H300.648V44.4545C300.648 45.125 300.75 45.6477 300.955 46.0227C301.159 46.3864 301.443 46.642 301.807 46.7898C302.182 46.9375 302.614 47.0114 303.102 47.0114C303.443 47.0114 303.784 46.983 304.125 46.9261C304.466 46.858 304.727 46.8068 304.909 46.7727L306.051 52.1761C305.688 52.2898 305.176 52.4205 304.517 52.5682C303.858 52.7273 303.057 52.8239 302.114 52.858C300.364 52.9261 298.83 52.6932 297.511 52.1591C296.205 51.625 295.188 50.7955 294.46 49.6705C293.733 48.5455 293.375 47.125 293.386 45.4091V20.0455Z" fill="#ACA1B7"/>
<defs>
<clipPath id="clip0_3232_583">
<rect width="71" height="71" rx="10" fill="white"/>
</clipPath>
</defs>
</svg>
