<svg width="280" height="85" viewBox="0 0 280 85" fill="none" xmlns="http://www.w3.org/2000/svg">
<g clip-path="url(#clip0_3239_587)">
<path d="M110.303 58.4425V50.8899L127.47 29.712H110.71V22.3125H138.371V29.3037L120.796 50.8899H138.727V58.4425H110.303Z" fill="#9599A6"/>
<path d="M158.29 47.3686H157.221C156.304 47.3686 155.37 47.4196 154.419 47.5217C153.501 47.5898 152.67 47.7428 151.923 47.981C151.21 48.2191 150.615 48.5763 150.14 49.0526C149.664 49.4949 149.427 50.0902 149.427 50.8387C149.427 51.315 149.528 51.7232 149.732 52.0634C149.97 52.4037 150.259 52.6758 150.598 52.8799C150.938 53.0841 151.329 53.2371 151.77 53.3392C152.211 53.4073 152.636 53.4413 153.043 53.4413C154.742 53.4413 156.032 52.982 156.914 52.0634C157.832 51.1109 158.29 49.8351 158.29 48.2361V47.3686ZM142.957 36.499C144.452 35.0701 146.183 33.9985 148.153 33.284C150.157 32.5696 152.194 32.2124 154.266 32.2124C156.405 32.2124 158.206 32.4845 159.666 33.0289C161.16 33.5392 162.365 34.3557 163.282 35.4784C164.199 36.567 164.861 37.9619 165.269 39.6629C165.71 41.3299 165.931 43.3201 165.931 45.6335V58.4423H158.29V55.7377H158.137C157.492 56.7923 156.507 57.6088 155.183 58.1872C153.892 58.7655 152.483 59.0547 150.955 59.0547C149.936 59.0547 148.884 58.9186 147.797 58.6465C146.71 58.3743 145.708 57.932 144.791 57.3196C143.908 56.7073 143.178 55.8908 142.601 54.8701C142.024 53.8495 141.734 52.5908 141.734 51.0939C141.734 49.2567 142.227 47.7768 143.212 46.6542C144.231 45.5315 145.521 44.664 147.083 44.0516C148.679 43.4392 150.445 43.031 152.381 42.8268C154.317 42.6227 156.202 42.5206 158.035 42.5206V42.1124C158.035 40.8536 157.594 39.9351 156.711 39.3567C155.828 38.7444 154.742 38.4382 153.451 38.4382C152.262 38.4382 151.107 38.6933 149.987 39.2037C148.901 39.7139 147.966 40.3263 147.185 41.0408L142.957 36.499Z" fill="#9599A6"/>
<path d="M198.348 45.7136C198.348 47.4827 198.076 49.1837 197.532 50.8167C196.989 52.4497 196.191 53.8956 195.138 55.1543C194.12 56.3791 192.863 57.3657 191.369 58.1142C189.875 58.8626 188.176 59.2368 186.275 59.2368C184.712 59.2368 183.235 58.9307 181.843 58.3183C180.451 57.6719 179.364 56.8044 178.583 55.7157H178.481V70.7698H170.127V33.109H178.074V36.2219H178.226C179.008 35.2012 180.077 34.3167 181.436 33.5682C182.828 32.7858 184.458 32.3945 186.326 32.3945C188.159 32.3945 189.824 32.7517 191.318 33.4662C192.812 34.1806 194.068 35.1502 195.087 36.3749C196.14 37.5997 196.938 39.0286 197.481 40.6616C198.059 42.2606 198.348 43.9445 198.348 45.7136ZM190.248 45.7136C190.248 44.8971 190.112 44.0977 189.841 43.3152C189.603 42.5327 189.229 41.8523 188.72 41.2739C188.244 40.6616 187.633 40.1683 186.886 39.7941C186.139 39.4198 185.273 39.2327 184.288 39.2327C183.337 39.2327 182.489 39.4198 181.741 39.7941C180.994 40.1683 180.349 40.6616 179.805 41.2739C179.296 41.8863 178.888 42.5838 178.583 43.3662C178.311 44.1487 178.176 44.9482 178.176 45.7647C178.176 46.5812 178.311 47.3807 178.583 48.1631C178.888 48.9456 179.296 49.643 179.805 50.2554C180.349 50.8678 180.994 51.3611 181.741 51.7353C182.489 52.1095 183.337 52.2966 184.288 52.2966C185.273 52.2966 186.139 52.1095 186.886 51.7353C187.633 51.3611 188.244 50.8678 188.72 50.2554C189.229 49.643 189.603 48.9456 189.841 48.1631C190.112 47.3466 190.248 46.5301 190.248 45.7136Z" fill="#9599A6"/>
<path d="M230.767 45.7136C230.767 47.4827 230.496 49.1837 229.952 50.8167C229.409 52.4497 228.611 53.8956 227.558 55.1543C226.539 56.3791 225.283 57.3657 223.789 58.1142C222.295 58.8626 220.596 59.2368 218.695 59.2368C217.132 59.2368 215.655 58.9307 214.263 58.3183C212.871 57.6719 211.784 56.8044 211.003 55.7157H210.901V70.7698H202.547V33.109H210.494V36.2219H210.646C211.427 35.2012 212.497 34.3167 213.855 33.5682C215.248 32.7858 216.878 32.3945 218.746 32.3945C220.579 32.3945 222.244 32.7517 223.738 33.4662C225.232 34.1806 226.488 35.1502 227.507 36.3749C228.56 37.5997 229.358 39.0286 229.901 40.6616C230.479 42.2606 230.767 43.9445 230.767 45.7136ZM222.668 45.7136C222.668 44.8971 222.532 44.0977 222.261 43.3152C222.022 42.5327 221.649 41.8523 221.14 41.2739C220.664 40.6616 220.053 40.1683 219.306 39.7941C218.558 39.4198 217.693 39.2327 216.708 39.2327C215.757 39.2327 214.908 39.4198 214.161 39.7941C213.414 40.1683 212.768 40.6616 212.225 41.2739C211.716 41.8863 211.308 42.5838 211.003 43.3662C210.731 44.1487 210.595 44.9482 210.595 45.7647C210.595 46.5812 210.731 47.3807 211.003 48.1631C211.308 48.9456 211.716 49.643 212.225 50.2554C212.768 50.8678 213.414 51.3611 214.161 51.7353C214.908 52.1095 215.757 52.2966 216.708 52.2966C217.693 52.2966 218.558 52.1095 219.306 51.7353C220.053 51.3611 220.664 50.8678 221.14 50.2554C221.649 49.643 222.022 48.9456 222.261 48.1631C222.532 47.3466 222.668 46.5301 222.668 45.7136Z" fill="#9599A6"/>
<path d="M252.101 42.9069C252.101 41.5801 251.677 40.4404 250.828 39.4879C250.013 38.5353 248.773 38.059 247.109 38.059C246.294 38.059 245.547 38.1951 244.868 38.4672C244.188 38.7054 243.595 39.0456 243.085 39.4879C242.576 39.9302 242.168 40.4574 241.862 41.0699C241.557 41.6481 241.387 42.2606 241.353 42.9069H252.101ZM259.794 46.1219C259.794 46.4621 259.794 46.8023 259.794 47.1425C259.794 47.4828 259.777 47.8059 259.743 48.1121H241.353C241.421 48.8265 241.625 49.473 241.964 50.0513C242.338 50.6297 242.796 51.14 243.34 51.5822C243.917 51.9905 244.546 52.3137 245.224 52.5518C245.938 52.7899 246.667 52.909 247.415 52.909C248.739 52.909 249.86 52.6709 250.777 52.1946C251.694 51.6843 252.441 51.0379 253.018 50.2554L258.826 53.9297C257.637 55.6647 256.058 57.0085 254.088 57.9611C252.152 58.8796 249.894 59.3389 247.313 59.3389C245.411 59.3389 243.612 59.0498 241.913 58.4714C240.215 57.8591 238.721 56.9915 237.431 55.8688C236.174 54.7122 235.173 53.3002 234.425 51.6332C233.712 49.9662 233.355 48.061 233.355 45.9178C233.355 43.8425 233.712 41.9714 234.425 40.3044C235.139 38.6033 236.106 37.1745 237.328 36.0177C238.551 34.827 239.995 33.9085 241.659 33.2621C243.323 32.6157 245.123 32.2925 247.059 32.2925C248.926 32.2925 250.641 32.6157 252.203 33.2621C253.766 33.8745 255.107 34.776 256.228 35.9667C257.348 37.1575 258.214 38.6033 258.826 40.3044C259.47 42.0054 259.794 43.9446 259.794 46.1219Z" fill="#9599A6"/>
<path d="M279.643 39.9471C279.269 39.8451 278.896 39.777 278.522 39.743C278.182 39.709 277.843 39.692 277.503 39.692C276.383 39.692 275.432 39.8961 274.65 40.3043C273.904 40.7126 273.292 41.2059 272.817 41.7843C272.375 42.3626 272.053 42.992 271.849 43.6724C271.645 44.3528 271.543 44.9482 271.543 45.4585V58.5224H263.189V33.109H271.237V36.7832H271.34C271.985 35.4904 272.902 34.4358 274.09 33.6193C275.279 32.8028 276.654 32.3945 278.216 32.3945C278.556 32.3945 278.879 32.4115 279.184 32.4456C279.524 32.4796 279.796 32.5306 279.999 32.5987L279.643 39.9471Z" fill="#9599A6"/>
<path d="M84.8485 42.5C84.8485 19.0279 65.8545 0 42.4242 0C18.994 0 0 19.0279 0 42.5C0 65.9721 18.994 85 42.4242 85C65.8545 85 84.8485 65.9721 84.8485 42.5Z" fill="#9599A6"/>
<path fill-rule="evenodd" clip-rule="evenodd" d="M26.1905 31.9377L56.1025 31.79L48.941 42.602L65.8422 42.5201L58.6796 53.1508L28.5737 53.3439L35.8482 42.6077L19.0059 42.6011L26.1905 31.9377Z" fill="white"/>
</g>
<defs>
<clipPath id="clip0_3239_587">
<rect width="280" height="85" fill="white"/>
</clipPath>
</defs>
</svg>
